M48
;DRILL file {KiCad 4.0.7-e2-6376~58~ubuntu16.04.1} date Tue Oct 17 13:17:16 2017
;FORMAT={2:4/ absolute / inch / suppress trailing zeros}
FMAT,2
INCH,LZ
T1C0.016
T2C0.020
T3C0.028
T4C0.030
T5C0.031
T6C0.032
T7C0.035
T8C0.039
T9C0.039
T10C0.043
T11C0.047
T12C0.060
T13C0.118
%
G90
G05
M72
T1
X045474Y-041382
X046464Y-04488
X047472Y-015006
X04878Y-028356
X048972Y-028952
X054483Y-019613
X05844Y-019665
T2
X039961Y-035314
X040354Y-035314
X040748Y-035314
X041142Y-035314
X041535Y-035314
X041929Y-035314
X042323Y-035314
X042717Y-035314
X04311Y-035314
X043504Y-035314
X043898Y-035314
X044291Y-035314
X044685Y-035314
X045453Y-035313
X045851Y-035314
X04646Y-035314
X046851Y-035314
X047452Y-035312
X047851Y-035314
X048456Y-035313
X048851Y-035314
X049452Y-035316
X049851Y-035314
X050454Y-035304
X050851Y-035314
X051602Y-035307
X052637Y-035316
X053736Y-035316
X054245Y-035314
X054638Y-035314
X055032Y-035314
X055426Y-035314
X05582Y-035314
X056213Y-035314
X056607Y-035314
X057001Y-035314
X057394Y-035314
X057788Y-035314
X058182Y-035314
T3
X045821Y-02178
X045821Y-02267
X048821Y-02178
X048821Y-02267
T4
X05513Y-01626
X05513Y-01726
X05613Y-01626
X05615Y-01726
X05713Y-01626
X05713Y-01726
X05813Y-01626
X05813Y-01726
T5
X041544Y-04242
X041544Y-044568
X041562Y-040272
X042544Y-04242
X042544Y-044568
X042562Y-040272
X043544Y-04242
X043544Y-044568
X043562Y-040272
X04427Y-01692
X04427Y-01992
X044544Y-04242
X044544Y-044568
X044562Y-040272
X04527Y-01692
X04527Y-01992
X04627Y-01692
X04627Y-01992
X04727Y-01692
X04727Y-01992
X04827Y-01692
X04827Y-01992
X04927Y-01692
X04927Y-01992
X050232Y-028938
X05027Y-01692
X05027Y-01992
X051232Y-028938
X05127Y-01692
X05127Y-01992
X05164Y-021241
X05164Y-02321
X052232Y-028938
X05227Y-01692
X05227Y-01992
X05293Y-02124
X05293Y-023209
X053232Y-028938
X053982Y-04242
X053982Y-044568
X05422Y-021241
X05422Y-02321
X054982Y-04242
X054982Y-044568
X05511Y-01496
X055982Y-04242
X055982Y-044568
X05611Y-01496
X056982Y-04242
X056982Y-044568
X05711Y-01496
X05811Y-01496
T6
X056804Y-021494
T7
X045569Y-047636
X046569Y-047636
X049213Y-04415
X049213Y-04515
X049213Y-05014
X049213Y-05114
X051857Y-047636
X052857Y-047636
X05564Y-020349
X05564Y-022729
X05762Y-020349
X05762Y-022729
T8
X03947Y-024508
X03947Y-03047
X03973Y-02696
X03973Y-02796
X03993Y-01697
X03993Y-01797
X04047Y-024508
X04047Y-03047
X04073Y-02696
X04073Y-02796
X04147Y-024508
X04147Y-03047
X041554Y-052236
X04173Y-02696
X04173Y-02796
X04247Y-024508
X04247Y-03047
X042511Y-01496
X042554Y-052236
X04273Y-02696
X04273Y-02796
X04347Y-024508
X04347Y-03047
X043496Y-01496
X043554Y-052236
X04373Y-02696
X04373Y-02796
X04447Y-024508
X04447Y-03047
X04448Y-01496
X044554Y-052236
X04473Y-02696
X04473Y-02796
X04515Y-034252
X04515Y-036417
X045464Y-01496
X04547Y-024508
X04547Y-03047
X04573Y-02696
X04573Y-02796
X04615Y-034252
X04615Y-036417
X046449Y-01496
X04647Y-024508
X04647Y-03047
X04673Y-02696
X04673Y-02796
X04715Y-034252
X04715Y-036417
X04747Y-024508
X04747Y-03047
X047713Y-032044
X047713Y-03828
X04815Y-034252
X04815Y-036417
X048451Y-01496
X04847Y-024508
X04847Y-03047
X048713Y-032044
X048713Y-03828
X04915Y-034252
X04915Y-036417
X049436Y-01496
X04947Y-024508
X04947Y-03047
X049713Y-032044
X049713Y-03828
X05015Y-034252
X05015Y-036417
X05042Y-01496
X05047Y-024508
X05047Y-03047
X050713Y-032044
X050713Y-03828
X050746Y-026122
X05115Y-034252
X05115Y-036417
X051404Y-01496
X05147Y-024508
X05147Y-03047
X05215Y-034252
X05215Y-036417
X052389Y-01496
X05247Y-024508
X05247Y-03047
X052746Y-026126
X05315Y-034252
X05315Y-036417
X05347Y-024508
X05347Y-03047
X05447Y-024508
X05447Y-03047
X055132Y-01863
X05547Y-024508
X05547Y-03047
X056132Y-01863
X056652Y-026422
X05697Y-028935
X05697Y-029935
X057132Y-01863
X057652Y-026422
X058132Y-01863
X058652Y-026422
T9
X04112Y-019734
X04112Y-022726
T10
X042167Y-046356
X042167Y-048916
X043939Y-046356
X043939Y-048916
X047933Y-04675
X047933Y-048522
X048327Y-04024
X048327Y-0428
X048327Y-0525
X048327Y-05506
X049722Y-027648
X050098Y-04024
X050098Y-0428
X050098Y-0525
X050098Y-05506
X050492Y-04675
X050492Y-048522
X053722Y-027648
X054487Y-046258
X054487Y-048817
X056258Y-046258
X056258Y-048817
T11
X040495Y-046657
X040495Y-048625
X045613Y-046657
X045613Y-048625
X046655Y-04053
X046655Y-042498
X046655Y-052806
X046655Y-054774
X048228Y-045077
X048228Y-050195
X050197Y-045077
X050197Y-050195
X051773Y-04053
X051773Y-042498
X051773Y-052806
X051773Y-054774
X052815Y-046646
X052815Y-048614
X057933Y-046646
X057933Y-048614
T12
X058674Y-028635
X058674Y-030635
T13
X041731Y-037765
X04179Y-016929
X04179Y-03309
X056637Y-033093
X056703Y-038566
X056705Y-053543
T0
M30
