G04 #@! TF.FileFunction,Legend,Bot*
%FSLAX45Y45*%
G04 Gerber Fmt 4.5, Leading zero omitted, Abs format (unit mm)*
G04 Created by KiCad (PCBNEW 4.0.7-e2-6376~58~ubuntu16.04.1) date Tue Oct 17 13:16:54 2017*
%MOMM*%
%LPD*%
G01*
G04 APERTURE LIST*
%ADD10C,0.020000*%
%ADD11C,0.300000*%
G04 APERTURE END LIST*
D10*
D11*
X14655430Y-12898590D02*
X14634001Y-12905733D01*
X14626858Y-12912875D01*
X14619715Y-12927161D01*
X14619715Y-12948590D01*
X14626858Y-12962875D01*
X14634001Y-12970018D01*
X14648287Y-12977161D01*
X14705430Y-12977161D01*
X14705430Y-12827161D01*
X14655430Y-12827161D01*
X14641144Y-12834304D01*
X14634001Y-12841447D01*
X14626858Y-12855733D01*
X14626858Y-12870018D01*
X14634001Y-12884304D01*
X14641144Y-12891447D01*
X14655430Y-12898590D01*
X14705430Y-12898590D01*
X14491144Y-12977161D02*
X14491144Y-12898590D01*
X14498287Y-12884304D01*
X14512573Y-12877161D01*
X14541144Y-12877161D01*
X14555430Y-12884304D01*
X14491144Y-12970018D02*
X14505430Y-12977161D01*
X14541144Y-12977161D01*
X14555430Y-12970018D01*
X14562573Y-12955733D01*
X14562573Y-12941447D01*
X14555430Y-12927161D01*
X14541144Y-12920018D01*
X14505430Y-12920018D01*
X14491144Y-12912875D01*
X14426858Y-12970018D02*
X14412573Y-12977161D01*
X14384001Y-12977161D01*
X14369715Y-12970018D01*
X14362573Y-12955733D01*
X14362573Y-12948590D01*
X14369715Y-12934304D01*
X14384001Y-12927161D01*
X14405430Y-12927161D01*
X14419715Y-12920018D01*
X14426858Y-12905733D01*
X14426858Y-12898590D01*
X14419715Y-12884304D01*
X14405430Y-12877161D01*
X14384001Y-12877161D01*
X14369715Y-12884304D01*
X14241144Y-12970018D02*
X14255430Y-12977161D01*
X14284001Y-12977161D01*
X14298287Y-12970018D01*
X14305430Y-12955733D01*
X14305430Y-12898590D01*
X14298287Y-12884304D01*
X14284001Y-12877161D01*
X14255430Y-12877161D01*
X14241144Y-12884304D01*
X14234001Y-12898590D01*
X14234001Y-12912875D01*
X14305430Y-12927161D01*
X14105430Y-12977161D02*
X14105430Y-12827161D01*
X14105430Y-12970018D02*
X14119715Y-12977161D01*
X14148287Y-12977161D01*
X14162573Y-12970018D01*
X14169715Y-12962875D01*
X14176858Y-12948590D01*
X14176858Y-12905733D01*
X14169715Y-12891447D01*
X14162573Y-12884304D01*
X14148287Y-12877161D01*
X14119715Y-12877161D01*
X14105430Y-12884304D01*
X13898287Y-12977161D02*
X13912573Y-12970018D01*
X13919715Y-12962875D01*
X13926858Y-12948590D01*
X13926858Y-12905733D01*
X13919715Y-12891447D01*
X13912573Y-12884304D01*
X13898287Y-12877161D01*
X13876858Y-12877161D01*
X13862573Y-12884304D01*
X13855430Y-12891447D01*
X13848287Y-12905733D01*
X13848287Y-12948590D01*
X13855430Y-12962875D01*
X13862573Y-12970018D01*
X13876858Y-12977161D01*
X13898287Y-12977161D01*
X13784001Y-12877161D02*
X13784001Y-12977161D01*
X13784001Y-12891447D02*
X13776858Y-12884304D01*
X13762572Y-12877161D01*
X13741144Y-12877161D01*
X13726858Y-12884304D01*
X13719715Y-12898590D01*
X13719715Y-12977161D01*
X13648287Y-12962875D02*
X13641144Y-12970018D01*
X13648287Y-12977161D01*
X13655430Y-12970018D01*
X13648287Y-12962875D01*
X13648287Y-12977161D01*
X13648287Y-12884304D02*
X13641144Y-12891447D01*
X13648287Y-12898590D01*
X13655430Y-12891447D01*
X13648287Y-12884304D01*
X13648287Y-12898590D01*
X14705430Y-13153590D02*
X14655430Y-13153590D01*
X14634001Y-13232161D02*
X14705430Y-13232161D01*
X14705430Y-13082161D01*
X14634001Y-13082161D01*
X14576858Y-13225018D02*
X14562573Y-13232161D01*
X14534001Y-13232161D01*
X14519715Y-13225018D01*
X14512573Y-13210733D01*
X14512573Y-13203590D01*
X14519715Y-13189304D01*
X14534001Y-13182161D01*
X14555430Y-13182161D01*
X14569715Y-13175018D01*
X14576858Y-13160733D01*
X14576858Y-13153590D01*
X14569715Y-13139304D01*
X14555430Y-13132161D01*
X14534001Y-13132161D01*
X14519715Y-13139304D01*
X14384001Y-13225018D02*
X14398287Y-13232161D01*
X14426858Y-13232161D01*
X14441144Y-13225018D01*
X14448287Y-13217875D01*
X14455430Y-13203590D01*
X14455430Y-13160733D01*
X14448287Y-13146447D01*
X14441144Y-13139304D01*
X14426858Y-13132161D01*
X14398287Y-13132161D01*
X14384001Y-13139304D01*
X14298287Y-13232161D02*
X14312573Y-13225018D01*
X14319715Y-13217875D01*
X14326858Y-13203590D01*
X14326858Y-13160733D01*
X14319715Y-13146447D01*
X14312573Y-13139304D01*
X14298287Y-13132161D01*
X14276858Y-13132161D01*
X14262573Y-13139304D01*
X14255430Y-13146447D01*
X14248287Y-13160733D01*
X14248287Y-13203590D01*
X14255430Y-13217875D01*
X14262573Y-13225018D01*
X14276858Y-13232161D01*
X14298287Y-13232161D01*
X14184001Y-13232161D02*
X14184001Y-13132161D01*
X14184001Y-13160733D02*
X14176858Y-13146447D01*
X14169715Y-13139304D01*
X14155430Y-13132161D01*
X14141144Y-13132161D01*
X14091144Y-13132161D02*
X14091144Y-13232161D01*
X14091144Y-13146447D02*
X14084001Y-13139304D01*
X14069715Y-13132161D01*
X14048287Y-13132161D01*
X14034001Y-13139304D01*
X14026858Y-13153590D01*
X14026858Y-13232161D01*
X13891144Y-13232161D02*
X13891144Y-13153590D01*
X13898287Y-13139304D01*
X13912573Y-13132161D01*
X13941144Y-13132161D01*
X13955430Y-13139304D01*
X13891144Y-13225018D02*
X13905430Y-13232161D01*
X13941144Y-13232161D01*
X13955430Y-13225018D01*
X13962573Y-13210733D01*
X13962573Y-13196447D01*
X13955430Y-13182161D01*
X13941144Y-13175018D01*
X13905430Y-13175018D01*
X13891144Y-13167875D01*
X13819715Y-13232161D02*
X13819715Y-13082161D01*
X13819715Y-13139304D02*
X13805430Y-13132161D01*
X13776858Y-13132161D01*
X13762573Y-13139304D01*
X13755430Y-13146447D01*
X13748287Y-13160733D01*
X13748287Y-13203590D01*
X13755430Y-13217875D01*
X13762573Y-13225018D01*
X13776858Y-13232161D01*
X13805430Y-13232161D01*
X13819715Y-13225018D01*
X13662572Y-13232161D02*
X13676858Y-13225018D01*
X13684001Y-13217875D01*
X13691144Y-13203590D01*
X13691144Y-13160733D01*
X13684001Y-13146447D01*
X13676858Y-13139304D01*
X13662572Y-13132161D01*
X13641144Y-13132161D01*
X13626858Y-13139304D01*
X13619715Y-13146447D01*
X13612572Y-13160733D01*
X13612572Y-13203590D01*
X13619715Y-13217875D01*
X13626858Y-13225018D01*
X13641144Y-13232161D01*
X13662572Y-13232161D01*
X13569715Y-13132161D02*
X13512572Y-13132161D01*
X13548287Y-13082161D02*
X13548287Y-13210733D01*
X13541144Y-13225018D01*
X13526858Y-13232161D01*
X13512572Y-13232161D01*
X13462572Y-13217875D02*
X13455430Y-13225018D01*
X13462572Y-13232161D01*
X13469715Y-13225018D01*
X13462572Y-13217875D01*
X13462572Y-13232161D01*
X13326858Y-13225018D02*
X13341144Y-13232161D01*
X13369715Y-13232161D01*
X13384001Y-13225018D01*
X13391144Y-13217875D01*
X13398287Y-13203590D01*
X13398287Y-13160733D01*
X13391144Y-13146447D01*
X13384001Y-13139304D01*
X13369715Y-13132161D01*
X13341144Y-13132161D01*
X13326858Y-13139304D01*
X13241144Y-13232161D02*
X13255430Y-13225018D01*
X13262572Y-13217875D01*
X13269715Y-13203590D01*
X13269715Y-13160733D01*
X13262572Y-13146447D01*
X13255430Y-13139304D01*
X13241144Y-13132161D01*
X13219715Y-13132161D01*
X13205430Y-13139304D01*
X13198287Y-13146447D01*
X13191144Y-13160733D01*
X13191144Y-13203590D01*
X13198287Y-13217875D01*
X13205430Y-13225018D01*
X13219715Y-13232161D01*
X13241144Y-13232161D01*
X13126858Y-13232161D02*
X13126858Y-13132161D01*
X13126858Y-13146447D02*
X13119715Y-13139304D01*
X13105430Y-13132161D01*
X13084001Y-13132161D01*
X13069715Y-13139304D01*
X13062572Y-13153590D01*
X13062572Y-13232161D01*
X13062572Y-13153590D02*
X13055430Y-13139304D01*
X13041144Y-13132161D01*
X13019715Y-13132161D01*
X13005430Y-13139304D01*
X12998287Y-13153590D01*
X12998287Y-13232161D01*
M02*
