G04 #@! TF.FileFunction,Soldermask,Bot*
%FSLAX45Y45*%
G04 Gerber Fmt 4.5, Leading zero omitted, Abs format (unit mm)*
G04 Created by KiCad (PCBNEW 4.0.6-e0-6349~53~ubuntu16.04.1) date Wed May 24 17:29:30 2017*
%MOMM*%
%LPD*%
G01*
G04 APERTURE LIST*
%ADD10C,0.020000*%
%ADD11R,1.900000X1.900000*%
%ADD12C,1.900000*%
%ADD13C,3.400000*%
%ADD14R,2.100000X2.100000*%
%ADD15O,2.100000X2.100000*%
%ADD16O,3.833200X2.514400*%
%ADD17O,2.514400X3.833200*%
%ADD18R,2.000000X2.000000*%
%ADD19O,2.000000X2.000000*%
%ADD20R,3.400000X3.400000*%
%ADD21R,2.600000X2.600000*%
%ADD22O,2.600000X2.600000*%
%ADD23C,2.400000*%
%ADD24C,2.000000*%
%ADD25C,1.800000*%
%ADD26O,1.800000X1.800000*%
%ADD27C,2.000200*%
%ADD28O,2.124000X2.710000*%
%ADD29R,1.924000X1.924000*%
%ADD30C,1.924000*%
%ADD31R,1.670000X1.370000*%
%ADD32R,2.200000X2.200000*%
%ADD33O,2.200000X2.200000*%
%ADD34R,1.370000X1.670000*%
%ADD35C,1.200000*%
%ADD36C,1.600000*%
%ADD37C,0.900000*%
G04 APERTURE END LIST*
D10*
D11*
X13425600Y-12099544D03*
D12*
X13171600Y-12099544D03*
D11*
X12500000Y-11468100D03*
D12*
X12500000Y-11214100D03*
D11*
X11574400Y-12099544D03*
D12*
X11828400Y-12099544D03*
D11*
X12500000Y-12735560D03*
D12*
X12500000Y-12989560D03*
D13*
X14403100Y-13600000D03*
D14*
X11316716Y-13267980D03*
D15*
X11062716Y-13267980D03*
X10808716Y-13267980D03*
X10554716Y-13267980D03*
D16*
X11850356Y-13412660D03*
X11850356Y-13912660D03*
X13150356Y-13912660D03*
X13150356Y-13412660D03*
X10285716Y-11850814D03*
X10285716Y-12350814D03*
X11585716Y-12350814D03*
X11585716Y-11850814D03*
D17*
X12750000Y-11449544D03*
X12250000Y-11449544D03*
X12250000Y-12749544D03*
X12750000Y-12749544D03*
D18*
X10552176Y-11320272D03*
D19*
X10806176Y-11320272D03*
X11060176Y-11320272D03*
X11314176Y-11320272D03*
D18*
X10552176Y-10774680D03*
D19*
X10806176Y-10774680D03*
X11060176Y-10774680D03*
X11314176Y-10774680D03*
D16*
X13414996Y-11848020D03*
X13414996Y-12348020D03*
X14714996Y-12348020D03*
X14714996Y-11848020D03*
D18*
X13711428Y-11320272D03*
D19*
X13965428Y-11320272D03*
X14219428Y-11320272D03*
X14473428Y-11320272D03*
D18*
X13711428Y-10774680D03*
D19*
X13965428Y-10774680D03*
X14219428Y-10774680D03*
X14473428Y-10774680D03*
D16*
X13150356Y-10794556D03*
X13150356Y-10294556D03*
X11850356Y-10294556D03*
X11850356Y-10794556D03*
D18*
X11318748Y-10229088D03*
D19*
X11064748Y-10229088D03*
X10810748Y-10229088D03*
X10556748Y-10229088D03*
D13*
X10599660Y-9592310D03*
X14402540Y-9795764D03*
D14*
X12881000Y-9723120D03*
D15*
X12627000Y-9723120D03*
X12373000Y-9723120D03*
X12119000Y-9723120D03*
D14*
X13500000Y-9250000D03*
D15*
X13246000Y-9250000D03*
X12992000Y-9250000D03*
X12738000Y-9250000D03*
X12484000Y-9250000D03*
X12230000Y-9250000D03*
X11976000Y-9250000D03*
X11722000Y-9250000D03*
X11468000Y-9250000D03*
D14*
X13500000Y-8700000D03*
D15*
X13246000Y-8700000D03*
X12992000Y-8700000D03*
X12738000Y-8700000D03*
X12484000Y-8700000D03*
X12230000Y-8700000D03*
X11976000Y-8700000D03*
X11722000Y-8700000D03*
X11468000Y-8700000D03*
D13*
X14385798Y-8405622D03*
D14*
X12881000Y-8139176D03*
D15*
X12627000Y-8139176D03*
X12373000Y-8139176D03*
X12119000Y-8139176D03*
D13*
X10614660Y-8404860D03*
D20*
X14903196Y-7273290D03*
D13*
X14903196Y-7781290D03*
D14*
X14470380Y-7349490D03*
D15*
X14470380Y-7603490D03*
D14*
X14089380Y-7739380D03*
D15*
X13835380Y-7739380D03*
X13581380Y-7739380D03*
X13327380Y-7739380D03*
X13073380Y-7739380D03*
X12819380Y-7739380D03*
X12565380Y-7739380D03*
X12311380Y-7739380D03*
X12057380Y-7739380D03*
X11803380Y-7739380D03*
X11549380Y-7739380D03*
X11295380Y-7739380D03*
X11041380Y-7739380D03*
X10787380Y-7739380D03*
X10533380Y-7739380D03*
X10279380Y-7739380D03*
X10025380Y-7739380D03*
D14*
X11869420Y-6847840D03*
D15*
X11869420Y-7101840D03*
X11615420Y-6847840D03*
X11615420Y-7101840D03*
X11361420Y-6847840D03*
X11361420Y-7101840D03*
X11107420Y-6847840D03*
X11107420Y-7101840D03*
X10853420Y-6847840D03*
X10853420Y-7101840D03*
X10599420Y-6847840D03*
X10599420Y-7101840D03*
X10345420Y-6847840D03*
X10345420Y-7101840D03*
X10091420Y-6847840D03*
X10091420Y-7101840D03*
D18*
X12758928Y-7350252D03*
D19*
X13012928Y-7350252D03*
X13266928Y-7350252D03*
X13520928Y-7350252D03*
D21*
X12629388Y-7022592D03*
D22*
X13645388Y-7022592D03*
D23*
X13397484Y-6636004D03*
X12889484Y-6635004D03*
D14*
X14089380Y-6225032D03*
D15*
X13835380Y-6225032D03*
X13581380Y-6225032D03*
X13327380Y-6225032D03*
X13073380Y-6225032D03*
X12819380Y-6225032D03*
X12565380Y-6225032D03*
X12311380Y-6225032D03*
X12057380Y-6225032D03*
X11803380Y-6225032D03*
X11549380Y-6225032D03*
X11295380Y-6225032D03*
X11041380Y-6225032D03*
X10787380Y-6225032D03*
X10533380Y-6225032D03*
X10279380Y-6225032D03*
X10025380Y-6225032D03*
D24*
X13771880Y-5895340D03*
X13771880Y-5395340D03*
X13444220Y-5394960D03*
X13444220Y-5894960D03*
D25*
X12400660Y-5758180D03*
D26*
X11638660Y-5758180D03*
D25*
X12400660Y-5532120D03*
D26*
X11638660Y-5532120D03*
D24*
X13116560Y-5895340D03*
X13116560Y-5395340D03*
D13*
X10614660Y-4300000D03*
D27*
X10444480Y-5772404D03*
X10444480Y-5012436D03*
D18*
X11244580Y-5059680D03*
D19*
X13276580Y-4297680D03*
X11498580Y-5059680D03*
X13022580Y-4297680D03*
X11752580Y-5059680D03*
X12768580Y-4297680D03*
X12006580Y-5059680D03*
X12514580Y-4297680D03*
X12260580Y-5059680D03*
X12260580Y-4297680D03*
X12514580Y-5059680D03*
X12006580Y-4297680D03*
X12768580Y-5059680D03*
X11752580Y-4297680D03*
X13022580Y-5059680D03*
X11498580Y-4297680D03*
X13276580Y-5059680D03*
X11244580Y-4297680D03*
D14*
X10142220Y-4310380D03*
D15*
X10142220Y-4564380D03*
D28*
X11297920Y-3799840D03*
X11547920Y-3799840D03*
X11797920Y-3799840D03*
X10797920Y-3799840D03*
X11047920Y-3799840D03*
X12806680Y-3799840D03*
X13056680Y-3799840D03*
X13306680Y-3799840D03*
X12306680Y-3799840D03*
X12556680Y-3799840D03*
D14*
X14765528Y-4732020D03*
D15*
X14511528Y-4732020D03*
X14257528Y-4732020D03*
X14003528Y-4732020D03*
D18*
X13997940Y-3799840D03*
D19*
X14251940Y-3799840D03*
X14505940Y-3799840D03*
X14759940Y-3799840D03*
D29*
X14003020Y-4130040D03*
D30*
X14257020Y-4130040D03*
X14511020Y-4130040D03*
D29*
X14765020Y-4130040D03*
D30*
X14765020Y-4384040D03*
X14511020Y-4384040D03*
X14262100Y-4384040D03*
X14003020Y-4384040D03*
D31*
X12500000Y-12035544D03*
X12500000Y-12163544D03*
D32*
X14897608Y-6711188D03*
D33*
X14643608Y-6711188D03*
X14389608Y-6711188D03*
D34*
X13774420Y-4457700D03*
X13647420Y-4457700D03*
X13520420Y-4457700D03*
D35*
X12057888Y-3811524D03*
D36*
X14428216Y-5459476D03*
D37*
X14778154Y-8969756D03*
X14678154Y-8969756D03*
X14578154Y-8969756D03*
X14478154Y-8969756D03*
X14378154Y-8969756D03*
X14278154Y-8969756D03*
X14178154Y-8969756D03*
X14078154Y-8969756D03*
X13978154Y-8969756D03*
X13878154Y-8969756D03*
X13778154Y-8969756D03*
X11350000Y-8969756D03*
X11250000Y-8969756D03*
X13648944Y-8970264D03*
X13369798Y-8970264D03*
X12916154Y-8969756D03*
X12662154Y-8969756D03*
X12408154Y-8969756D03*
X12154154Y-8969756D03*
X11900154Y-8969756D03*
X13106908Y-8967978D03*
X12815316Y-8967216D03*
X12560808Y-8970264D03*
X12307824Y-8969502D03*
X12052808Y-8969248D03*
X11800840Y-8969756D03*
X11545062Y-8969502D03*
X11646154Y-8969756D03*
X11150000Y-8969756D03*
X11050000Y-8969756D03*
X10950000Y-8969756D03*
X10850000Y-8969756D03*
X10750000Y-8969756D03*
X10650000Y-8969756D03*
X10550000Y-8969756D03*
X10450000Y-8969756D03*
X10350000Y-8969756D03*
X10250000Y-8969756D03*
X10150094Y-8969756D03*
D23*
X12725000Y-10871080D03*
X12275000Y-10871080D03*
X12725000Y-10221080D03*
X12275000Y-10221080D03*
X13839600Y-11749540D03*
X14289600Y-11749540D03*
X13839600Y-12399540D03*
X14289600Y-12399540D03*
X12725000Y-13985120D03*
X12275000Y-13985120D03*
X12725000Y-13335120D03*
X12275000Y-13335120D03*
X11160400Y-12424544D03*
X10710400Y-12424544D03*
X11160400Y-11774544D03*
X10710400Y-11774544D03*
X12175000Y-12324544D03*
X12175000Y-11874544D03*
X12825000Y-12324544D03*
X12825000Y-11874544D03*
D30*
X14635480Y-5773140D03*
X14132560Y-5773140D03*
X14132560Y-5168620D03*
X14635480Y-5168620D03*
M02*
