G04 #@! TF.FileFunction,Copper,L1,Top,Signal*
%FSLAX45Y45*%
G04 Gerber Fmt 4.5, Leading zero omitted, Abs format (unit mm)*
G04 Created by KiCad (PCBNEW 4.0.6-e0-6349~53~ubuntu16.04.1) date Tue Apr 25 11:52:05 2017*
%MOMM*%
%LPD*%
G01*
G04 APERTURE LIST*
%ADD10C,0.020000*%
%ADD11R,1.500000X1.500000*%
%ADD12C,1.500000*%
%ADD13C,3.000000*%
%ADD14R,1.700000X1.700000*%
%ADD15O,1.700000X1.700000*%
%ADD16C,2.000000*%
%ADD17O,3.433200X2.114400*%
%ADD18R,0.800000X0.600000*%
%ADD19R,0.600000X0.800000*%
%ADD20O,2.114400X3.433200*%
%ADD21R,1.600000X1.600000*%
%ADD22O,1.600000X1.600000*%
%ADD23R,1.200000X0.900000*%
%ADD24R,3.000000X3.000000*%
%ADD25R,2.200000X2.200000*%
%ADD26O,2.200000X2.200000*%
%ADD27R,2.000000X1.700000*%
%ADD28R,0.750000X1.200000*%
%ADD29C,1.524000*%
%ADD30C,1.600000*%
%ADD31C,1.400000*%
%ADD32O,1.400000X1.400000*%
%ADD33C,1.600200*%
%ADD34O,1.724000X2.310000*%
%ADD35R,1.524000X1.524000*%
%ADD36R,1.800000X1.800000*%
%ADD37O,1.800000X1.800000*%
%ADD38C,0.800000*%
%ADD39C,1.200000*%
%ADD40C,0.500000*%
%ADD41C,0.600000*%
%ADD42C,0.812800*%
%ADD43C,1.270000*%
%ADD44C,0.609600*%
%ADD45C,0.406400*%
%ADD46C,1.016000*%
G04 APERTURE END LIST*
D10*
D11*
X13425600Y-12099544D03*
D12*
X13171600Y-12099544D03*
D11*
X12500000Y-11468100D03*
D12*
X12500000Y-11214100D03*
D11*
X11574400Y-12099544D03*
D12*
X11828400Y-12099544D03*
D11*
X12500000Y-12735560D03*
D12*
X12500000Y-12989560D03*
D13*
X14400306Y-13500608D03*
D14*
X11316716Y-13267980D03*
D15*
X11062716Y-13267980D03*
X10808716Y-13267980D03*
X10554716Y-13267980D03*
D16*
X12725000Y-13985120D03*
X12275000Y-13985120D03*
X12725000Y-13335120D03*
X12275000Y-13335120D03*
D17*
X11850356Y-13412660D03*
X11850356Y-13912660D03*
X13150356Y-13912660D03*
X13150356Y-13412660D03*
D18*
X12579848Y-12865100D03*
X12419848Y-12865100D03*
D19*
X13298600Y-12019544D03*
X13298600Y-12179544D03*
X11701780Y-12019544D03*
X11701780Y-12179544D03*
D16*
X11160400Y-12424544D03*
X10710400Y-12424544D03*
X11160400Y-11774544D03*
X10710400Y-11774544D03*
D17*
X10285716Y-11850814D03*
X10285716Y-12350814D03*
X11585716Y-12350814D03*
X11585716Y-11850814D03*
D16*
X12175000Y-12324544D03*
X12175000Y-11874544D03*
X12825000Y-12324544D03*
X12825000Y-11874544D03*
D20*
X12750000Y-11449544D03*
X12250000Y-11449544D03*
X12250000Y-12749544D03*
X12750000Y-12749544D03*
D18*
X12580864Y-11342624D03*
X12420864Y-11342624D03*
D21*
X10552176Y-11320272D03*
D22*
X10806176Y-11320272D03*
X11060176Y-11320272D03*
X11314176Y-11320272D03*
D23*
X11077684Y-11208512D03*
X11297684Y-11208512D03*
X10569176Y-11208512D03*
X10789176Y-11208512D03*
X10569176Y-10886948D03*
X10789176Y-10886948D03*
X11077684Y-10886948D03*
X11297684Y-10886948D03*
D21*
X10552176Y-10774680D03*
D22*
X10806176Y-10774680D03*
X11060176Y-10774680D03*
X11314176Y-10774680D03*
D16*
X13839600Y-11749540D03*
X14289600Y-11749540D03*
X13839600Y-12399540D03*
X14289600Y-12399540D03*
D17*
X14714996Y-12348020D03*
X14714996Y-11848020D03*
X13414996Y-11848020D03*
X13414996Y-12348020D03*
D23*
X14455920Y-11209020D03*
X14235920Y-11209020D03*
X13936236Y-11208512D03*
X13716236Y-11208512D03*
D21*
X13711428Y-11320272D03*
D22*
X13965428Y-11320272D03*
X14219428Y-11320272D03*
X14473428Y-11320272D03*
D23*
X14235920Y-10886948D03*
X14455920Y-10886948D03*
X13716236Y-10886948D03*
X13936236Y-10886948D03*
D21*
X13711428Y-10774680D03*
D22*
X13965428Y-10774680D03*
X14219428Y-10774680D03*
X14473428Y-10774680D03*
D16*
X12725000Y-10871080D03*
X12275000Y-10871080D03*
X12725000Y-10221080D03*
X12275000Y-10221080D03*
D17*
X11850356Y-10294556D03*
X11850356Y-10794556D03*
X13150356Y-10794556D03*
X13150356Y-10294556D03*
D23*
X10573748Y-10340848D03*
X10793748Y-10340848D03*
X11083272Y-10341356D03*
X11303272Y-10341356D03*
D21*
X11318748Y-10229088D03*
D22*
X11064748Y-10229088D03*
X10810748Y-10229088D03*
X10556748Y-10229088D03*
D13*
X10599660Y-9592310D03*
X14402540Y-9795764D03*
D14*
X12881000Y-9723120D03*
D15*
X12627000Y-9723120D03*
X12373000Y-9723120D03*
X12119000Y-9723120D03*
D14*
X13500000Y-9250000D03*
D15*
X13246000Y-9250000D03*
X12992000Y-9250000D03*
X12738000Y-9250000D03*
X12484000Y-9250000D03*
X12230000Y-9250000D03*
X11976000Y-9250000D03*
X11722000Y-9250000D03*
X11468000Y-9250000D03*
D14*
X13500000Y-8700000D03*
D15*
X13246000Y-8700000D03*
X12992000Y-8700000D03*
X12738000Y-8700000D03*
X12484000Y-8700000D03*
X12230000Y-8700000D03*
X11976000Y-8700000D03*
X11722000Y-8700000D03*
X11468000Y-8700000D03*
D13*
X14385798Y-8405622D03*
D14*
X12881000Y-8139176D03*
D15*
X12627000Y-8139176D03*
X12373000Y-8139176D03*
X12119000Y-8139176D03*
D13*
X10610850Y-8404860D03*
D24*
X14903196Y-7273290D03*
D13*
X14903196Y-7781290D03*
D14*
X14470380Y-7349490D03*
D15*
X14470380Y-7603490D03*
D14*
X14089380Y-7739380D03*
D15*
X13835380Y-7739380D03*
X13581380Y-7739380D03*
X13327380Y-7739380D03*
X13073380Y-7739380D03*
X12819380Y-7739380D03*
X12565380Y-7739380D03*
X12311380Y-7739380D03*
X12057380Y-7739380D03*
X11803380Y-7739380D03*
X11549380Y-7739380D03*
X11295380Y-7739380D03*
X11041380Y-7739380D03*
X10787380Y-7739380D03*
X10533380Y-7739380D03*
X10279380Y-7739380D03*
X10025380Y-7739380D03*
D14*
X11869420Y-6847840D03*
D15*
X11869420Y-7101840D03*
X11615420Y-6847840D03*
X11615420Y-7101840D03*
X11361420Y-6847840D03*
X11361420Y-7101840D03*
X11107420Y-6847840D03*
X11107420Y-7101840D03*
X10853420Y-6847840D03*
X10853420Y-7101840D03*
X10599420Y-6847840D03*
X10599420Y-7101840D03*
X10345420Y-6847840D03*
X10345420Y-7101840D03*
X10091420Y-6847840D03*
X10091420Y-7101840D03*
D23*
X12792946Y-7257796D03*
X13012946Y-7257796D03*
X13289516Y-7259828D03*
X13509516Y-7259828D03*
D21*
X12758928Y-7350252D03*
D22*
X13012928Y-7350252D03*
X13266928Y-7350252D03*
X13520928Y-7350252D03*
D19*
X13047308Y-7022592D03*
X13217308Y-7022592D03*
D25*
X12629388Y-7022592D03*
D26*
X13645388Y-7022592D03*
D27*
X13331800Y-6778244D03*
X12931800Y-6778244D03*
D16*
X13397484Y-6636004D03*
X12889484Y-6635004D03*
D14*
X14089380Y-6225032D03*
D15*
X13835380Y-6225032D03*
X13581380Y-6225032D03*
X13327380Y-6225032D03*
X13073380Y-6225032D03*
X12819380Y-6225032D03*
X12565380Y-6225032D03*
X12311380Y-6225032D03*
X12057380Y-6225032D03*
X11803380Y-6225032D03*
X11549380Y-6225032D03*
X11295380Y-6225032D03*
X11041380Y-6225032D03*
X10787380Y-6225032D03*
X10533380Y-6225032D03*
X10279380Y-6225032D03*
X10025380Y-6225032D03*
D28*
X13444220Y-5551420D03*
X13444220Y-5741420D03*
D29*
X14635480Y-5773140D03*
X14132560Y-5773140D03*
X14132560Y-5168620D03*
X14635480Y-5168620D03*
D28*
X13771880Y-5741420D03*
X13771880Y-5551420D03*
D30*
X13771880Y-5895340D03*
X13771880Y-5395340D03*
X13444220Y-5394960D03*
X13444220Y-5894960D03*
D31*
X12900660Y-5758180D03*
D32*
X12138660Y-5758180D03*
D23*
X12629660Y-5758180D03*
X12409660Y-5758180D03*
D31*
X12900660Y-5532120D03*
D32*
X12138660Y-5532120D03*
D23*
X12629660Y-5532120D03*
X12409660Y-5532120D03*
D30*
X11578336Y-5895340D03*
X11578336Y-5395340D03*
D28*
X11578336Y-5726180D03*
X11578336Y-5536180D03*
D13*
X10614660Y-4501896D03*
D30*
X11257026Y-5395214D03*
X11257026Y-5895214D03*
D28*
X11257026Y-5536180D03*
X11257026Y-5726180D03*
D33*
X10444480Y-5772404D03*
X10444480Y-5012436D03*
D21*
X11244580Y-5059680D03*
D22*
X13276580Y-4297680D03*
X11498580Y-5059680D03*
X13022580Y-4297680D03*
X11752580Y-5059680D03*
X12768580Y-4297680D03*
X12006580Y-5059680D03*
X12514580Y-4297680D03*
X12260580Y-5059680D03*
X12260580Y-4297680D03*
X12514580Y-5059680D03*
X12006580Y-4297680D03*
X12768580Y-5059680D03*
X11752580Y-4297680D03*
X13022580Y-5059680D03*
X11498580Y-4297680D03*
X13276580Y-5059680D03*
X11244580Y-4297680D03*
D14*
X10142220Y-4310380D03*
D15*
X10142220Y-4564380D03*
D34*
X11297920Y-3799840D03*
X11547920Y-3799840D03*
X11797920Y-3799840D03*
X10797920Y-3799840D03*
X11047920Y-3799840D03*
X12806680Y-3799840D03*
X13056680Y-3799840D03*
X13306680Y-3799840D03*
X12306680Y-3799840D03*
X12556680Y-3799840D03*
D14*
X14765528Y-4732020D03*
D15*
X14511528Y-4732020D03*
X14257528Y-4732020D03*
X14003528Y-4732020D03*
D21*
X13997940Y-3799840D03*
D22*
X14251940Y-3799840D03*
X14505940Y-3799840D03*
X14759940Y-3799840D03*
D35*
X14003020Y-4130040D03*
D29*
X14257020Y-4130040D03*
X14511020Y-4130040D03*
D35*
X14765020Y-4130040D03*
D29*
X14765020Y-4384040D03*
X14511020Y-4384040D03*
X14262100Y-4384040D03*
X14003020Y-4384040D03*
D36*
X14897608Y-6711188D03*
D37*
X14643608Y-6711188D03*
X14389608Y-6711188D03*
D38*
X12057888Y-3811524D03*
D39*
X14428216Y-5459476D03*
D40*
X14778154Y-8969756D03*
X14678154Y-8969756D03*
X14578154Y-8969756D03*
X14478154Y-8969756D03*
X14378154Y-8969756D03*
X14278154Y-8969756D03*
X14178154Y-8969756D03*
X14078154Y-8969756D03*
X13978154Y-8969756D03*
X13878154Y-8969756D03*
X13778154Y-8969756D03*
X11350000Y-8969756D03*
X11250000Y-8969756D03*
X13648944Y-8970264D03*
X13369798Y-8970264D03*
X12916154Y-8969756D03*
X12662154Y-8969756D03*
X12408154Y-8969756D03*
X12154154Y-8969756D03*
X11900154Y-8969756D03*
X13106908Y-8967978D03*
X12815316Y-8967216D03*
X12560808Y-8970264D03*
X12307824Y-8969502D03*
X12052808Y-8969248D03*
X11800840Y-8969756D03*
X11545062Y-8969502D03*
X11646154Y-8969756D03*
X11150000Y-8969756D03*
X11050000Y-8969756D03*
X10950000Y-8969756D03*
X10850000Y-8969756D03*
X10750000Y-8969756D03*
X10650000Y-8969756D03*
X10550000Y-8969756D03*
X10450000Y-8969756D03*
X10350000Y-8969756D03*
X10250000Y-8969756D03*
X10150094Y-8969756D03*
D41*
X11801856Y-11399520D03*
X12438888Y-7353808D03*
X11550396Y-10511028D03*
X12390120Y-7202424D03*
X14084620Y-6964106D03*
X14843760Y-4994910D03*
X13838682Y-4981702D03*
D42*
X11578336Y-5895340D02*
X11578336Y-5726180D01*
X11257026Y-5895214D02*
X11257026Y-5726180D01*
D43*
X13500000Y-8700000D02*
X13500000Y-9250000D01*
D44*
X13771880Y-5895340D02*
X13771880Y-5741420D01*
X13444220Y-5894960D02*
X13444220Y-5741420D01*
D42*
X13645388Y-7022592D02*
X13217308Y-7022592D01*
X12409660Y-5532120D02*
X12138660Y-5532120D01*
D45*
X14289600Y-11749540D02*
X14291810Y-11749540D01*
X14289600Y-11749540D02*
X14289600Y-11766482D01*
D43*
X13397484Y-6636004D02*
X14042898Y-6636004D01*
X14263370Y-6856476D02*
X14263370Y-7534910D01*
X14042898Y-6636004D02*
X14263370Y-6856476D01*
X14470380Y-7603490D02*
X14331950Y-7603490D01*
X14331950Y-7603490D02*
X14263370Y-7534910D01*
X14903196Y-7781290D02*
X14648180Y-7781290D01*
X14648180Y-7781290D02*
X14470380Y-7603490D01*
X13397484Y-6636004D02*
X13397484Y-6712560D01*
X13397484Y-6712560D02*
X13331800Y-6778244D01*
D42*
X13397484Y-6712560D02*
X13331800Y-6778244D01*
X13022580Y-3833940D02*
X13056680Y-3799840D01*
X13022580Y-4297680D02*
X13022580Y-3833940D01*
X11295380Y-6225032D02*
X11286236Y-6225032D01*
X12768580Y-3837940D02*
X12806680Y-3799840D01*
X12768580Y-4297680D02*
X12768580Y-3837940D01*
X11549380Y-6225032D02*
X11549380Y-6217666D01*
X11549380Y-6217666D02*
X11949938Y-5817108D01*
X11949938Y-5817108D02*
X11949938Y-5425948D01*
X11949938Y-5425948D02*
X12064492Y-5311394D01*
X12064492Y-5311394D02*
X12433300Y-5311394D01*
X12433300Y-5311394D02*
X12514580Y-5230114D01*
X12514580Y-5230114D02*
X12514580Y-5059680D01*
X12514580Y-4297680D02*
X12514580Y-3841940D01*
X12514580Y-3841940D02*
X12556680Y-3799840D01*
X12260580Y-4297680D02*
X12260580Y-3845940D01*
X12260580Y-3845940D02*
X12306680Y-3799840D01*
X12260580Y-3845940D02*
X12306680Y-3799840D01*
X12006580Y-4297680D02*
X11992356Y-4297680D01*
X11992356Y-4297680D02*
X11547920Y-3853244D01*
X11547920Y-3853244D02*
X11547920Y-3799840D01*
X11297920Y-3867404D02*
X11297920Y-3799840D01*
X11728196Y-4297680D02*
X11297920Y-3867404D01*
X11752580Y-4297680D02*
X11728196Y-4297680D01*
X11479276Y-4297680D02*
X11047920Y-3866324D01*
X11047920Y-3866324D02*
X11047920Y-3799840D01*
X11498580Y-4297680D02*
X11479276Y-4297680D01*
X11244580Y-4297680D02*
X11084560Y-4297680D01*
X11084560Y-4297680D02*
X10797920Y-4011040D01*
X10797920Y-4011040D02*
X10797920Y-3799840D01*
X10533380Y-6225032D02*
X10533380Y-5912358D01*
X11052810Y-5223510D02*
X11273536Y-5223510D01*
X10959084Y-5317236D02*
X11052810Y-5223510D01*
X10959084Y-5486654D02*
X10959084Y-5317236D01*
X10533380Y-5912358D02*
X10959084Y-5486654D01*
X11498580Y-5173980D02*
X11498580Y-5059680D01*
X11449050Y-5223510D02*
X11498580Y-5173980D01*
X11273536Y-5223510D02*
X11449050Y-5223510D01*
D44*
X13298600Y-12179544D02*
X13345600Y-12179544D01*
X13345600Y-12179544D02*
X13425600Y-12099544D01*
X12419848Y-12865100D02*
X12419848Y-12815712D01*
X12419848Y-12815712D02*
X12500000Y-12735560D01*
X11701780Y-12179544D02*
X11654400Y-12179544D01*
X11654400Y-12179544D02*
X11574400Y-12099544D01*
X12420864Y-11342624D02*
X12420864Y-11388964D01*
X12420864Y-11388964D02*
X12500000Y-11468100D01*
D45*
X11574400Y-12132184D02*
X11621760Y-12179544D01*
X11621760Y-12179544D02*
X11701400Y-12179544D01*
D44*
X10806176Y-11320272D02*
X10806176Y-11225512D01*
X10806176Y-11225512D02*
X10789176Y-11208512D01*
X12500000Y-11214100D02*
X11987276Y-11214100D01*
X11987276Y-11214100D02*
X11801856Y-11399520D01*
X12580864Y-11342624D02*
X12580864Y-11294964D01*
X12580864Y-11294964D02*
X12500000Y-11214100D01*
X13936236Y-11208512D02*
X13936236Y-11136648D01*
X13936236Y-11136648D02*
X13855700Y-11056112D01*
X11850356Y-10794556D02*
X11934634Y-10794556D01*
X11934634Y-10794556D02*
X12148312Y-10580878D01*
X12148312Y-10580878D02*
X13277342Y-10580878D01*
X13277342Y-10580878D02*
X13472160Y-10775696D01*
X13472160Y-10775696D02*
X13472160Y-10885424D01*
X13472160Y-10885424D02*
X13642848Y-11056112D01*
X13642848Y-11056112D02*
X13855700Y-11056112D01*
X13965428Y-11320272D02*
X13965428Y-11237704D01*
X13965428Y-11237704D02*
X13936236Y-11208512D01*
X14235920Y-11209020D02*
X14235920Y-11303780D01*
X14235920Y-11303780D02*
X14219428Y-11320272D01*
X13965428Y-11237704D02*
X13936236Y-11208512D01*
X14219428Y-11320272D02*
X13965428Y-11320272D01*
X11314176Y-10774680D02*
X11476736Y-10774680D01*
X11857736Y-9935464D02*
X11857736Y-9756394D01*
X12103608Y-10181336D02*
X11857736Y-9935464D01*
X12103608Y-10388092D02*
X12103608Y-10181336D01*
X11935968Y-10555732D02*
X12103608Y-10388092D01*
X11695684Y-10555732D02*
X11935968Y-10555732D01*
X11476736Y-10774680D02*
X11695684Y-10555732D01*
X13472668Y-11064240D02*
X11474976Y-11064240D01*
X11474976Y-11064240D02*
X11297684Y-10886948D01*
X12484000Y-9404450D02*
X12484000Y-9250000D01*
X12420600Y-9467850D02*
X12484000Y-9404450D01*
X12146280Y-9467850D02*
X12420600Y-9467850D01*
X11857736Y-9756394D02*
X12146280Y-9467850D01*
X13711428Y-11320272D02*
X13711428Y-11213320D01*
X13711428Y-11213320D02*
X13716236Y-11208512D01*
X13711428Y-11320272D02*
X13711428Y-11303000D01*
X13711428Y-11303000D02*
X13472668Y-11064240D01*
X11986260Y-6644132D02*
X11989562Y-6644132D01*
X12257278Y-7353808D02*
X12438888Y-7353808D01*
X12089130Y-7185660D02*
X12257278Y-7353808D01*
X12089130Y-6743700D02*
X12089130Y-7185660D01*
X11989562Y-6644132D02*
X12089130Y-6743700D01*
X10025380Y-6225032D02*
X10025380Y-6292596D01*
X10025380Y-6292596D02*
X10376916Y-6644132D01*
X10376916Y-6644132D02*
X11986260Y-6644132D01*
X12484000Y-8700000D02*
X12484000Y-9250000D01*
D45*
X11314176Y-10774680D02*
X11314176Y-10870456D01*
X11314176Y-10870456D02*
X11297684Y-10886948D01*
D44*
X11303272Y-10341356D02*
X11303272Y-10244564D01*
X11303272Y-10244564D02*
X11318748Y-10229088D01*
X11550396Y-10511028D02*
X11318748Y-10279380D01*
X11318748Y-10279380D02*
X11318748Y-10229088D01*
X14455920Y-11302764D02*
X14455920Y-11209020D01*
D45*
X11303272Y-10244564D02*
X11318748Y-10229088D01*
D44*
X12725000Y-13335120D02*
X12725000Y-13985120D01*
X11850356Y-13412660D02*
X11885928Y-13412660D01*
X11885928Y-13412660D02*
X12014516Y-13541248D01*
X12560688Y-13335120D02*
X12725000Y-13335120D01*
X12354560Y-13541248D02*
X12560688Y-13335120D01*
X12014516Y-13541248D02*
X12354560Y-13541248D01*
X11850356Y-13912660D02*
X11850356Y-13412660D01*
X10793748Y-10340848D02*
X10793748Y-10246088D01*
X10793748Y-10246088D02*
X10810748Y-10229088D01*
X11083272Y-10341356D02*
X11083272Y-10247612D01*
X11083272Y-10247612D02*
X11064748Y-10229088D01*
X11064748Y-10229088D02*
X10810748Y-10229088D01*
D45*
X10793748Y-10246088D02*
X10810748Y-10229088D01*
X11064748Y-10229088D02*
X11083272Y-10247612D01*
D44*
X12825000Y-12324544D02*
X12175000Y-12324544D01*
X12825000Y-12324544D02*
X12863366Y-12324544D01*
X12863366Y-12324544D02*
X13014452Y-12173458D01*
X13014452Y-12173458D02*
X13014452Y-11713996D01*
X13014452Y-11713996D02*
X12750000Y-11449544D01*
X12750000Y-11449544D02*
X12750000Y-11538750D01*
X12750000Y-11538750D02*
X12683490Y-11605260D01*
X12320778Y-11605260D02*
X12250000Y-11534482D01*
X12683490Y-11605260D02*
X12320778Y-11605260D01*
X12250000Y-11534482D02*
X12250000Y-11449544D01*
X10789176Y-10886948D02*
X10789176Y-10791680D01*
X10789176Y-10791680D02*
X10806176Y-10774680D01*
X10573748Y-10340848D02*
X10573748Y-10246088D01*
X10573748Y-10246088D02*
X10556748Y-10229088D01*
X10806176Y-10774680D02*
X10806176Y-10694416D01*
X10573748Y-10461988D02*
X10573748Y-10340848D01*
X10806176Y-10694416D02*
X10573748Y-10461988D01*
D45*
X10806176Y-10774680D02*
X10806176Y-10869948D01*
X10556748Y-10323848D02*
X10573748Y-10340848D01*
D44*
X11160400Y-11774544D02*
X11160400Y-12424544D01*
X10285716Y-11850814D02*
X10536110Y-11850814D01*
X10950208Y-11984736D02*
X11160400Y-11774544D01*
X10670032Y-11984736D02*
X10950208Y-11984736D01*
X10536110Y-11850814D02*
X10670032Y-11984736D01*
X10552176Y-10774680D02*
X10552176Y-10869948D01*
X10552176Y-10869948D02*
X10569176Y-10886948D01*
D45*
X10552176Y-10869948D02*
X10569176Y-10886948D01*
D44*
X10552176Y-11320272D02*
X10552176Y-11222736D01*
X10552176Y-11222736D02*
X10292908Y-10963468D01*
X10492404Y-9250000D02*
X11468000Y-9250000D01*
X10292908Y-9449496D02*
X10492404Y-9250000D01*
X10292908Y-10963468D02*
X10292908Y-9449496D01*
X11468000Y-8700000D02*
X11468000Y-8644790D01*
X11468000Y-8644790D02*
X10787380Y-7964170D01*
X10787380Y-7964170D02*
X10787380Y-7739380D01*
D45*
X10552176Y-11320272D02*
X10552176Y-11225512D01*
X10552176Y-11225512D02*
X10569176Y-11208512D01*
D44*
X11468000Y-8700000D02*
X11468000Y-9250000D01*
D42*
X12702286Y-9936226D02*
X12627000Y-9860940D01*
X13042900Y-9936226D02*
X12702286Y-9936226D01*
X11060176Y-10774680D02*
X11060176Y-10869440D01*
X11060176Y-10869440D02*
X11077684Y-10886948D01*
X11070649Y-10774680D02*
X11060176Y-10774680D01*
X13246000Y-9250000D02*
X13246000Y-9733126D01*
X12627000Y-9860940D02*
X12627000Y-9723120D01*
X13246000Y-9733126D02*
X13042900Y-9936226D01*
D43*
X12758928Y-7350252D02*
X12758928Y-7400544D01*
X12758928Y-7400544D02*
X12894310Y-7535926D01*
X13081254Y-7535926D02*
X13266928Y-7350252D01*
X12894310Y-7535926D02*
X13081254Y-7535926D01*
X10599420Y-7349810D02*
X10736260Y-7486650D01*
X12622530Y-7486650D02*
X12758928Y-7350252D01*
X10736260Y-7486650D02*
X12622530Y-7486650D01*
X12819380Y-7739380D02*
X12819380Y-7410704D01*
X12819380Y-7410704D02*
X12758928Y-7350252D01*
X10345420Y-6847840D02*
X10599420Y-6847840D01*
X10599420Y-6847840D02*
X10599420Y-7101840D01*
X10599420Y-7101840D02*
X10599420Y-7349810D01*
D46*
X13246000Y-8700000D02*
X13246000Y-9250000D01*
X12627000Y-8139176D02*
X12627000Y-8185048D01*
X12627000Y-8185048D02*
X12899136Y-8457184D01*
X13003184Y-8457184D02*
X13246000Y-8700000D01*
X12899136Y-8457184D02*
X13003184Y-8457184D01*
D42*
X13266928Y-7350252D02*
X13266928Y-7282416D01*
X13266928Y-7282416D02*
X13289516Y-7259828D01*
X12758928Y-7350252D02*
X12758928Y-7291814D01*
X12758928Y-7291814D02*
X12792946Y-7257796D01*
D44*
X11085017Y-10774680D02*
X11060176Y-10774680D01*
D45*
X12627000Y-9723120D02*
X12627000Y-9793884D01*
X11060176Y-10869440D02*
X11077684Y-10886948D01*
X11060176Y-10774680D02*
X11081512Y-10774680D01*
D42*
X10599420Y-7101840D02*
X10599420Y-7349810D01*
X10599420Y-6847840D02*
X10599420Y-7101840D01*
D44*
X11722000Y-9250000D02*
X11722000Y-9300056D01*
X11722000Y-9300056D02*
X11609324Y-9412732D01*
X11077684Y-11136358D02*
X11077684Y-11208512D01*
X11005566Y-11064240D02*
X11077684Y-11136358D01*
X10519410Y-11064240D02*
X11005566Y-11064240D01*
X10373868Y-10918698D02*
X10519410Y-11064240D01*
X10373868Y-9487154D02*
X10373868Y-10918698D01*
X10498582Y-9362440D02*
X10373868Y-9487154D01*
X11333988Y-9362440D02*
X10498582Y-9362440D01*
X11384280Y-9412732D02*
X11333988Y-9362440D01*
X11609324Y-9412732D02*
X11384280Y-9412732D01*
X11060176Y-11320272D02*
X11060176Y-11226020D01*
X11060176Y-11226020D02*
X11077684Y-11208512D01*
X11722000Y-8700000D02*
X11706344Y-8700000D01*
X11706344Y-8700000D02*
X11041380Y-8035036D01*
X11041380Y-8035036D02*
X11041380Y-7739380D01*
X11722000Y-8700000D02*
X11722000Y-9250000D01*
X11041380Y-7739380D02*
X11041380Y-7749380D01*
D45*
X13711428Y-10774680D02*
X13711428Y-10882140D01*
X13711428Y-10882140D02*
X13716236Y-10886948D01*
D44*
X11295380Y-7739380D02*
X11295380Y-8019380D01*
X11295380Y-8019380D02*
X11976000Y-8700000D01*
X11976000Y-8700000D02*
X11976000Y-9250000D01*
X11295380Y-7739380D02*
X11295380Y-7749380D01*
X14235920Y-10886948D02*
X14235920Y-10791172D01*
X14235920Y-10791172D02*
X14219428Y-10774680D01*
D45*
X14219428Y-10870456D02*
X14235920Y-10886948D01*
D44*
X11549380Y-7739380D02*
X11549380Y-8019380D01*
X11549380Y-8019380D02*
X12230000Y-8700000D01*
X12230000Y-8700000D02*
X12230000Y-9250000D01*
D42*
X14003528Y-4732020D02*
X13832840Y-4732020D01*
X13832840Y-4732020D02*
X13484860Y-5080000D01*
X12900660Y-5532120D02*
X13032740Y-5532120D01*
X13032740Y-5532120D02*
X13484860Y-5080000D01*
X14605000Y-3970020D02*
X14765020Y-4130040D01*
X13721080Y-3970020D02*
X14605000Y-3970020D01*
X13484860Y-4206240D02*
X13721080Y-3970020D01*
X13484860Y-5080000D02*
X13484860Y-4206240D01*
X12900660Y-5532120D02*
X12629660Y-5532120D01*
X12629660Y-5532120D02*
X12629660Y-5758180D01*
X12629660Y-5758180D02*
X12900660Y-5758180D01*
X13581380Y-6225032D02*
X13581380Y-6180074D01*
X13581380Y-6180074D02*
X13458698Y-6057392D01*
X13458698Y-6057392D02*
X12437872Y-6057392D01*
X12437872Y-6057392D02*
X12138660Y-5758180D01*
X12138660Y-5758180D02*
X12409660Y-5758180D01*
D44*
X10808716Y-13267980D02*
X10808716Y-13210286D01*
X10808716Y-13210286D02*
X10889742Y-13129260D01*
X10889742Y-13129260D02*
X10934700Y-13129260D01*
X10934700Y-13129260D02*
X14481556Y-13129260D01*
X14481556Y-13129260D02*
X14512544Y-13098272D01*
X14512544Y-13098272D02*
X14512544Y-13097764D01*
X12373000Y-9723120D02*
X12373000Y-9752228D01*
X12373000Y-9752228D02*
X12656820Y-10036048D01*
X15068042Y-12542266D02*
X14512544Y-13097764D01*
X15068042Y-10997184D02*
X15068042Y-12542266D01*
X14106906Y-10036048D02*
X15068042Y-10997184D01*
X12656820Y-10036048D02*
X14106906Y-10036048D01*
X12373000Y-9723120D02*
X12420600Y-9723120D01*
X12420600Y-9723120D02*
X12588240Y-9555480D01*
X12588240Y-9555480D02*
X12832080Y-9555480D01*
X12832080Y-9555480D02*
X12992000Y-9395560D01*
X12992000Y-9395560D02*
X12992000Y-9250000D01*
X12311380Y-6225032D02*
X12311380Y-7125208D01*
X12388596Y-7202424D02*
X12390120Y-7202424D01*
X12311380Y-7125208D02*
X12388596Y-7202424D01*
D42*
X13012928Y-7350252D02*
X13012928Y-7257814D01*
X13012928Y-7257814D02*
X13012946Y-7257796D01*
D45*
X13012946Y-7257796D02*
X13012946Y-7255274D01*
X13012928Y-7257814D02*
X13012946Y-7257796D01*
X13012928Y-7350252D02*
X13012928Y-7335520D01*
D44*
X12373000Y-8166760D02*
X12645136Y-8438896D01*
X12730896Y-8438896D02*
X12992000Y-8700000D01*
X12645136Y-8438896D02*
X12730896Y-8438896D01*
X12373000Y-8139176D02*
X12373000Y-8055000D01*
X12373000Y-8055000D02*
X12057380Y-7739380D01*
X12373000Y-8139176D02*
X12373000Y-8166760D01*
X12992000Y-8700000D02*
X12992000Y-9250000D01*
X12119000Y-9723120D02*
X12119000Y-9760610D01*
X12738000Y-9250000D02*
X12738000Y-9431440D01*
X12282830Y-9559290D02*
X12119000Y-9723120D01*
X12469935Y-9559290D02*
X12282830Y-9559290D01*
X12561375Y-9467850D02*
X12469935Y-9559290D01*
X12701590Y-9467850D02*
X12561375Y-9467850D01*
X12738000Y-9431440D02*
X12701590Y-9467850D01*
X12738000Y-9250000D02*
X12722016Y-9250000D01*
D42*
X13520928Y-7350252D02*
X13520928Y-7271240D01*
X13520928Y-7271240D02*
X13509516Y-7259828D01*
D44*
X12119000Y-8139176D02*
X12142216Y-8139176D01*
X12142216Y-8139176D02*
X12439904Y-8436864D01*
X12474864Y-8436864D02*
X12738000Y-8700000D01*
X12439904Y-8436864D02*
X12474864Y-8436864D01*
X12738000Y-8700000D02*
X12738000Y-9250000D01*
X12119000Y-8139176D02*
X12119000Y-8055000D01*
X12119000Y-8055000D02*
X11803380Y-7739380D01*
X12119000Y-8139176D02*
X12145772Y-8139176D01*
D42*
X11244580Y-5059680D02*
X11054080Y-5059680D01*
X10775696Y-5338064D02*
X9981946Y-5338064D01*
X11054080Y-5059680D02*
X10775696Y-5338064D01*
X10025380Y-7739380D02*
X10025380Y-7693660D01*
X10025380Y-7693660D02*
X9875520Y-7543800D01*
X9875520Y-5444490D02*
X9981946Y-5338064D01*
X9875520Y-7543800D02*
X9875520Y-5444490D01*
D46*
X10345420Y-7101840D02*
X10091420Y-7101840D01*
X10279380Y-7739380D02*
X10091420Y-7551420D01*
X10091420Y-7551420D02*
X10091420Y-7101840D01*
X10091420Y-7101840D02*
X10091420Y-6847840D01*
D44*
X10091420Y-7101840D02*
X10091420Y-6847840D01*
X10091420Y-7101840D02*
X10091420Y-7551420D01*
D43*
X14073378Y-7487920D02*
X13681964Y-7487920D01*
X14109700Y-7451598D02*
X14073378Y-7487920D01*
X14109700Y-6989186D02*
X14109700Y-7451598D01*
X14084620Y-6964106D02*
X14109700Y-6989186D01*
X14132560Y-5773140D02*
X14132560Y-5168620D01*
X13581380Y-7739380D02*
X13581380Y-7588504D01*
X13581380Y-7588504D02*
X13681964Y-7487920D01*
D42*
X11578336Y-5395340D02*
X11578336Y-5536180D01*
X11257026Y-5395214D02*
X11257026Y-5536180D01*
D43*
X11578336Y-5395340D02*
X11257152Y-5395340D01*
X11257152Y-5395340D02*
X11257026Y-5395214D01*
X13306680Y-4267580D02*
X13276580Y-4297680D01*
X13306680Y-3799840D02*
X13306680Y-4267580D01*
D42*
X13276580Y-3829940D02*
X13306680Y-3799840D01*
D43*
X14132560Y-5773140D02*
X14132560Y-5756020D01*
D44*
X14003020Y-4384040D02*
X14003020Y-4477512D01*
X14003020Y-4477512D02*
X14257528Y-4732020D01*
D43*
X14635480Y-5773140D02*
X14405128Y-5773140D01*
X13944854Y-5568314D02*
X13771880Y-5395340D01*
X13944854Y-5847842D02*
X13944854Y-5568314D01*
X14042644Y-5945632D02*
X13944854Y-5847842D01*
X14232636Y-5945632D02*
X14042644Y-5945632D01*
X14405128Y-5773140D02*
X14232636Y-5945632D01*
X14635480Y-5773140D02*
X14635480Y-5168620D01*
X12931800Y-6778244D02*
X12873736Y-6778244D01*
X12873736Y-6778244D02*
X12629388Y-7022592D01*
X13047308Y-7022592D02*
X12629388Y-7022592D01*
X12889484Y-6635004D02*
X12889484Y-6518656D01*
X14109700Y-6431280D02*
X14389608Y-6711188D01*
X12976860Y-6431280D02*
X14109700Y-6431280D01*
X12889484Y-6518656D02*
X12976860Y-6431280D01*
X14389608Y-6711188D02*
X14389608Y-6668262D01*
X14389608Y-6668262D02*
X14635480Y-6422390D01*
X14635480Y-6422390D02*
X14635480Y-5773140D01*
D42*
X12889484Y-6635004D02*
X12889484Y-6735928D01*
X12889484Y-6735928D02*
X12931800Y-6778244D01*
X12889484Y-6735928D02*
X12931800Y-6778244D01*
X13771880Y-5551420D02*
X13771880Y-5395340D01*
D45*
X14262100Y-4384040D02*
X14262100Y-4332224D01*
X14262100Y-4332224D02*
X14464284Y-4130040D01*
X14464284Y-4130040D02*
X14511020Y-4130040D01*
D42*
X14325600Y-4976368D02*
X14825218Y-4976368D01*
X14825218Y-4976368D02*
X14843760Y-4994910D01*
X13838682Y-4981702D02*
X13838682Y-5000498D01*
X13838682Y-5000498D02*
X13444220Y-5394960D01*
X13844016Y-4976368D02*
X13838682Y-4981702D01*
X14325600Y-4976368D02*
X13844016Y-4976368D01*
D44*
X13838682Y-4981702D02*
X13444220Y-5376164D01*
X13444220Y-5376164D02*
X13444220Y-5394960D01*
D42*
X13444220Y-5394960D02*
X13444220Y-5407660D01*
X13444220Y-5394960D02*
X13444220Y-5551420D01*
D44*
X11314176Y-11320272D02*
X11527028Y-11320272D01*
X11902440Y-12025504D02*
X11828400Y-12099544D01*
X11902440Y-11695684D02*
X11902440Y-12025504D01*
X11527028Y-11320272D02*
X11902440Y-11695684D01*
X11701780Y-12019544D02*
X11748400Y-12019544D01*
X11748400Y-12019544D02*
X11828400Y-12099544D01*
D45*
X11314176Y-11320272D02*
X11314176Y-11225004D01*
X11314176Y-11225004D02*
X11297684Y-11208512D01*
X11314176Y-11225004D02*
X11297684Y-11208512D01*
D44*
X13965428Y-10774680D02*
X13965428Y-10632948D01*
X14503400Y-12989560D02*
X12500000Y-12989560D01*
X14987016Y-12505944D02*
X14503400Y-12989560D01*
X14987016Y-11047476D02*
X14987016Y-12505944D01*
X14523212Y-10583672D02*
X14987016Y-11047476D01*
X14014704Y-10583672D02*
X14523212Y-10583672D01*
X13965428Y-10632948D02*
X14014704Y-10583672D01*
X12579848Y-12865100D02*
X12579848Y-12909712D01*
X12579848Y-12909712D02*
X12500000Y-12989560D01*
D45*
X13965428Y-10774680D02*
X13965428Y-10857756D01*
X13965428Y-10857756D02*
X13936236Y-10886948D01*
D44*
X14473428Y-10774680D02*
X14563344Y-10774680D01*
X13171600Y-12501040D02*
X13171600Y-12099544D01*
X13344144Y-12673584D02*
X13171600Y-12501040D01*
X14299692Y-12673584D02*
X13344144Y-12673584D01*
X14472920Y-12500356D02*
X14299692Y-12673584D01*
X14472920Y-11701272D02*
X14472920Y-12500356D01*
X14858492Y-11315700D02*
X14472920Y-11701272D01*
X14858492Y-11069828D02*
X14858492Y-11315700D01*
X14563344Y-10774680D02*
X14858492Y-11069828D01*
X14473428Y-10774680D02*
X14473428Y-10869440D01*
X14473428Y-10869440D02*
X14455920Y-10886948D01*
X14473428Y-10869440D02*
X14455920Y-10886948D01*
X13298600Y-12019544D02*
X13251600Y-12019544D01*
X13251600Y-12019544D02*
X13171600Y-12099544D01*
M02*
