G04 #@! TF.FileFunction,Legend,Top*
%FSLAX45Y45*%
G04 Gerber Fmt 4.5, Leading zero omitted, Abs format (unit mm)*
G04 Created by KiCad (PCBNEW 4.0.6-e0-6349~53~ubuntu16.04.1) date Tue Apr 25 11:52:05 2017*
%MOMM*%
%LPD*%
G01*
G04 APERTURE LIST*
%ADD10C,0.020000*%
%ADD11C,0.120000*%
%ADD12C,0.155643*%
%ADD13C,0.010000*%
%ADD14C,0.150000*%
G04 APERTURE END LIST*
D10*
D11*
X11105580Y-4578680D02*
G75*
G02X11105580Y-4778680I0J-100000D01*
G01*
D12*
X10229479Y-3493136D02*
X10204755Y-3493756D01*
X10204755Y-3493756D02*
X10180365Y-3495596D01*
X10180365Y-3495596D02*
X10156337Y-3498627D01*
X10156337Y-3498627D02*
X10132701Y-3502819D01*
X10132701Y-3502819D02*
X10109487Y-3508142D01*
X10109487Y-3508142D02*
X10086724Y-3514567D01*
X10086724Y-3514567D02*
X10064443Y-3522064D01*
X10064443Y-3522064D02*
X10042673Y-3530604D01*
X10042673Y-3530604D02*
X10021443Y-3540156D01*
X10021443Y-3540156D02*
X10000783Y-3550692D01*
X10000783Y-3550692D02*
X9980722Y-3562182D01*
X9980722Y-3562182D02*
X9961291Y-3574596D01*
X9961291Y-3574596D02*
X9942519Y-3587904D01*
X9942519Y-3587904D02*
X9924436Y-3602078D01*
X9924436Y-3602078D02*
X9907071Y-3617087D01*
X9907071Y-3617087D02*
X9890453Y-3632901D01*
X9890453Y-3632901D02*
X9874614Y-3649492D01*
X9874614Y-3649492D02*
X9859581Y-3666829D01*
X9859581Y-3666829D02*
X9845385Y-3684883D01*
X9845385Y-3684883D02*
X9832056Y-3703624D01*
X9832056Y-3703624D02*
X9819622Y-3723023D01*
X9819622Y-3723023D02*
X9808114Y-3743050D01*
X9808114Y-3743050D02*
X9797562Y-3763676D01*
X9797562Y-3763676D02*
X9787994Y-3784870D01*
X9787994Y-3784870D02*
X9779442Y-3806604D01*
X9779442Y-3806604D02*
X9771933Y-3828847D01*
X9771933Y-3828847D02*
X9765498Y-3851571D01*
X9765498Y-3851571D02*
X9760167Y-3874745D01*
X9760167Y-3874745D02*
X9755969Y-3898340D01*
X9755969Y-3898340D02*
X9752933Y-3922326D01*
X9752933Y-3922326D02*
X9751091Y-3946674D01*
X9751091Y-3946674D02*
X9750470Y-3971354D01*
X9750470Y-3971354D02*
X9750470Y-8508201D01*
X9750470Y-8508201D02*
X9751130Y-8533622D01*
X9751130Y-8533622D02*
X9753088Y-8558685D01*
X9753088Y-8558685D02*
X9756312Y-8583357D01*
X9756312Y-8583357D02*
X9760770Y-8607607D01*
X9760770Y-8607607D02*
X9766428Y-8631403D01*
X9766428Y-8631403D02*
X9773254Y-8654713D01*
X9773254Y-8654713D02*
X9781215Y-8677504D01*
X9781215Y-8677504D02*
X9790280Y-8699745D01*
X9790280Y-8699745D02*
X9800414Y-8721404D01*
X9800414Y-8721404D02*
X9811587Y-8742449D01*
X9811587Y-8742449D02*
X9823764Y-8762848D01*
X9823764Y-8762848D02*
X9836915Y-8782569D01*
X9836915Y-8782569D02*
X9851005Y-8801579D01*
X9851005Y-8801579D02*
X9866002Y-8819848D01*
X9866002Y-8819848D02*
X9881875Y-8837342D01*
X9881875Y-8837342D02*
X9898589Y-8854031D01*
X9898589Y-8854031D02*
X9916114Y-8869881D01*
X9916114Y-8869881D02*
X9934415Y-8884861D01*
X9934415Y-8884861D02*
X9953461Y-8898940D01*
X9953461Y-8898940D02*
X9973219Y-8912084D01*
X9973219Y-8912084D02*
X9993656Y-8924263D01*
X9993656Y-8924263D02*
X10014740Y-8935444D01*
X10014740Y-8935444D02*
X10036438Y-8945594D01*
X10036438Y-8945594D02*
X10058718Y-8954683D01*
X10058718Y-8954683D02*
X10081546Y-8962678D01*
X10081546Y-8962678D02*
X10104892Y-8969548D01*
X10104892Y-8969548D02*
X10081522Y-8976642D01*
X10081522Y-8976642D02*
X10058673Y-8984854D01*
X10058673Y-8984854D02*
X10036377Y-8994155D01*
X10036377Y-8994155D02*
X10014667Y-9004510D01*
X10014667Y-9004510D02*
X9993574Y-9015890D01*
X9993574Y-9015890D02*
X9973131Y-9028261D01*
X9973131Y-9028261D02*
X9953371Y-9041593D01*
X9953371Y-9041593D02*
X9934326Y-9055853D01*
X9934326Y-9055853D02*
X9916027Y-9071010D01*
X9916027Y-9071010D02*
X9898508Y-9087032D01*
X9898508Y-9087032D02*
X9881800Y-9103887D01*
X9881800Y-9103887D02*
X9865936Y-9121543D01*
X9865936Y-9121543D02*
X9850948Y-9139969D01*
X9850948Y-9139969D02*
X9836869Y-9159133D01*
X9836869Y-9159133D02*
X9823730Y-9179003D01*
X9823730Y-9179003D02*
X9811564Y-9199548D01*
X9811564Y-9199548D02*
X9800404Y-9220735D01*
X9800404Y-9220735D02*
X9790282Y-9242533D01*
X9790282Y-9242533D02*
X9781229Y-9264910D01*
X9781229Y-9264910D02*
X9773278Y-9287835D01*
X9773278Y-9287835D02*
X9766462Y-9311275D01*
X9766462Y-9311275D02*
X9760813Y-9335199D01*
X9760813Y-9335199D02*
X9756363Y-9359575D01*
X9756363Y-9359575D02*
X9753145Y-9384371D01*
X9753145Y-9384371D02*
X9751190Y-9409556D01*
X9751190Y-9409556D02*
X9750531Y-9435097D01*
X9750531Y-9435097D02*
X9750531Y-14023287D01*
X9750531Y-14023287D02*
X9751159Y-14048245D01*
X9751159Y-14048245D02*
X9753024Y-14072868D01*
X9753024Y-14072868D02*
X9756094Y-14097125D01*
X9756094Y-14097125D02*
X9760341Y-14120986D01*
X9760341Y-14120986D02*
X9765735Y-14144421D01*
X9765735Y-14144421D02*
X9772244Y-14167400D01*
X9772244Y-14167400D02*
X9779840Y-14189893D01*
X9779840Y-14189893D02*
X9788492Y-14211871D01*
X9788492Y-14211871D02*
X9798170Y-14233304D01*
X9798170Y-14233304D02*
X9808845Y-14254161D01*
X9808845Y-14254161D02*
X9820486Y-14274412D01*
X9820486Y-14274412D02*
X9833063Y-14294029D01*
X9833063Y-14294029D02*
X9846546Y-14312980D01*
X9846546Y-14312980D02*
X9860906Y-14331236D01*
X9860906Y-14331236D02*
X9876112Y-14348767D01*
X9876112Y-14348767D02*
X9892135Y-14365543D01*
X9892135Y-14365543D02*
X9908943Y-14381534D01*
X9908943Y-14381534D02*
X9926508Y-14396710D01*
X9926508Y-14396710D02*
X9944800Y-14411041D01*
X9944800Y-14411041D02*
X9963787Y-14424498D01*
X9963787Y-14424498D02*
X9983441Y-14437050D01*
X9983441Y-14437050D02*
X10003731Y-14448668D01*
X10003731Y-14448668D02*
X10024628Y-14459321D01*
X10024628Y-14459321D02*
X10046101Y-14468980D01*
X10046101Y-14468980D02*
X10068120Y-14477615D01*
X10068120Y-14477615D02*
X10090656Y-14485195D01*
X10090656Y-14485195D02*
X10113677Y-14491691D01*
X10113677Y-14491691D02*
X10137156Y-14497074D01*
X10137156Y-14497074D02*
X10161060Y-14501312D01*
X10161060Y-14501312D02*
X10185361Y-14504376D01*
X10185361Y-14504376D02*
X10210028Y-14506237D01*
X10210028Y-14506237D02*
X10235032Y-14506864D01*
X10235032Y-14506864D02*
X14764968Y-14506864D01*
X14764968Y-14506864D02*
X14789972Y-14506237D01*
X14789972Y-14506237D02*
X14814638Y-14504376D01*
X14814638Y-14504376D02*
X14838938Y-14501312D01*
X14838938Y-14501312D02*
X14862842Y-14497074D01*
X14862842Y-14497074D02*
X14886318Y-14491691D01*
X14886318Y-14491691D02*
X14909339Y-14485195D01*
X14909339Y-14485195D02*
X14931872Y-14477615D01*
X14931872Y-14477615D02*
X14953890Y-14468980D01*
X14953890Y-14468980D02*
X14975360Y-14459321D01*
X14975360Y-14459321D02*
X14996254Y-14448668D01*
X14996254Y-14448668D02*
X15016542Y-14437050D01*
X15016542Y-14437050D02*
X15036194Y-14424498D01*
X15036194Y-14424498D02*
X15055178Y-14411041D01*
X15055178Y-14411041D02*
X15073467Y-14396710D01*
X15073467Y-14396710D02*
X15091029Y-14381534D01*
X15091029Y-14381534D02*
X15107835Y-14365543D01*
X15107835Y-14365543D02*
X15123855Y-14348767D01*
X15123855Y-14348767D02*
X15139058Y-14331236D01*
X15139058Y-14331236D02*
X15153415Y-14312980D01*
X15153415Y-14312980D02*
X15166896Y-14294029D01*
X15166896Y-14294029D02*
X15179470Y-14274412D01*
X15179470Y-14274412D02*
X15191109Y-14254161D01*
X15191109Y-14254161D02*
X15201781Y-14233304D01*
X15201781Y-14233304D02*
X15211457Y-14211871D01*
X15211457Y-14211871D02*
X15220107Y-14189893D01*
X15220107Y-14189893D02*
X15227701Y-14167400D01*
X15227701Y-14167400D02*
X15234209Y-14144421D01*
X15234209Y-14144421D02*
X15239601Y-14120986D01*
X15239601Y-14120986D02*
X15243847Y-14097125D01*
X15243847Y-14097125D02*
X15246917Y-14072868D01*
X15246917Y-14072868D02*
X15248780Y-14048245D01*
X15248780Y-14048245D02*
X15249408Y-14023287D01*
X15249408Y-14023287D02*
X15249408Y-9435097D01*
X15249408Y-9435097D02*
X15248750Y-9409557D01*
X15248750Y-9409557D02*
X15246796Y-9384374D01*
X15246796Y-9384374D02*
X15243578Y-9359579D01*
X15243578Y-9359579D02*
X15239129Y-9335204D01*
X15239129Y-9335204D02*
X15233481Y-9311281D01*
X15233481Y-9311281D02*
X15226667Y-9287842D01*
X15226667Y-9287842D02*
X15218718Y-9264919D01*
X15218718Y-9264919D02*
X15209668Y-9242542D01*
X15209668Y-9242542D02*
X15199547Y-9220745D01*
X15199547Y-9220745D02*
X15188390Y-9199558D01*
X15188390Y-9199558D02*
X15176227Y-9179014D01*
X15176227Y-9179014D02*
X15163091Y-9159144D01*
X15163091Y-9159144D02*
X15149014Y-9139979D01*
X15149014Y-9139979D02*
X15134029Y-9121553D01*
X15134029Y-9121553D02*
X15118168Y-9103897D01*
X15118168Y-9103897D02*
X15101463Y-9087041D01*
X15101463Y-9087041D02*
X15083947Y-9071019D01*
X15083947Y-9071019D02*
X15065652Y-9055861D01*
X15065652Y-9055861D02*
X15046609Y-9041601D01*
X15046609Y-9041601D02*
X15026852Y-9028268D01*
X15026852Y-9028268D02*
X15006412Y-9015896D01*
X15006412Y-9015896D02*
X14985323Y-9004515D01*
X14985323Y-9004515D02*
X14963615Y-8994159D01*
X14963615Y-8994159D02*
X14941322Y-8984857D01*
X14941322Y-8984857D02*
X14918476Y-8976643D01*
X14918476Y-8976643D02*
X14895108Y-8969548D01*
X14895108Y-8969548D02*
X14918452Y-8962678D01*
X14918452Y-8962678D02*
X14941280Y-8954682D01*
X14941280Y-8954682D02*
X14963559Y-8945592D01*
X14963559Y-8945592D02*
X14985256Y-8935441D01*
X14985256Y-8935441D02*
X15006340Y-8924259D01*
X15006340Y-8924259D02*
X15026777Y-8912080D01*
X15026777Y-8912080D02*
X15046534Y-8898935D01*
X15046534Y-8898935D02*
X15065580Y-8884856D01*
X15065580Y-8884856D02*
X15083881Y-8869876D01*
X15083881Y-8869876D02*
X15101406Y-8854025D01*
X15101406Y-8854025D02*
X15118120Y-8837336D01*
X15118120Y-8837336D02*
X15133993Y-8819842D01*
X15133993Y-8819842D02*
X15148991Y-8801573D01*
X15148991Y-8801573D02*
X15163081Y-8782563D01*
X15163081Y-8782563D02*
X15176232Y-8762842D01*
X15176232Y-8762842D02*
X15188410Y-8742444D01*
X15188410Y-8742444D02*
X15199583Y-8721399D01*
X15199583Y-8721399D02*
X15209718Y-8699740D01*
X15209718Y-8699740D02*
X15218783Y-8677500D01*
X15218783Y-8677500D02*
X15226745Y-8654709D01*
X15226745Y-8654709D02*
X15233571Y-8631400D01*
X15233571Y-8631400D02*
X15239230Y-8607604D01*
X15239230Y-8607604D02*
X15243687Y-8583355D01*
X15243687Y-8583355D02*
X15246912Y-8558683D01*
X15246912Y-8558683D02*
X15248870Y-8533621D01*
X15248870Y-8533621D02*
X15249530Y-8508201D01*
X15249530Y-8508201D02*
X15249530Y-3971354D01*
X15249530Y-3971354D02*
X15248909Y-3946674D01*
X15248909Y-3946674D02*
X15247066Y-3922326D01*
X15247066Y-3922326D02*
X15244030Y-3898340D01*
X15244030Y-3898340D02*
X15239830Y-3874745D01*
X15239830Y-3874745D02*
X15234498Y-3851571D01*
X15234498Y-3851571D02*
X15228061Y-3828847D01*
X15228061Y-3828847D02*
X15220551Y-3806604D01*
X15220551Y-3806604D02*
X15211996Y-3784870D01*
X15211996Y-3784870D02*
X15202426Y-3763676D01*
X15202426Y-3763676D02*
X15191872Y-3743050D01*
X15191872Y-3743050D02*
X15180361Y-3723023D01*
X15180361Y-3723023D02*
X15167925Y-3703624D01*
X15167925Y-3703624D02*
X15154593Y-3684883D01*
X15154593Y-3684883D02*
X15140394Y-3666829D01*
X15140394Y-3666829D02*
X15125359Y-3649492D01*
X15125359Y-3649492D02*
X15109516Y-3632901D01*
X15109516Y-3632901D02*
X15092896Y-3617087D01*
X15092896Y-3617087D02*
X15075528Y-3602078D01*
X15075528Y-3602078D02*
X15057442Y-3587904D01*
X15057442Y-3587904D02*
X15038667Y-3574596D01*
X15038667Y-3574596D02*
X15019234Y-3562182D01*
X15019234Y-3562182D02*
X14999171Y-3550692D01*
X14999171Y-3550692D02*
X14978508Y-3540156D01*
X14978508Y-3540156D02*
X14957276Y-3530604D01*
X14957276Y-3530604D02*
X14935503Y-3522064D01*
X14935503Y-3522064D02*
X14913220Y-3514567D01*
X14913220Y-3514567D02*
X14890456Y-3508142D01*
X14890456Y-3508142D02*
X14867241Y-3502819D01*
X14867241Y-3502819D02*
X14843604Y-3498627D01*
X14843604Y-3498627D02*
X14819575Y-3495596D01*
X14819575Y-3495596D02*
X14795184Y-3493756D01*
X14795184Y-3493756D02*
X14770460Y-3493136D01*
X14770460Y-3493136D02*
X10229479Y-3493136D01*
X10229479Y-3493136D02*
X10204755Y-3493756D01*
X10204755Y-3493756D02*
X10180365Y-3495596D01*
X10180365Y-3495596D02*
X10156337Y-3498627D01*
X10156337Y-3498627D02*
X10132701Y-3502819D01*
X10132701Y-3502819D02*
X10109487Y-3508142D01*
X10109487Y-3508142D02*
X10086724Y-3514567D01*
X10086724Y-3514567D02*
X10064443Y-3522064D01*
X10064443Y-3522064D02*
X10042673Y-3530604D01*
X10042673Y-3530604D02*
X10021443Y-3540156D01*
X10021443Y-3540156D02*
X10000783Y-3550692D01*
X10000783Y-3550692D02*
X9980722Y-3562182D01*
X9980722Y-3562182D02*
X9961291Y-3574596D01*
X9961291Y-3574596D02*
X9942519Y-3587904D01*
X9942519Y-3587904D02*
X9924436Y-3602078D01*
X9924436Y-3602078D02*
X9907071Y-3617087D01*
X9907071Y-3617087D02*
X9890453Y-3632901D01*
X9890453Y-3632901D02*
X9874614Y-3649492D01*
X9874614Y-3649492D02*
X9859581Y-3666829D01*
X9859581Y-3666829D02*
X9845385Y-3684883D01*
X9845385Y-3684883D02*
X9832056Y-3703624D01*
X9832056Y-3703624D02*
X9819622Y-3723023D01*
X9819622Y-3723023D02*
X9808114Y-3743050D01*
X9808114Y-3743050D02*
X9797562Y-3763676D01*
X9797562Y-3763676D02*
X9787994Y-3784870D01*
X9787994Y-3784870D02*
X9779442Y-3806604D01*
X9779442Y-3806604D02*
X9771933Y-3828847D01*
X9771933Y-3828847D02*
X9765498Y-3851571D01*
X9765498Y-3851571D02*
X9760167Y-3874745D01*
X9760167Y-3874745D02*
X9755969Y-3898340D01*
X9755969Y-3898340D02*
X9752933Y-3922326D01*
X9752933Y-3922326D02*
X9751091Y-3946674D01*
X9751091Y-3946674D02*
X9750470Y-3971354D01*
X9750470Y-3971354D02*
X9750470Y-8508201D01*
X9750470Y-8508201D02*
X9751130Y-8533622D01*
X9751130Y-8533622D02*
X9753088Y-8558685D01*
X9753088Y-8558685D02*
X9756312Y-8583357D01*
X9756312Y-8583357D02*
X9760770Y-8607607D01*
X9760770Y-8607607D02*
X9766428Y-8631403D01*
X9766428Y-8631403D02*
X9773254Y-8654713D01*
X9773254Y-8654713D02*
X9781215Y-8677504D01*
X9781215Y-8677504D02*
X9790280Y-8699745D01*
X9790280Y-8699745D02*
X9800414Y-8721404D01*
X9800414Y-8721404D02*
X9811587Y-8742449D01*
X9811587Y-8742449D02*
X9823764Y-8762848D01*
X9823764Y-8762848D02*
X9836915Y-8782569D01*
X9836915Y-8782569D02*
X9851005Y-8801579D01*
X9851005Y-8801579D02*
X9866002Y-8819848D01*
X9866002Y-8819848D02*
X9881875Y-8837342D01*
X9881875Y-8837342D02*
X9898589Y-8854031D01*
X9898589Y-8854031D02*
X9916114Y-8869881D01*
X9916114Y-8869881D02*
X9934415Y-8884861D01*
X9934415Y-8884861D02*
X9953461Y-8898940D01*
X9953461Y-8898940D02*
X9973219Y-8912084D01*
X9973219Y-8912084D02*
X9993656Y-8924263D01*
X9993656Y-8924263D02*
X10014740Y-8935444D01*
X10014740Y-8935444D02*
X10036438Y-8945594D01*
X10036438Y-8945594D02*
X10058718Y-8954683D01*
X10058718Y-8954683D02*
X10081546Y-8962678D01*
X10081546Y-8962678D02*
X10104892Y-8969548D01*
X10104892Y-8969548D02*
X10081522Y-8976642D01*
X10081522Y-8976642D02*
X10058673Y-8984854D01*
X10058673Y-8984854D02*
X10036377Y-8994155D01*
X10036377Y-8994155D02*
X10014667Y-9004510D01*
X10014667Y-9004510D02*
X9993574Y-9015890D01*
X9993574Y-9015890D02*
X9973131Y-9028261D01*
X9973131Y-9028261D02*
X9953371Y-9041593D01*
X9953371Y-9041593D02*
X9934326Y-9055853D01*
X9934326Y-9055853D02*
X9916027Y-9071010D01*
X9916027Y-9071010D02*
X9898508Y-9087032D01*
X9898508Y-9087032D02*
X9881800Y-9103887D01*
X9881800Y-9103887D02*
X9865936Y-9121543D01*
X9865936Y-9121543D02*
X9850948Y-9139969D01*
X9850948Y-9139969D02*
X9836869Y-9159133D01*
X9836869Y-9159133D02*
X9823730Y-9179003D01*
X9823730Y-9179003D02*
X9811564Y-9199548D01*
X9811564Y-9199548D02*
X9800404Y-9220735D01*
X9800404Y-9220735D02*
X9790282Y-9242533D01*
X9790282Y-9242533D02*
X9781229Y-9264910D01*
X9781229Y-9264910D02*
X9773278Y-9287835D01*
X9773278Y-9287835D02*
X9766462Y-9311275D01*
X9766462Y-9311275D02*
X9760813Y-9335199D01*
X9760813Y-9335199D02*
X9756363Y-9359575D01*
X9756363Y-9359575D02*
X9753145Y-9384371D01*
X9753145Y-9384371D02*
X9751190Y-9409556D01*
X9751190Y-9409556D02*
X9750531Y-9435097D01*
X9750531Y-9435097D02*
X9750531Y-14023287D01*
X9750531Y-14023287D02*
X9751159Y-14048245D01*
X9751159Y-14048245D02*
X9753024Y-14072868D01*
X9753024Y-14072868D02*
X9756094Y-14097125D01*
X9756094Y-14097125D02*
X9760341Y-14120986D01*
X9760341Y-14120986D02*
X9765735Y-14144421D01*
X9765735Y-14144421D02*
X9772244Y-14167400D01*
X9772244Y-14167400D02*
X9779840Y-14189893D01*
X9779840Y-14189893D02*
X9788492Y-14211871D01*
X9788492Y-14211871D02*
X9798170Y-14233304D01*
X9798170Y-14233304D02*
X9808845Y-14254161D01*
X9808845Y-14254161D02*
X9820486Y-14274412D01*
X9820486Y-14274412D02*
X9833063Y-14294029D01*
X9833063Y-14294029D02*
X9846546Y-14312980D01*
X9846546Y-14312980D02*
X9860906Y-14331236D01*
X9860906Y-14331236D02*
X9876112Y-14348767D01*
X9876112Y-14348767D02*
X9892135Y-14365543D01*
X9892135Y-14365543D02*
X9908943Y-14381534D01*
X9908943Y-14381534D02*
X9926508Y-14396710D01*
X9926508Y-14396710D02*
X9944800Y-14411041D01*
X9944800Y-14411041D02*
X9963787Y-14424498D01*
X9963787Y-14424498D02*
X9983441Y-14437050D01*
X9983441Y-14437050D02*
X10003731Y-14448668D01*
X10003731Y-14448668D02*
X10024628Y-14459321D01*
X10024628Y-14459321D02*
X10046101Y-14468980D01*
X10046101Y-14468980D02*
X10068120Y-14477615D01*
X10068120Y-14477615D02*
X10090656Y-14485195D01*
X10090656Y-14485195D02*
X10113677Y-14491691D01*
X10113677Y-14491691D02*
X10137156Y-14497074D01*
X10137156Y-14497074D02*
X10161060Y-14501312D01*
X10161060Y-14501312D02*
X10185361Y-14504376D01*
X10185361Y-14504376D02*
X10210028Y-14506237D01*
X10210028Y-14506237D02*
X10235032Y-14506864D01*
X10235032Y-14506864D02*
X14764968Y-14506864D01*
X14764968Y-14506864D02*
X14789972Y-14506237D01*
X14789972Y-14506237D02*
X14814638Y-14504376D01*
X14814638Y-14504376D02*
X14838938Y-14501312D01*
X14838938Y-14501312D02*
X14862842Y-14497074D01*
X14862842Y-14497074D02*
X14886318Y-14491691D01*
X14886318Y-14491691D02*
X14909339Y-14485195D01*
X14909339Y-14485195D02*
X14931872Y-14477615D01*
X14931872Y-14477615D02*
X14953890Y-14468980D01*
X14953890Y-14468980D02*
X14975360Y-14459321D01*
X14975360Y-14459321D02*
X14996254Y-14448668D01*
X14996254Y-14448668D02*
X15016542Y-14437050D01*
X15016542Y-14437050D02*
X15036194Y-14424498D01*
X15036194Y-14424498D02*
X15055178Y-14411041D01*
X15055178Y-14411041D02*
X15073467Y-14396710D01*
X15073467Y-14396710D02*
X15091029Y-14381534D01*
X15091029Y-14381534D02*
X15107835Y-14365543D01*
X15107835Y-14365543D02*
X15123855Y-14348767D01*
X15123855Y-14348767D02*
X15139058Y-14331236D01*
X15139058Y-14331236D02*
X15153415Y-14312980D01*
X15153415Y-14312980D02*
X15166896Y-14294029D01*
X15166896Y-14294029D02*
X15179470Y-14274412D01*
X15179470Y-14274412D02*
X15191109Y-14254161D01*
X15191109Y-14254161D02*
X15201781Y-14233304D01*
X15201781Y-14233304D02*
X15211457Y-14211871D01*
X15211457Y-14211871D02*
X15220107Y-14189893D01*
X15220107Y-14189893D02*
X15227701Y-14167400D01*
X15227701Y-14167400D02*
X15234209Y-14144421D01*
X15234209Y-14144421D02*
X15239601Y-14120986D01*
X15239601Y-14120986D02*
X15243847Y-14097125D01*
X15243847Y-14097125D02*
X15246917Y-14072868D01*
X15246917Y-14072868D02*
X15248780Y-14048245D01*
X15248780Y-14048245D02*
X15249408Y-14023287D01*
X15249408Y-14023287D02*
X15249408Y-9435097D01*
X15249408Y-9435097D02*
X15248750Y-9409557D01*
X15248750Y-9409557D02*
X15246796Y-9384374D01*
X15246796Y-9384374D02*
X15243578Y-9359579D01*
X15243578Y-9359579D02*
X15239129Y-9335204D01*
X15239129Y-9335204D02*
X15233481Y-9311281D01*
X15233481Y-9311281D02*
X15226667Y-9287842D01*
X15226667Y-9287842D02*
X15218718Y-9264919D01*
X15218718Y-9264919D02*
X15209668Y-9242542D01*
X15209668Y-9242542D02*
X15199547Y-9220745D01*
X15199547Y-9220745D02*
X15188390Y-9199558D01*
X15188390Y-9199558D02*
X15176227Y-9179014D01*
X15176227Y-9179014D02*
X15163091Y-9159144D01*
X15163091Y-9159144D02*
X15149014Y-9139979D01*
X15149014Y-9139979D02*
X15134029Y-9121553D01*
X15134029Y-9121553D02*
X15118168Y-9103897D01*
X15118168Y-9103897D02*
X15101463Y-9087041D01*
X15101463Y-9087041D02*
X15083947Y-9071019D01*
X15083947Y-9071019D02*
X15065652Y-9055861D01*
X15065652Y-9055861D02*
X15046609Y-9041601D01*
X15046609Y-9041601D02*
X15026852Y-9028268D01*
X15026852Y-9028268D02*
X15006412Y-9015896D01*
X15006412Y-9015896D02*
X14985323Y-9004515D01*
X14985323Y-9004515D02*
X14963615Y-8994159D01*
X14963615Y-8994159D02*
X14941322Y-8984857D01*
X14941322Y-8984857D02*
X14918476Y-8976643D01*
X14918476Y-8976643D02*
X14895108Y-8969548D01*
X14895108Y-8969548D02*
X14918452Y-8962678D01*
X14918452Y-8962678D02*
X14941280Y-8954682D01*
X14941280Y-8954682D02*
X14963559Y-8945592D01*
X14963559Y-8945592D02*
X14985256Y-8935441D01*
X14985256Y-8935441D02*
X15006340Y-8924259D01*
X15006340Y-8924259D02*
X15026777Y-8912080D01*
X15026777Y-8912080D02*
X15046534Y-8898935D01*
X15046534Y-8898935D02*
X15065580Y-8884856D01*
X15065580Y-8884856D02*
X15083881Y-8869876D01*
X15083881Y-8869876D02*
X15101406Y-8854025D01*
X15101406Y-8854025D02*
X15118120Y-8837336D01*
X15118120Y-8837336D02*
X15133993Y-8819842D01*
X15133993Y-8819842D02*
X15148991Y-8801573D01*
X15148991Y-8801573D02*
X15163081Y-8782563D01*
X15163081Y-8782563D02*
X15176232Y-8762842D01*
X15176232Y-8762842D02*
X15188410Y-8742444D01*
X15188410Y-8742444D02*
X15199583Y-8721399D01*
X15199583Y-8721399D02*
X15209718Y-8699740D01*
X15209718Y-8699740D02*
X15218783Y-8677500D01*
X15218783Y-8677500D02*
X15226745Y-8654709D01*
X15226745Y-8654709D02*
X15233571Y-8631400D01*
X15233571Y-8631400D02*
X15239230Y-8607604D01*
X15239230Y-8607604D02*
X15243687Y-8583355D01*
X15243687Y-8583355D02*
X15246912Y-8558683D01*
X15246912Y-8558683D02*
X15248870Y-8533621D01*
X15248870Y-8533621D02*
X15249530Y-8508201D01*
X15249530Y-8508201D02*
X15249530Y-3971354D01*
X15249530Y-3971354D02*
X15248909Y-3946674D01*
X15248909Y-3946674D02*
X15247066Y-3922326D01*
X15247066Y-3922326D02*
X15244030Y-3898340D01*
X15244030Y-3898340D02*
X15239830Y-3874745D01*
X15239830Y-3874745D02*
X15234498Y-3851571D01*
X15234498Y-3851571D02*
X15228061Y-3828847D01*
X15228061Y-3828847D02*
X15220551Y-3806604D01*
X15220551Y-3806604D02*
X15211996Y-3784870D01*
X15211996Y-3784870D02*
X15202426Y-3763676D01*
X15202426Y-3763676D02*
X15191872Y-3743050D01*
X15191872Y-3743050D02*
X15180361Y-3723023D01*
X15180361Y-3723023D02*
X15167925Y-3703624D01*
X15167925Y-3703624D02*
X15154593Y-3684883D01*
X15154593Y-3684883D02*
X15140394Y-3666829D01*
X15140394Y-3666829D02*
X15125359Y-3649492D01*
X15125359Y-3649492D02*
X15109516Y-3632901D01*
X15109516Y-3632901D02*
X15092896Y-3617087D01*
X15092896Y-3617087D02*
X15075528Y-3602078D01*
X15075528Y-3602078D02*
X15057442Y-3587904D01*
X15057442Y-3587904D02*
X15038667Y-3574596D01*
X15038667Y-3574596D02*
X15019234Y-3562182D01*
X15019234Y-3562182D02*
X14999171Y-3550692D01*
X14999171Y-3550692D02*
X14978508Y-3540156D01*
X14978508Y-3540156D02*
X14957276Y-3530604D01*
X14957276Y-3530604D02*
X14935503Y-3522064D01*
X14935503Y-3522064D02*
X14913220Y-3514567D01*
X14913220Y-3514567D02*
X14890456Y-3508142D01*
X14890456Y-3508142D02*
X14867241Y-3502819D01*
X14867241Y-3502819D02*
X14843604Y-3498627D01*
X14843604Y-3498627D02*
X14819575Y-3495596D01*
X14819575Y-3495596D02*
X14795184Y-3493756D01*
X14795184Y-3493756D02*
X14770460Y-3493136D01*
X14770460Y-3493136D02*
X10229479Y-3493136D01*
D13*
G36*
X10555602Y-14280439D02*
X10562721Y-14281118D01*
X10565131Y-14281537D01*
X10575924Y-14284889D01*
X10585420Y-14290061D01*
X10593331Y-14296831D01*
X10599366Y-14304972D01*
X10601818Y-14310043D01*
X10602568Y-14311971D01*
X10603184Y-14313825D01*
X10603683Y-14315869D01*
X10604079Y-14318368D01*
X10604388Y-14321586D01*
X10604625Y-14325786D01*
X10604806Y-14331232D01*
X10604945Y-14338188D01*
X10605058Y-14346919D01*
X10605161Y-14357688D01*
X10605256Y-14369351D01*
X10605671Y-14421104D01*
X10567416Y-14421104D01*
X10567416Y-14406618D01*
X10562654Y-14411255D01*
X10555256Y-14416779D01*
X10546336Y-14420695D01*
X10536438Y-14422873D01*
X10526107Y-14423182D01*
X10517886Y-14421994D01*
X10507266Y-14418488D01*
X10497963Y-14413238D01*
X10490301Y-14406480D01*
X10484603Y-14398452D01*
X10483984Y-14397246D01*
X10482344Y-14393660D01*
X10481299Y-14390468D01*
X10480717Y-14386913D01*
X10480469Y-14382236D01*
X10480424Y-14376945D01*
X10519964Y-14376945D01*
X10521184Y-14381949D01*
X10523876Y-14385913D01*
X10524357Y-14386326D01*
X10529141Y-14388809D01*
X10535336Y-14390199D01*
X10542010Y-14390388D01*
X10548234Y-14389264D01*
X10548494Y-14389179D01*
X10555689Y-14385690D01*
X10560904Y-14380790D01*
X10564004Y-14374649D01*
X10564876Y-14368462D01*
X10564876Y-14362684D01*
X10548684Y-14362712D01*
X10539515Y-14362929D01*
X10532539Y-14363617D01*
X10527435Y-14364880D01*
X10523884Y-14366823D01*
X10521563Y-14369553D01*
X10520503Y-14371975D01*
X10519964Y-14376945D01*
X10480424Y-14376945D01*
X10480421Y-14376654D01*
X10480474Y-14370506D01*
X10480722Y-14366171D01*
X10481303Y-14362923D01*
X10482353Y-14360038D01*
X10484007Y-14356788D01*
X10484231Y-14356379D01*
X10489846Y-14348756D01*
X10497445Y-14342700D01*
X10505733Y-14338696D01*
X10512126Y-14336644D01*
X10519041Y-14335160D01*
X10526985Y-14334181D01*
X10536462Y-14333643D01*
X10547382Y-14333483D01*
X10566083Y-14333474D01*
X10565298Y-14329346D01*
X10563222Y-14322786D01*
X10559929Y-14317732D01*
X10558974Y-14316804D01*
X10553967Y-14313954D01*
X10547304Y-14312418D01*
X10539507Y-14312205D01*
X10531097Y-14313323D01*
X10522596Y-14315778D01*
X10521385Y-14316246D01*
X10513650Y-14318744D01*
X10507377Y-14319369D01*
X10502284Y-14318096D01*
X10498087Y-14314897D01*
X10497277Y-14313958D01*
X10495362Y-14309791D01*
X10494992Y-14304613D01*
X10496113Y-14299386D01*
X10498371Y-14295404D01*
X10502515Y-14291738D01*
X10508480Y-14288113D01*
X10515563Y-14284886D01*
X10523066Y-14282415D01*
X10524540Y-14282046D01*
X10530849Y-14281019D01*
X10538744Y-14280401D01*
X10547302Y-14280204D01*
X10555602Y-14280439D01*
X10555602Y-14280439D01*
G37*
X10555602Y-14280439D02*
X10562721Y-14281118D01*
X10565131Y-14281537D01*
X10575924Y-14284889D01*
X10585420Y-14290061D01*
X10593331Y-14296831D01*
X10599366Y-14304972D01*
X10601818Y-14310043D01*
X10602568Y-14311971D01*
X10603184Y-14313825D01*
X10603683Y-14315869D01*
X10604079Y-14318368D01*
X10604388Y-14321586D01*
X10604625Y-14325786D01*
X10604806Y-14331232D01*
X10604945Y-14338188D01*
X10605058Y-14346919D01*
X10605161Y-14357688D01*
X10605256Y-14369351D01*
X10605671Y-14421104D01*
X10567416Y-14421104D01*
X10567416Y-14406618D01*
X10562654Y-14411255D01*
X10555256Y-14416779D01*
X10546336Y-14420695D01*
X10536438Y-14422873D01*
X10526107Y-14423182D01*
X10517886Y-14421994D01*
X10507266Y-14418488D01*
X10497963Y-14413238D01*
X10490301Y-14406480D01*
X10484603Y-14398452D01*
X10483984Y-14397246D01*
X10482344Y-14393660D01*
X10481299Y-14390468D01*
X10480717Y-14386913D01*
X10480469Y-14382236D01*
X10480424Y-14376945D01*
X10519964Y-14376945D01*
X10521184Y-14381949D01*
X10523876Y-14385913D01*
X10524357Y-14386326D01*
X10529141Y-14388809D01*
X10535336Y-14390199D01*
X10542010Y-14390388D01*
X10548234Y-14389264D01*
X10548494Y-14389179D01*
X10555689Y-14385690D01*
X10560904Y-14380790D01*
X10564004Y-14374649D01*
X10564876Y-14368462D01*
X10564876Y-14362684D01*
X10548684Y-14362712D01*
X10539515Y-14362929D01*
X10532539Y-14363617D01*
X10527435Y-14364880D01*
X10523884Y-14366823D01*
X10521563Y-14369553D01*
X10520503Y-14371975D01*
X10519964Y-14376945D01*
X10480424Y-14376945D01*
X10480421Y-14376654D01*
X10480474Y-14370506D01*
X10480722Y-14366171D01*
X10481303Y-14362923D01*
X10482353Y-14360038D01*
X10484007Y-14356788D01*
X10484231Y-14356379D01*
X10489846Y-14348756D01*
X10497445Y-14342700D01*
X10505733Y-14338696D01*
X10512126Y-14336644D01*
X10519041Y-14335160D01*
X10526985Y-14334181D01*
X10536462Y-14333643D01*
X10547382Y-14333483D01*
X10566083Y-14333474D01*
X10565298Y-14329346D01*
X10563222Y-14322786D01*
X10559929Y-14317732D01*
X10558974Y-14316804D01*
X10553967Y-14313954D01*
X10547304Y-14312418D01*
X10539507Y-14312205D01*
X10531097Y-14313323D01*
X10522596Y-14315778D01*
X10521385Y-14316246D01*
X10513650Y-14318744D01*
X10507377Y-14319369D01*
X10502284Y-14318096D01*
X10498087Y-14314897D01*
X10497277Y-14313958D01*
X10495362Y-14309791D01*
X10494992Y-14304613D01*
X10496113Y-14299386D01*
X10498371Y-14295404D01*
X10502515Y-14291738D01*
X10508480Y-14288113D01*
X10515563Y-14284886D01*
X10523066Y-14282415D01*
X10524540Y-14282046D01*
X10530849Y-14281019D01*
X10538744Y-14280401D01*
X10547302Y-14280204D01*
X10555602Y-14280439D01*
G36*
X10667402Y-14227527D02*
X10672263Y-14231032D01*
X10676189Y-14236729D01*
X10676319Y-14236980D01*
X10677280Y-14239001D01*
X10677999Y-14241040D01*
X10678509Y-14243493D01*
X10678846Y-14246756D01*
X10679046Y-14251224D01*
X10679144Y-14257292D01*
X10679174Y-14265358D01*
X10679176Y-14268965D01*
X10679176Y-14295357D01*
X10684644Y-14291183D01*
X10692766Y-14285968D01*
X10701340Y-14282582D01*
X10711108Y-14280766D01*
X10715550Y-14280419D01*
X10728075Y-14280844D01*
X10739508Y-14283546D01*
X10749984Y-14288579D01*
X10759634Y-14295996D01*
X10762793Y-14299114D01*
X10770841Y-14309198D01*
X10776684Y-14320357D01*
X10780372Y-14332725D01*
X10781955Y-14346433D01*
X10782027Y-14350505D01*
X10781070Y-14364452D01*
X10778175Y-14376916D01*
X10773232Y-14388175D01*
X10766133Y-14398508D01*
X10761095Y-14404076D01*
X10751314Y-14412475D01*
X10740940Y-14418529D01*
X10730119Y-14422190D01*
X10718995Y-14423411D01*
X10707714Y-14422145D01*
X10706481Y-14421854D01*
X10695852Y-14417975D01*
X10686416Y-14411992D01*
X10684199Y-14410106D01*
X10679176Y-14405568D01*
X10679176Y-14421104D01*
X10638471Y-14421104D01*
X10638738Y-14352045D01*
X10678675Y-14352045D01*
X10678803Y-14357727D01*
X10679359Y-14361980D01*
X10680587Y-14365907D01*
X10682730Y-14370611D01*
X10682808Y-14370771D01*
X10687785Y-14378533D01*
X10693929Y-14384272D01*
X10700962Y-14387875D01*
X10708608Y-14389234D01*
X10716589Y-14388237D01*
X10721721Y-14386322D01*
X10729726Y-14381267D01*
X10735742Y-14374642D01*
X10739748Y-14366480D01*
X10741727Y-14356812D01*
X10741952Y-14351889D01*
X10740925Y-14341536D01*
X10737772Y-14332517D01*
X10732443Y-14324699D01*
X10730756Y-14322909D01*
X10725134Y-14318089D01*
X10719582Y-14315263D01*
X10713246Y-14314057D01*
X10710291Y-14313944D01*
X10702139Y-14314894D01*
X10695129Y-14317930D01*
X10689111Y-14323161D01*
X10683937Y-14330695D01*
X10681901Y-14334744D01*
X10680110Y-14339228D01*
X10679114Y-14343604D01*
X10678714Y-14348939D01*
X10678675Y-14352045D01*
X10638738Y-14352045D01*
X10638821Y-14330616D01*
X10638890Y-14313270D01*
X10638956Y-14298281D01*
X10639026Y-14285467D01*
X10639105Y-14274646D01*
X10639199Y-14265635D01*
X10639312Y-14258252D01*
X10639451Y-14252314D01*
X10639622Y-14247639D01*
X10639830Y-14244045D01*
X10640080Y-14241349D01*
X10640378Y-14239368D01*
X10640730Y-14237921D01*
X10641142Y-14236824D01*
X10641619Y-14235896D01*
X10641740Y-14235684D01*
X10645784Y-14231011D01*
X10651364Y-14227626D01*
X10657630Y-14225955D01*
X10661224Y-14225937D01*
X10667402Y-14227527D01*
X10667402Y-14227527D01*
G37*
X10667402Y-14227527D02*
X10672263Y-14231032D01*
X10676189Y-14236729D01*
X10676319Y-14236980D01*
X10677280Y-14239001D01*
X10677999Y-14241040D01*
X10678509Y-14243493D01*
X10678846Y-14246756D01*
X10679046Y-14251224D01*
X10679144Y-14257292D01*
X10679174Y-14265358D01*
X10679176Y-14268965D01*
X10679176Y-14295357D01*
X10684644Y-14291183D01*
X10692766Y-14285968D01*
X10701340Y-14282582D01*
X10711108Y-14280766D01*
X10715550Y-14280419D01*
X10728075Y-14280844D01*
X10739508Y-14283546D01*
X10749984Y-14288579D01*
X10759634Y-14295996D01*
X10762793Y-14299114D01*
X10770841Y-14309198D01*
X10776684Y-14320357D01*
X10780372Y-14332725D01*
X10781955Y-14346433D01*
X10782027Y-14350505D01*
X10781070Y-14364452D01*
X10778175Y-14376916D01*
X10773232Y-14388175D01*
X10766133Y-14398508D01*
X10761095Y-14404076D01*
X10751314Y-14412475D01*
X10740940Y-14418529D01*
X10730119Y-14422190D01*
X10718995Y-14423411D01*
X10707714Y-14422145D01*
X10706481Y-14421854D01*
X10695852Y-14417975D01*
X10686416Y-14411992D01*
X10684199Y-14410106D01*
X10679176Y-14405568D01*
X10679176Y-14421104D01*
X10638471Y-14421104D01*
X10638738Y-14352045D01*
X10678675Y-14352045D01*
X10678803Y-14357727D01*
X10679359Y-14361980D01*
X10680587Y-14365907D01*
X10682730Y-14370611D01*
X10682808Y-14370771D01*
X10687785Y-14378533D01*
X10693929Y-14384272D01*
X10700962Y-14387875D01*
X10708608Y-14389234D01*
X10716589Y-14388237D01*
X10721721Y-14386322D01*
X10729726Y-14381267D01*
X10735742Y-14374642D01*
X10739748Y-14366480D01*
X10741727Y-14356812D01*
X10741952Y-14351889D01*
X10740925Y-14341536D01*
X10737772Y-14332517D01*
X10732443Y-14324699D01*
X10730756Y-14322909D01*
X10725134Y-14318089D01*
X10719582Y-14315263D01*
X10713246Y-14314057D01*
X10710291Y-14313944D01*
X10702139Y-14314894D01*
X10695129Y-14317930D01*
X10689111Y-14323161D01*
X10683937Y-14330695D01*
X10681901Y-14334744D01*
X10680110Y-14339228D01*
X10679114Y-14343604D01*
X10678714Y-14348939D01*
X10678675Y-14352045D01*
X10638738Y-14352045D01*
X10638821Y-14330616D01*
X10638890Y-14313270D01*
X10638956Y-14298281D01*
X10639026Y-14285467D01*
X10639105Y-14274646D01*
X10639199Y-14265635D01*
X10639312Y-14258252D01*
X10639451Y-14252314D01*
X10639622Y-14247639D01*
X10639830Y-14244045D01*
X10640080Y-14241349D01*
X10640378Y-14239368D01*
X10640730Y-14237921D01*
X10641142Y-14236824D01*
X10641619Y-14235896D01*
X10641740Y-14235684D01*
X10645784Y-14231011D01*
X10651364Y-14227626D01*
X10657630Y-14225955D01*
X10661224Y-14225937D01*
X10667402Y-14227527D01*
G36*
X10948219Y-14280663D02*
X10961348Y-14283016D01*
X10973254Y-14287569D01*
X10983990Y-14294339D01*
X10989602Y-14299194D01*
X10996129Y-14306416D01*
X11001089Y-14314216D01*
X11004619Y-14322987D01*
X11006855Y-14333121D01*
X11007934Y-14345009D01*
X11008084Y-14352206D01*
X11008106Y-14366494D01*
X10957941Y-14366494D01*
X10946934Y-14366517D01*
X10936764Y-14366583D01*
X10927699Y-14366688D01*
X10920011Y-14366825D01*
X10913970Y-14366990D01*
X10909847Y-14367177D01*
X10907911Y-14367382D01*
X10907797Y-14367446D01*
X10908691Y-14370120D01*
X10910935Y-14373789D01*
X10914005Y-14377741D01*
X10917373Y-14381260D01*
X10918980Y-14382616D01*
X10927240Y-14387371D01*
X10936402Y-14389839D01*
X10946194Y-14389987D01*
X10956343Y-14387779D01*
X10957273Y-14387460D01*
X10964853Y-14385721D01*
X10971534Y-14386008D01*
X10977045Y-14388171D01*
X10981118Y-14392064D01*
X10983482Y-14397538D01*
X10983976Y-14402129D01*
X10983696Y-14405644D01*
X10982523Y-14408376D01*
X10979956Y-14411332D01*
X10978896Y-14412359D01*
X10973041Y-14416449D01*
X10965275Y-14419657D01*
X10956099Y-14421895D01*
X10946015Y-14423079D01*
X10935522Y-14423120D01*
X10925124Y-14421931D01*
X10924382Y-14421794D01*
X10911706Y-14418178D01*
X10900276Y-14412490D01*
X10890298Y-14404929D01*
X10881974Y-14395690D01*
X10875508Y-14384969D01*
X10871104Y-14372963D01*
X10870325Y-14369669D01*
X10868455Y-14355531D01*
X10868833Y-14342053D01*
X10870008Y-14336097D01*
X10909046Y-14336097D01*
X10910272Y-14336468D01*
X10913772Y-14336783D01*
X10919283Y-14337030D01*
X10926540Y-14337199D01*
X10935277Y-14337279D01*
X10938256Y-14337284D01*
X10948067Y-14337253D01*
X10955580Y-14337150D01*
X10961032Y-14336964D01*
X10964665Y-14336680D01*
X10966718Y-14336287D01*
X10967431Y-14335769D01*
X10967438Y-14335696D01*
X10966709Y-14332740D01*
X10964929Y-14328728D01*
X10962595Y-14324617D01*
X10960208Y-14321362D01*
X10959673Y-14320805D01*
X10953266Y-14316327D01*
X10945837Y-14313852D01*
X10937885Y-14313352D01*
X10929908Y-14314795D01*
X10922404Y-14318151D01*
X10915873Y-14323390D01*
X10915791Y-14323476D01*
X10912504Y-14327659D01*
X10910098Y-14332063D01*
X10909057Y-14335781D01*
X10909046Y-14336097D01*
X10870008Y-14336097D01*
X10871325Y-14329421D01*
X10875799Y-14317822D01*
X10882122Y-14307443D01*
X10890161Y-14298469D01*
X10899784Y-14291088D01*
X10910857Y-14285486D01*
X10923248Y-14281849D01*
X10933814Y-14280493D01*
X10948219Y-14280663D01*
X10948219Y-14280663D01*
G37*
X10948219Y-14280663D02*
X10961348Y-14283016D01*
X10973254Y-14287569D01*
X10983990Y-14294339D01*
X10989602Y-14299194D01*
X10996129Y-14306416D01*
X11001089Y-14314216D01*
X11004619Y-14322987D01*
X11006855Y-14333121D01*
X11007934Y-14345009D01*
X11008084Y-14352206D01*
X11008106Y-14366494D01*
X10957941Y-14366494D01*
X10946934Y-14366517D01*
X10936764Y-14366583D01*
X10927699Y-14366688D01*
X10920011Y-14366825D01*
X10913970Y-14366990D01*
X10909847Y-14367177D01*
X10907911Y-14367382D01*
X10907797Y-14367446D01*
X10908691Y-14370120D01*
X10910935Y-14373789D01*
X10914005Y-14377741D01*
X10917373Y-14381260D01*
X10918980Y-14382616D01*
X10927240Y-14387371D01*
X10936402Y-14389839D01*
X10946194Y-14389987D01*
X10956343Y-14387779D01*
X10957273Y-14387460D01*
X10964853Y-14385721D01*
X10971534Y-14386008D01*
X10977045Y-14388171D01*
X10981118Y-14392064D01*
X10983482Y-14397538D01*
X10983976Y-14402129D01*
X10983696Y-14405644D01*
X10982523Y-14408376D01*
X10979956Y-14411332D01*
X10978896Y-14412359D01*
X10973041Y-14416449D01*
X10965275Y-14419657D01*
X10956099Y-14421895D01*
X10946015Y-14423079D01*
X10935522Y-14423120D01*
X10925124Y-14421931D01*
X10924382Y-14421794D01*
X10911706Y-14418178D01*
X10900276Y-14412490D01*
X10890298Y-14404929D01*
X10881974Y-14395690D01*
X10875508Y-14384969D01*
X10871104Y-14372963D01*
X10870325Y-14369669D01*
X10868455Y-14355531D01*
X10868833Y-14342053D01*
X10870008Y-14336097D01*
X10909046Y-14336097D01*
X10910272Y-14336468D01*
X10913772Y-14336783D01*
X10919283Y-14337030D01*
X10926540Y-14337199D01*
X10935277Y-14337279D01*
X10938256Y-14337284D01*
X10948067Y-14337253D01*
X10955580Y-14337150D01*
X10961032Y-14336964D01*
X10964665Y-14336680D01*
X10966718Y-14336287D01*
X10967431Y-14335769D01*
X10967438Y-14335696D01*
X10966709Y-14332740D01*
X10964929Y-14328728D01*
X10962595Y-14324617D01*
X10960208Y-14321362D01*
X10959673Y-14320805D01*
X10953266Y-14316327D01*
X10945837Y-14313852D01*
X10937885Y-14313352D01*
X10929908Y-14314795D01*
X10922404Y-14318151D01*
X10915873Y-14323390D01*
X10915791Y-14323476D01*
X10912504Y-14327659D01*
X10910098Y-14332063D01*
X10909057Y-14335781D01*
X10909046Y-14336097D01*
X10870008Y-14336097D01*
X10871325Y-14329421D01*
X10875799Y-14317822D01*
X10882122Y-14307443D01*
X10890161Y-14298469D01*
X10899784Y-14291088D01*
X10910857Y-14285486D01*
X10923248Y-14281849D01*
X10933814Y-14280493D01*
X10948219Y-14280663D01*
G36*
X11180808Y-14227858D02*
X11186728Y-14230976D01*
X11190599Y-14235248D01*
X11191464Y-14236913D01*
X11192110Y-14239158D01*
X11192578Y-14242387D01*
X11192914Y-14247003D01*
X11193160Y-14253406D01*
X11193334Y-14260708D01*
X11193777Y-14282674D01*
X11227816Y-14282674D01*
X11227816Y-14310614D01*
X11193413Y-14310614D01*
X11194161Y-14381946D01*
X11198308Y-14385650D01*
X11201094Y-14387890D01*
X11203601Y-14388995D01*
X11206534Y-14389005D01*
X11210595Y-14387959D01*
X11214617Y-14386573D01*
X11219000Y-14385097D01*
X11221959Y-14384502D01*
X11224430Y-14384720D01*
X11227297Y-14385665D01*
X11232398Y-14388723D01*
X11235971Y-14393136D01*
X11237614Y-14398302D01*
X11237579Y-14401042D01*
X11236085Y-14406342D01*
X11232914Y-14410857D01*
X11227757Y-14414932D01*
X11222334Y-14417937D01*
X11212343Y-14421640D01*
X11201905Y-14423261D01*
X11191730Y-14422703D01*
X11190152Y-14422400D01*
X11182303Y-14419778D01*
X11174706Y-14415535D01*
X11168044Y-14410163D01*
X11162999Y-14404151D01*
X11161736Y-14401976D01*
X11160334Y-14398717D01*
X11159203Y-14394814D01*
X11158318Y-14389988D01*
X11157654Y-14383958D01*
X11157187Y-14376442D01*
X11156890Y-14367160D01*
X11156739Y-14355830D01*
X11156706Y-14345856D01*
X11156696Y-14310614D01*
X11137646Y-14310614D01*
X11137646Y-14282674D01*
X11156539Y-14282674D01*
X11156935Y-14259078D01*
X11157331Y-14235483D01*
X11162075Y-14231138D01*
X11165351Y-14228471D01*
X11168336Y-14227186D01*
X11172284Y-14226808D01*
X11173505Y-14226799D01*
X11180808Y-14227858D01*
X11180808Y-14227858D01*
G37*
X11180808Y-14227858D02*
X11186728Y-14230976D01*
X11190599Y-14235248D01*
X11191464Y-14236913D01*
X11192110Y-14239158D01*
X11192578Y-14242387D01*
X11192914Y-14247003D01*
X11193160Y-14253406D01*
X11193334Y-14260708D01*
X11193777Y-14282674D01*
X11227816Y-14282674D01*
X11227816Y-14310614D01*
X11193413Y-14310614D01*
X11194161Y-14381946D01*
X11198308Y-14385650D01*
X11201094Y-14387890D01*
X11203601Y-14388995D01*
X11206534Y-14389005D01*
X11210595Y-14387959D01*
X11214617Y-14386573D01*
X11219000Y-14385097D01*
X11221959Y-14384502D01*
X11224430Y-14384720D01*
X11227297Y-14385665D01*
X11232398Y-14388723D01*
X11235971Y-14393136D01*
X11237614Y-14398302D01*
X11237579Y-14401042D01*
X11236085Y-14406342D01*
X11232914Y-14410857D01*
X11227757Y-14414932D01*
X11222334Y-14417937D01*
X11212343Y-14421640D01*
X11201905Y-14423261D01*
X11191730Y-14422703D01*
X11190152Y-14422400D01*
X11182303Y-14419778D01*
X11174706Y-14415535D01*
X11168044Y-14410163D01*
X11162999Y-14404151D01*
X11161736Y-14401976D01*
X11160334Y-14398717D01*
X11159203Y-14394814D01*
X11158318Y-14389988D01*
X11157654Y-14383958D01*
X11157187Y-14376442D01*
X11156890Y-14367160D01*
X11156739Y-14355830D01*
X11156706Y-14345856D01*
X11156696Y-14310614D01*
X11137646Y-14310614D01*
X11137646Y-14282674D01*
X11156539Y-14282674D01*
X11156935Y-14259078D01*
X11157331Y-14235483D01*
X11162075Y-14231138D01*
X11165351Y-14228471D01*
X11168336Y-14227186D01*
X11172284Y-14226808D01*
X11173505Y-14226799D01*
X11180808Y-14227858D01*
G36*
X11331537Y-14280863D02*
X11340837Y-14282229D01*
X11347196Y-14283891D01*
X11359055Y-14289159D01*
X11369651Y-14296421D01*
X11378728Y-14305396D01*
X11386033Y-14315801D01*
X11391311Y-14327354D01*
X11393542Y-14335379D01*
X11395239Y-14349025D01*
X11394609Y-14362175D01*
X11391794Y-14374609D01*
X11386936Y-14386109D01*
X11380177Y-14396455D01*
X11371657Y-14405428D01*
X11361519Y-14412807D01*
X11349905Y-14418375D01*
X11337771Y-14421760D01*
X11325749Y-14423311D01*
X11314296Y-14423095D01*
X11304921Y-14421691D01*
X11292407Y-14417958D01*
X11281017Y-14412089D01*
X11270977Y-14404323D01*
X11262509Y-14394901D01*
X11255839Y-14384061D01*
X11251191Y-14372043D01*
X11249127Y-14362114D01*
X11248646Y-14351889D01*
X11288776Y-14351889D01*
X11289799Y-14362280D01*
X11292821Y-14371230D01*
X11297766Y-14378627D01*
X11304561Y-14384361D01*
X11312898Y-14388243D01*
X11317530Y-14388971D01*
X11323463Y-14388842D01*
X11329648Y-14387967D01*
X11335034Y-14386457D01*
X11336619Y-14385756D01*
X11342551Y-14381586D01*
X11347887Y-14375765D01*
X11351872Y-14369175D01*
X11352842Y-14366755D01*
X11354203Y-14360527D01*
X11354733Y-14353014D01*
X11354434Y-14345330D01*
X11353306Y-14338590D01*
X11352816Y-14336946D01*
X11349953Y-14331128D01*
X11345618Y-14325308D01*
X11340517Y-14320294D01*
X11335358Y-14316892D01*
X11335180Y-14316810D01*
X11329139Y-14315067D01*
X11321796Y-14314480D01*
X11313558Y-14315253D01*
X11306737Y-14317774D01*
X11300665Y-14322340D01*
X11298030Y-14325107D01*
X11293128Y-14331995D01*
X11290140Y-14339590D01*
X11288859Y-14348486D01*
X11288776Y-14351889D01*
X11248646Y-14351889D01*
X11248484Y-14348446D01*
X11250178Y-14335404D01*
X11254060Y-14323207D01*
X11259979Y-14312074D01*
X11267787Y-14302224D01*
X11277335Y-14293877D01*
X11288472Y-14287251D01*
X11301049Y-14282566D01*
X11303842Y-14281853D01*
X11312046Y-14280628D01*
X11321609Y-14280314D01*
X11331537Y-14280863D01*
X11331537Y-14280863D01*
G37*
X11331537Y-14280863D02*
X11340837Y-14282229D01*
X11347196Y-14283891D01*
X11359055Y-14289159D01*
X11369651Y-14296421D01*
X11378728Y-14305396D01*
X11386033Y-14315801D01*
X11391311Y-14327354D01*
X11393542Y-14335379D01*
X11395239Y-14349025D01*
X11394609Y-14362175D01*
X11391794Y-14374609D01*
X11386936Y-14386109D01*
X11380177Y-14396455D01*
X11371657Y-14405428D01*
X11361519Y-14412807D01*
X11349905Y-14418375D01*
X11337771Y-14421760D01*
X11325749Y-14423311D01*
X11314296Y-14423095D01*
X11304921Y-14421691D01*
X11292407Y-14417958D01*
X11281017Y-14412089D01*
X11270977Y-14404323D01*
X11262509Y-14394901D01*
X11255839Y-14384061D01*
X11251191Y-14372043D01*
X11249127Y-14362114D01*
X11248646Y-14351889D01*
X11288776Y-14351889D01*
X11289799Y-14362280D01*
X11292821Y-14371230D01*
X11297766Y-14378627D01*
X11304561Y-14384361D01*
X11312898Y-14388243D01*
X11317530Y-14388971D01*
X11323463Y-14388842D01*
X11329648Y-14387967D01*
X11335034Y-14386457D01*
X11336619Y-14385756D01*
X11342551Y-14381586D01*
X11347887Y-14375765D01*
X11351872Y-14369175D01*
X11352842Y-14366755D01*
X11354203Y-14360527D01*
X11354733Y-14353014D01*
X11354434Y-14345330D01*
X11353306Y-14338590D01*
X11352816Y-14336946D01*
X11349953Y-14331128D01*
X11345618Y-14325308D01*
X11340517Y-14320294D01*
X11335358Y-14316892D01*
X11335180Y-14316810D01*
X11329139Y-14315067D01*
X11321796Y-14314480D01*
X11313558Y-14315253D01*
X11306737Y-14317774D01*
X11300665Y-14322340D01*
X11298030Y-14325107D01*
X11293128Y-14331995D01*
X11290140Y-14339590D01*
X11288859Y-14348486D01*
X11288776Y-14351889D01*
X11248646Y-14351889D01*
X11248484Y-14348446D01*
X11250178Y-14335404D01*
X11254060Y-14323207D01*
X11259979Y-14312074D01*
X11267787Y-14302224D01*
X11277335Y-14293877D01*
X11288472Y-14287251D01*
X11301049Y-14282566D01*
X11303842Y-14281853D01*
X11312046Y-14280628D01*
X11321609Y-14280314D01*
X11331537Y-14280863D01*
G36*
X10844276Y-14421104D02*
X10804906Y-14421104D01*
X10804906Y-14282674D01*
X10844276Y-14282674D01*
X10844276Y-14421104D01*
X10844276Y-14421104D01*
G37*
X10844276Y-14421104D02*
X10804906Y-14421104D01*
X10804906Y-14282674D01*
X10844276Y-14282674D01*
X10844276Y-14421104D01*
G36*
X11116610Y-14281841D02*
X11121480Y-14284892D01*
X11124648Y-14289467D01*
X11125738Y-14293688D01*
X11125583Y-14299036D01*
X11123596Y-14303407D01*
X11119600Y-14306972D01*
X11113413Y-14309902D01*
X11106472Y-14311977D01*
X11095108Y-14315798D01*
X11085801Y-14321084D01*
X11078513Y-14327866D01*
X11073203Y-14336177D01*
X11071494Y-14340294D01*
X11070675Y-14342756D01*
X11070023Y-14345261D01*
X11069513Y-14348148D01*
X11069119Y-14351754D01*
X11068815Y-14356418D01*
X11068576Y-14362477D01*
X11068376Y-14370269D01*
X11068189Y-14380132D01*
X11068114Y-14384591D01*
X11067515Y-14421104D01*
X11028426Y-14421104D01*
X11028426Y-14282674D01*
X11067796Y-14282674D01*
X11067796Y-14299682D01*
X11071924Y-14295773D01*
X11080969Y-14288896D01*
X11091802Y-14283624D01*
X11094326Y-14282721D01*
X11102780Y-14280667D01*
X11110293Y-14280403D01*
X11116610Y-14281841D01*
X11116610Y-14281841D01*
G37*
X11116610Y-14281841D02*
X11121480Y-14284892D01*
X11124648Y-14289467D01*
X11125738Y-14293688D01*
X11125583Y-14299036D01*
X11123596Y-14303407D01*
X11119600Y-14306972D01*
X11113413Y-14309902D01*
X11106472Y-14311977D01*
X11095108Y-14315798D01*
X11085801Y-14321084D01*
X11078513Y-14327866D01*
X11073203Y-14336177D01*
X11071494Y-14340294D01*
X11070675Y-14342756D01*
X11070023Y-14345261D01*
X11069513Y-14348148D01*
X11069119Y-14351754D01*
X11068815Y-14356418D01*
X11068576Y-14362477D01*
X11068376Y-14370269D01*
X11068189Y-14380132D01*
X11068114Y-14384591D01*
X11067515Y-14421104D01*
X11028426Y-14421104D01*
X11028426Y-14282674D01*
X11067796Y-14282674D01*
X11067796Y-14299682D01*
X11071924Y-14295773D01*
X11080969Y-14288896D01*
X11091802Y-14283624D01*
X11094326Y-14282721D01*
X11102780Y-14280667D01*
X11110293Y-14280403D01*
X11116610Y-14281841D01*
G36*
X10489946Y-14278229D02*
X10489311Y-14278864D01*
X10488676Y-14278229D01*
X10489311Y-14277594D01*
X10489946Y-14278229D01*
X10489946Y-14278229D01*
G37*
X10489946Y-14278229D02*
X10489311Y-14278864D01*
X10488676Y-14278229D01*
X10489311Y-14277594D01*
X10489946Y-14278229D01*
G36*
X10830518Y-14227087D02*
X10834942Y-14228469D01*
X10840869Y-14232764D01*
X10844985Y-14238277D01*
X10847290Y-14244549D01*
X10847786Y-14251123D01*
X10846473Y-14257541D01*
X10843353Y-14263346D01*
X10838427Y-14268080D01*
X10834851Y-14270106D01*
X10827295Y-14272201D01*
X10819570Y-14271818D01*
X10814197Y-14270046D01*
X10808523Y-14266223D01*
X10804565Y-14261007D01*
X10802324Y-14254877D01*
X10801802Y-14248312D01*
X10803000Y-14241794D01*
X10805919Y-14235801D01*
X10810560Y-14230814D01*
X10814088Y-14228548D01*
X10818823Y-14227083D01*
X10824692Y-14226594D01*
X10830518Y-14227087D01*
X10830518Y-14227087D01*
G37*
X10830518Y-14227087D02*
X10834942Y-14228469D01*
X10840869Y-14232764D01*
X10844985Y-14238277D01*
X10847290Y-14244549D01*
X10847786Y-14251123D01*
X10846473Y-14257541D01*
X10843353Y-14263346D01*
X10838427Y-14268080D01*
X10834851Y-14270106D01*
X10827295Y-14272201D01*
X10819570Y-14271818D01*
X10814197Y-14270046D01*
X10808523Y-14266223D01*
X10804565Y-14261007D01*
X10802324Y-14254877D01*
X10801802Y-14248312D01*
X10803000Y-14241794D01*
X10805919Y-14235801D01*
X10810560Y-14230814D01*
X10814088Y-14228548D01*
X10818823Y-14227083D01*
X10824692Y-14226594D01*
X10830518Y-14227087D01*
G36*
X10913459Y-13649838D02*
X10926327Y-13650216D01*
X10938066Y-13650808D01*
X10948075Y-13651609D01*
X10950956Y-13651926D01*
X10984541Y-13657211D01*
X11018025Y-13664963D01*
X11051245Y-13675110D01*
X11084041Y-13687580D01*
X11116252Y-13702301D01*
X11147714Y-13719201D01*
X11178268Y-13738208D01*
X11207752Y-13759249D01*
X11228451Y-13775807D01*
X11242514Y-13788140D01*
X11256423Y-13801365D01*
X11269876Y-13815141D01*
X11282569Y-13829127D01*
X11294200Y-13842981D01*
X11304465Y-13856362D01*
X11313062Y-13868929D01*
X11317195Y-13875764D01*
X11320091Y-13881050D01*
X11321857Y-13884999D01*
X11322756Y-13888393D01*
X11323054Y-13892018D01*
X11323066Y-13893197D01*
X11322116Y-13901024D01*
X11319303Y-13910344D01*
X11314681Y-13920985D01*
X11313775Y-13922803D01*
X11308025Y-13932752D01*
X11300368Y-13943815D01*
X11291042Y-13955742D01*
X11280283Y-13968282D01*
X11268328Y-13981187D01*
X11255415Y-13994207D01*
X11241781Y-14007092D01*
X11227661Y-14019593D01*
X11213294Y-14031460D01*
X11203103Y-14039342D01*
X11172098Y-14061146D01*
X11140437Y-14080503D01*
X11108128Y-14097412D01*
X11075178Y-14111867D01*
X11041593Y-14123868D01*
X11007382Y-14133410D01*
X10972551Y-14140490D01*
X10959846Y-14142438D01*
X10952538Y-14143231D01*
X10943192Y-14143889D01*
X10932307Y-14144406D01*
X10920382Y-14144776D01*
X10907915Y-14144995D01*
X10895406Y-14145057D01*
X10883353Y-14144957D01*
X10872256Y-14144689D01*
X10862612Y-14144248D01*
X10854921Y-14143628D01*
X10854470Y-14143578D01*
X10819685Y-14138357D01*
X10785393Y-14130655D01*
X10751641Y-14120495D01*
X10718477Y-14107897D01*
X10685946Y-14092881D01*
X10654097Y-14075468D01*
X10622975Y-14055680D01*
X10592628Y-14033535D01*
X10576941Y-14020906D01*
X10569952Y-14014845D01*
X10561866Y-14007424D01*
X10553128Y-13999088D01*
X10544183Y-13990281D01*
X10535478Y-13981446D01*
X10527458Y-13973028D01*
X10520568Y-13965470D01*
X10516219Y-13960402D01*
X10509484Y-13951880D01*
X10503042Y-13943057D01*
X10497120Y-13934300D01*
X10491946Y-13925977D01*
X10487749Y-13918456D01*
X10486696Y-13916221D01*
X10558526Y-13916221D01*
X10559385Y-13917922D01*
X10561787Y-13921117D01*
X10565469Y-13925514D01*
X10570168Y-13930820D01*
X10575620Y-13936744D01*
X10581561Y-13942994D01*
X10587730Y-13949276D01*
X10592952Y-13954421D01*
X10618844Y-13977736D01*
X10646349Y-13999111D01*
X10673089Y-14017049D01*
X10678229Y-14020210D01*
X10684013Y-14023697D01*
X10690009Y-14027260D01*
X10695786Y-14030646D01*
X10700913Y-14033604D01*
X10704961Y-14035883D01*
X10707497Y-14037231D01*
X10708084Y-14037483D01*
X10707681Y-14036578D01*
X10706526Y-14034616D01*
X11099546Y-14034616D01*
X11100570Y-14034318D01*
X11103419Y-14032868D01*
X11107761Y-14030458D01*
X11113265Y-14027275D01*
X11119598Y-14023509D01*
X11126428Y-14019350D01*
X11127486Y-14018697D01*
X11146927Y-14006011D01*
X11166128Y-13992209D01*
X11184624Y-13977668D01*
X11201948Y-13962768D01*
X11217634Y-13947886D01*
X11227888Y-13937135D01*
X11234752Y-13929502D01*
X11239983Y-13923497D01*
X11243723Y-13918933D01*
X11246114Y-13915621D01*
X11247299Y-13913375D01*
X11247420Y-13912006D01*
X11247196Y-13911656D01*
X11245487Y-13910754D01*
X11241723Y-13909244D01*
X11236279Y-13907250D01*
X11229531Y-13904898D01*
X11221856Y-13902313D01*
X11213630Y-13899622D01*
X11205228Y-13896949D01*
X11197027Y-13894420D01*
X11189403Y-13892160D01*
X11185007Y-13890915D01*
X11179631Y-13889475D01*
X11173136Y-13887810D01*
X11165937Y-13886019D01*
X11158445Y-13884197D01*
X11151074Y-13882444D01*
X11144239Y-13880856D01*
X11138351Y-13879532D01*
X11133825Y-13878568D01*
X11131074Y-13878062D01*
X11130430Y-13878028D01*
X11130465Y-13879280D01*
X11130775Y-13882396D01*
X11131294Y-13886723D01*
X11131341Y-13887089D01*
X11132012Y-13894640D01*
X11132379Y-13903944D01*
X11132451Y-13914233D01*
X11132236Y-13924738D01*
X11131744Y-13934692D01*
X11130984Y-13943327D01*
X11130648Y-13945959D01*
X11126409Y-13968341D01*
X11120138Y-13989642D01*
X11111645Y-14010454D01*
X11106459Y-14020950D01*
X11103758Y-14026156D01*
X11101551Y-14030475D01*
X11100070Y-14033449D01*
X11099546Y-14034616D01*
X10706526Y-14034616D01*
X10706278Y-14034195D01*
X10705359Y-14032718D01*
X10698488Y-14020586D01*
X10691985Y-14006720D01*
X10686189Y-13991926D01*
X10681439Y-13977010D01*
X10680564Y-13973776D01*
X10678356Y-13965067D01*
X10676653Y-13957552D01*
X10675391Y-13950668D01*
X10674506Y-13943851D01*
X10673935Y-13936536D01*
X10673614Y-13928159D01*
X10673479Y-13918155D01*
X10673461Y-13910937D01*
X10673454Y-13901560D01*
X10673416Y-13894425D01*
X10673320Y-13889234D01*
X10673141Y-13885688D01*
X10672851Y-13883490D01*
X10672426Y-13882340D01*
X10671838Y-13881942D01*
X10671062Y-13881997D01*
X10670921Y-13882027D01*
X10661451Y-13884184D01*
X10651238Y-13886616D01*
X10641043Y-13889132D01*
X10631632Y-13891544D01*
X10623766Y-13893662D01*
X10622255Y-13894088D01*
X10614653Y-13896328D01*
X10606410Y-13898879D01*
X10597868Y-13901624D01*
X10589371Y-13904443D01*
X10581261Y-13907218D01*
X10573882Y-13909828D01*
X10567577Y-13912155D01*
X10562687Y-13914079D01*
X10559557Y-13915482D01*
X10558526Y-13916221D01*
X10486696Y-13916221D01*
X10484757Y-13912104D01*
X10483197Y-13907289D01*
X10483174Y-13907167D01*
X10482999Y-13900684D01*
X10484471Y-13892776D01*
X10487450Y-13883821D01*
X10491796Y-13874202D01*
X10497369Y-13864297D01*
X10500914Y-13858856D01*
X10508400Y-13848604D01*
X10512276Y-13843764D01*
X10587896Y-13843764D01*
X10587979Y-13843920D01*
X10589312Y-13843752D01*
X10592472Y-13842893D01*
X10596889Y-13841503D01*
X10599214Y-13840721D01*
X10625692Y-13832409D01*
X10654304Y-13824865D01*
X10684753Y-13818127D01*
X10716739Y-13812233D01*
X10749964Y-13807224D01*
X10784129Y-13803137D01*
X10818936Y-13800012D01*
X10854086Y-13797886D01*
X10889280Y-13796800D01*
X10924220Y-13796791D01*
X10935438Y-13797026D01*
X10944389Y-13797300D01*
X10952484Y-13797623D01*
X10959382Y-13797974D01*
X10964743Y-13798335D01*
X10968226Y-13798685D01*
X10969485Y-13798989D01*
X10969120Y-13799945D01*
X10968347Y-13800074D01*
X10966408Y-13800616D01*
X10962902Y-13802051D01*
X10958512Y-13804094D01*
X10957504Y-13804593D01*
X10946915Y-13811266D01*
X10937910Y-13819759D01*
X10930669Y-13829776D01*
X10925373Y-13841021D01*
X10922200Y-13853198D01*
X10921306Y-13864209D01*
X10922515Y-13876996D01*
X10926002Y-13889017D01*
X10931564Y-13900032D01*
X10938993Y-13909798D01*
X10948084Y-13918076D01*
X10958631Y-13924623D01*
X10970428Y-13929199D01*
X10978261Y-13930937D01*
X10985548Y-13931490D01*
X10994035Y-13931155D01*
X11002567Y-13930000D01*
X11005566Y-13929363D01*
X11013398Y-13926672D01*
X11021753Y-13922409D01*
X11029722Y-13917100D01*
X11035900Y-13911776D01*
X11043906Y-13902101D01*
X11049775Y-13891453D01*
X11053548Y-13880132D01*
X11055267Y-13868443D01*
X11054974Y-13856685D01*
X11052710Y-13845162D01*
X11048517Y-13834175D01*
X11042435Y-13824027D01*
X11034506Y-13815019D01*
X11024773Y-13807453D01*
X11021305Y-13805398D01*
X11013821Y-13801266D01*
X11020806Y-13801952D01*
X11051103Y-13805371D01*
X11080784Y-13809594D01*
X11109507Y-13814553D01*
X11136928Y-13820181D01*
X11162708Y-13826411D01*
X11186503Y-13833175D01*
X11197911Y-13836858D01*
X11203758Y-13838804D01*
X11208739Y-13840411D01*
X11212359Y-13841522D01*
X11214122Y-13841980D01*
X11214176Y-13841984D01*
X11214642Y-13841157D01*
X11213420Y-13838825D01*
X11210686Y-13835209D01*
X11206614Y-13830530D01*
X11201379Y-13825012D01*
X11198606Y-13822229D01*
X11180023Y-13805345D01*
X11159279Y-13789210D01*
X11136684Y-13773992D01*
X11112549Y-13759857D01*
X11087186Y-13746975D01*
X11060904Y-13735511D01*
X11034017Y-13725634D01*
X11006833Y-13717510D01*
X11001583Y-13716159D01*
X10970662Y-13709665D01*
X10939255Y-13705496D01*
X10907576Y-13703628D01*
X10875835Y-13704032D01*
X10844246Y-13706683D01*
X10813019Y-13711555D01*
X10782367Y-13718621D01*
X10752502Y-13727855D01*
X10723637Y-13739230D01*
X10695982Y-13752720D01*
X10692511Y-13754614D01*
X10667264Y-13769819D01*
X10643895Y-13786471D01*
X10622550Y-13804461D01*
X10609895Y-13816751D01*
X10603922Y-13823057D01*
X10598572Y-13829012D01*
X10594069Y-13834339D01*
X10590640Y-13838759D01*
X10588507Y-13841994D01*
X10587896Y-13843764D01*
X10512276Y-13843764D01*
X10517546Y-13837185D01*
X10527997Y-13824977D01*
X10539396Y-13812355D01*
X10551386Y-13799697D01*
X10563610Y-13787379D01*
X10575712Y-13775779D01*
X10587336Y-13765272D01*
X10597896Y-13756417D01*
X10607027Y-13749369D01*
X10617501Y-13741702D01*
X10628714Y-13733831D01*
X10640061Y-13726168D01*
X10650936Y-13719126D01*
X10660735Y-13713118D01*
X10664571Y-13710896D01*
X10695258Y-13694982D01*
X10726999Y-13681368D01*
X10759722Y-13670077D01*
X10793357Y-13661130D01*
X10827834Y-13654551D01*
X10853166Y-13651289D01*
X10862685Y-13650540D01*
X10874074Y-13650024D01*
X10886732Y-13649738D01*
X10900060Y-13649677D01*
X10913459Y-13649838D01*
X10913459Y-13649838D01*
G37*
X10913459Y-13649838D02*
X10926327Y-13650216D01*
X10938066Y-13650808D01*
X10948075Y-13651609D01*
X10950956Y-13651926D01*
X10984541Y-13657211D01*
X11018025Y-13664963D01*
X11051245Y-13675110D01*
X11084041Y-13687580D01*
X11116252Y-13702301D01*
X11147714Y-13719201D01*
X11178268Y-13738208D01*
X11207752Y-13759249D01*
X11228451Y-13775807D01*
X11242514Y-13788140D01*
X11256423Y-13801365D01*
X11269876Y-13815141D01*
X11282569Y-13829127D01*
X11294200Y-13842981D01*
X11304465Y-13856362D01*
X11313062Y-13868929D01*
X11317195Y-13875764D01*
X11320091Y-13881050D01*
X11321857Y-13884999D01*
X11322756Y-13888393D01*
X11323054Y-13892018D01*
X11323066Y-13893197D01*
X11322116Y-13901024D01*
X11319303Y-13910344D01*
X11314681Y-13920985D01*
X11313775Y-13922803D01*
X11308025Y-13932752D01*
X11300368Y-13943815D01*
X11291042Y-13955742D01*
X11280283Y-13968282D01*
X11268328Y-13981187D01*
X11255415Y-13994207D01*
X11241781Y-14007092D01*
X11227661Y-14019593D01*
X11213294Y-14031460D01*
X11203103Y-14039342D01*
X11172098Y-14061146D01*
X11140437Y-14080503D01*
X11108128Y-14097412D01*
X11075178Y-14111867D01*
X11041593Y-14123868D01*
X11007382Y-14133410D01*
X10972551Y-14140490D01*
X10959846Y-14142438D01*
X10952538Y-14143231D01*
X10943192Y-14143889D01*
X10932307Y-14144406D01*
X10920382Y-14144776D01*
X10907915Y-14144995D01*
X10895406Y-14145057D01*
X10883353Y-14144957D01*
X10872256Y-14144689D01*
X10862612Y-14144248D01*
X10854921Y-14143628D01*
X10854470Y-14143578D01*
X10819685Y-14138357D01*
X10785393Y-14130655D01*
X10751641Y-14120495D01*
X10718477Y-14107897D01*
X10685946Y-14092881D01*
X10654097Y-14075468D01*
X10622975Y-14055680D01*
X10592628Y-14033535D01*
X10576941Y-14020906D01*
X10569952Y-14014845D01*
X10561866Y-14007424D01*
X10553128Y-13999088D01*
X10544183Y-13990281D01*
X10535478Y-13981446D01*
X10527458Y-13973028D01*
X10520568Y-13965470D01*
X10516219Y-13960402D01*
X10509484Y-13951880D01*
X10503042Y-13943057D01*
X10497120Y-13934300D01*
X10491946Y-13925977D01*
X10487749Y-13918456D01*
X10486696Y-13916221D01*
X10558526Y-13916221D01*
X10559385Y-13917922D01*
X10561787Y-13921117D01*
X10565469Y-13925514D01*
X10570168Y-13930820D01*
X10575620Y-13936744D01*
X10581561Y-13942994D01*
X10587730Y-13949276D01*
X10592952Y-13954421D01*
X10618844Y-13977736D01*
X10646349Y-13999111D01*
X10673089Y-14017049D01*
X10678229Y-14020210D01*
X10684013Y-14023697D01*
X10690009Y-14027260D01*
X10695786Y-14030646D01*
X10700913Y-14033604D01*
X10704961Y-14035883D01*
X10707497Y-14037231D01*
X10708084Y-14037483D01*
X10707681Y-14036578D01*
X10706526Y-14034616D01*
X11099546Y-14034616D01*
X11100570Y-14034318D01*
X11103419Y-14032868D01*
X11107761Y-14030458D01*
X11113265Y-14027275D01*
X11119598Y-14023509D01*
X11126428Y-14019350D01*
X11127486Y-14018697D01*
X11146927Y-14006011D01*
X11166128Y-13992209D01*
X11184624Y-13977668D01*
X11201948Y-13962768D01*
X11217634Y-13947886D01*
X11227888Y-13937135D01*
X11234752Y-13929502D01*
X11239983Y-13923497D01*
X11243723Y-13918933D01*
X11246114Y-13915621D01*
X11247299Y-13913375D01*
X11247420Y-13912006D01*
X11247196Y-13911656D01*
X11245487Y-13910754D01*
X11241723Y-13909244D01*
X11236279Y-13907250D01*
X11229531Y-13904898D01*
X11221856Y-13902313D01*
X11213630Y-13899622D01*
X11205228Y-13896949D01*
X11197027Y-13894420D01*
X11189403Y-13892160D01*
X11185007Y-13890915D01*
X11179631Y-13889475D01*
X11173136Y-13887810D01*
X11165937Y-13886019D01*
X11158445Y-13884197D01*
X11151074Y-13882444D01*
X11144239Y-13880856D01*
X11138351Y-13879532D01*
X11133825Y-13878568D01*
X11131074Y-13878062D01*
X11130430Y-13878028D01*
X11130465Y-13879280D01*
X11130775Y-13882396D01*
X11131294Y-13886723D01*
X11131341Y-13887089D01*
X11132012Y-13894640D01*
X11132379Y-13903944D01*
X11132451Y-13914233D01*
X11132236Y-13924738D01*
X11131744Y-13934692D01*
X11130984Y-13943327D01*
X11130648Y-13945959D01*
X11126409Y-13968341D01*
X11120138Y-13989642D01*
X11111645Y-14010454D01*
X11106459Y-14020950D01*
X11103758Y-14026156D01*
X11101551Y-14030475D01*
X11100070Y-14033449D01*
X11099546Y-14034616D01*
X10706526Y-14034616D01*
X10706278Y-14034195D01*
X10705359Y-14032718D01*
X10698488Y-14020586D01*
X10691985Y-14006720D01*
X10686189Y-13991926D01*
X10681439Y-13977010D01*
X10680564Y-13973776D01*
X10678356Y-13965067D01*
X10676653Y-13957552D01*
X10675391Y-13950668D01*
X10674506Y-13943851D01*
X10673935Y-13936536D01*
X10673614Y-13928159D01*
X10673479Y-13918155D01*
X10673461Y-13910937D01*
X10673454Y-13901560D01*
X10673416Y-13894425D01*
X10673320Y-13889234D01*
X10673141Y-13885688D01*
X10672851Y-13883490D01*
X10672426Y-13882340D01*
X10671838Y-13881942D01*
X10671062Y-13881997D01*
X10670921Y-13882027D01*
X10661451Y-13884184D01*
X10651238Y-13886616D01*
X10641043Y-13889132D01*
X10631632Y-13891544D01*
X10623766Y-13893662D01*
X10622255Y-13894088D01*
X10614653Y-13896328D01*
X10606410Y-13898879D01*
X10597868Y-13901624D01*
X10589371Y-13904443D01*
X10581261Y-13907218D01*
X10573882Y-13909828D01*
X10567577Y-13912155D01*
X10562687Y-13914079D01*
X10559557Y-13915482D01*
X10558526Y-13916221D01*
X10486696Y-13916221D01*
X10484757Y-13912104D01*
X10483197Y-13907289D01*
X10483174Y-13907167D01*
X10482999Y-13900684D01*
X10484471Y-13892776D01*
X10487450Y-13883821D01*
X10491796Y-13874202D01*
X10497369Y-13864297D01*
X10500914Y-13858856D01*
X10508400Y-13848604D01*
X10512276Y-13843764D01*
X10587896Y-13843764D01*
X10587979Y-13843920D01*
X10589312Y-13843752D01*
X10592472Y-13842893D01*
X10596889Y-13841503D01*
X10599214Y-13840721D01*
X10625692Y-13832409D01*
X10654304Y-13824865D01*
X10684753Y-13818127D01*
X10716739Y-13812233D01*
X10749964Y-13807224D01*
X10784129Y-13803137D01*
X10818936Y-13800012D01*
X10854086Y-13797886D01*
X10889280Y-13796800D01*
X10924220Y-13796791D01*
X10935438Y-13797026D01*
X10944389Y-13797300D01*
X10952484Y-13797623D01*
X10959382Y-13797974D01*
X10964743Y-13798335D01*
X10968226Y-13798685D01*
X10969485Y-13798989D01*
X10969120Y-13799945D01*
X10968347Y-13800074D01*
X10966408Y-13800616D01*
X10962902Y-13802051D01*
X10958512Y-13804094D01*
X10957504Y-13804593D01*
X10946915Y-13811266D01*
X10937910Y-13819759D01*
X10930669Y-13829776D01*
X10925373Y-13841021D01*
X10922200Y-13853198D01*
X10921306Y-13864209D01*
X10922515Y-13876996D01*
X10926002Y-13889017D01*
X10931564Y-13900032D01*
X10938993Y-13909798D01*
X10948084Y-13918076D01*
X10958631Y-13924623D01*
X10970428Y-13929199D01*
X10978261Y-13930937D01*
X10985548Y-13931490D01*
X10994035Y-13931155D01*
X11002567Y-13930000D01*
X11005566Y-13929363D01*
X11013398Y-13926672D01*
X11021753Y-13922409D01*
X11029722Y-13917100D01*
X11035900Y-13911776D01*
X11043906Y-13902101D01*
X11049775Y-13891453D01*
X11053548Y-13880132D01*
X11055267Y-13868443D01*
X11054974Y-13856685D01*
X11052710Y-13845162D01*
X11048517Y-13834175D01*
X11042435Y-13824027D01*
X11034506Y-13815019D01*
X11024773Y-13807453D01*
X11021305Y-13805398D01*
X11013821Y-13801266D01*
X11020806Y-13801952D01*
X11051103Y-13805371D01*
X11080784Y-13809594D01*
X11109507Y-13814553D01*
X11136928Y-13820181D01*
X11162708Y-13826411D01*
X11186503Y-13833175D01*
X11197911Y-13836858D01*
X11203758Y-13838804D01*
X11208739Y-13840411D01*
X11212359Y-13841522D01*
X11214122Y-13841980D01*
X11214176Y-13841984D01*
X11214642Y-13841157D01*
X11213420Y-13838825D01*
X11210686Y-13835209D01*
X11206614Y-13830530D01*
X11201379Y-13825012D01*
X11198606Y-13822229D01*
X11180023Y-13805345D01*
X11159279Y-13789210D01*
X11136684Y-13773992D01*
X11112549Y-13759857D01*
X11087186Y-13746975D01*
X11060904Y-13735511D01*
X11034017Y-13725634D01*
X11006833Y-13717510D01*
X11001583Y-13716159D01*
X10970662Y-13709665D01*
X10939255Y-13705496D01*
X10907576Y-13703628D01*
X10875835Y-13704032D01*
X10844246Y-13706683D01*
X10813019Y-13711555D01*
X10782367Y-13718621D01*
X10752502Y-13727855D01*
X10723637Y-13739230D01*
X10695982Y-13752720D01*
X10692511Y-13754614D01*
X10667264Y-13769819D01*
X10643895Y-13786471D01*
X10622550Y-13804461D01*
X10609895Y-13816751D01*
X10603922Y-13823057D01*
X10598572Y-13829012D01*
X10594069Y-13834339D01*
X10590640Y-13838759D01*
X10588507Y-13841994D01*
X10587896Y-13843764D01*
X10512276Y-13843764D01*
X10517546Y-13837185D01*
X10527997Y-13824977D01*
X10539396Y-13812355D01*
X10551386Y-13799697D01*
X10563610Y-13787379D01*
X10575712Y-13775779D01*
X10587336Y-13765272D01*
X10597896Y-13756417D01*
X10607027Y-13749369D01*
X10617501Y-13741702D01*
X10628714Y-13733831D01*
X10640061Y-13726168D01*
X10650936Y-13719126D01*
X10660735Y-13713118D01*
X10664571Y-13710896D01*
X10695258Y-13694982D01*
X10726999Y-13681368D01*
X10759722Y-13670077D01*
X10793357Y-13661130D01*
X10827834Y-13654551D01*
X10853166Y-13651289D01*
X10862685Y-13650540D01*
X10874074Y-13650024D01*
X10886732Y-13649738D01*
X10900060Y-13649677D01*
X10913459Y-13649838D01*
G36*
X11366605Y-13728799D02*
X11372914Y-13730353D01*
X11378296Y-13733322D01*
X11383495Y-13738016D01*
X11384553Y-13739162D01*
X11390070Y-13746993D01*
X11393177Y-13755514D01*
X11393829Y-13764540D01*
X11392411Y-13772511D01*
X11388692Y-13781054D01*
X11383133Y-13788106D01*
X11376089Y-13793451D01*
X11367914Y-13796875D01*
X11358964Y-13798162D01*
X11351192Y-13797452D01*
X11342760Y-13794601D01*
X11335682Y-13789909D01*
X11330081Y-13783757D01*
X11326081Y-13776523D01*
X11323807Y-13768586D01*
X11323382Y-13760326D01*
X11324930Y-13752121D01*
X11328574Y-13744351D01*
X11332280Y-13739544D01*
X11337698Y-13734328D01*
X11342958Y-13730952D01*
X11348849Y-13729081D01*
X11356157Y-13728381D01*
X11358626Y-13728349D01*
X11366605Y-13728799D01*
X11366605Y-13728799D01*
G37*
X11366605Y-13728799D02*
X11372914Y-13730353D01*
X11378296Y-13733322D01*
X11383495Y-13738016D01*
X11384553Y-13739162D01*
X11390070Y-13746993D01*
X11393177Y-13755514D01*
X11393829Y-13764540D01*
X11392411Y-13772511D01*
X11388692Y-13781054D01*
X11383133Y-13788106D01*
X11376089Y-13793451D01*
X11367914Y-13796875D01*
X11358964Y-13798162D01*
X11351192Y-13797452D01*
X11342760Y-13794601D01*
X11335682Y-13789909D01*
X11330081Y-13783757D01*
X11326081Y-13776523D01*
X11323807Y-13768586D01*
X11323382Y-13760326D01*
X11324930Y-13752121D01*
X11328574Y-13744351D01*
X11332280Y-13739544D01*
X11337698Y-13734328D01*
X11342958Y-13730952D01*
X11348849Y-13729081D01*
X11356157Y-13728381D01*
X11358626Y-13728349D01*
X11366605Y-13728799D01*
G36*
X10943935Y-13496424D02*
X10981359Y-13500776D01*
X10994588Y-13502915D01*
X11004127Y-13504670D01*
X11013707Y-13506611D01*
X11022904Y-13508637D01*
X11031293Y-13510645D01*
X11038448Y-13512534D01*
X11043946Y-13514202D01*
X11047345Y-13515540D01*
X11053656Y-13520128D01*
X11058332Y-13526343D01*
X11061221Y-13533751D01*
X11062175Y-13541918D01*
X11061043Y-13550410D01*
X11060276Y-13552952D01*
X11056816Y-13559515D01*
X11051518Y-13565300D01*
X11045079Y-13569631D01*
X11041507Y-13571086D01*
X11037774Y-13572165D01*
X11034777Y-13572623D01*
X11031582Y-13572466D01*
X11027254Y-13571701D01*
X11024823Y-13571188D01*
X11019485Y-13570044D01*
X11012641Y-13568580D01*
X11005270Y-13567005D01*
X10999851Y-13565849D01*
X10969608Y-13560448D01*
X10938521Y-13556899D01*
X10907136Y-13555222D01*
X10875998Y-13555438D01*
X10845652Y-13557567D01*
X10829671Y-13559536D01*
X10800090Y-13564632D01*
X10771390Y-13571374D01*
X10743119Y-13579906D01*
X10714825Y-13590369D01*
X10686056Y-13602908D01*
X10673461Y-13608956D01*
X10647350Y-13622498D01*
X10622822Y-13636664D01*
X10599334Y-13651821D01*
X10576340Y-13668333D01*
X10553295Y-13686567D01*
X10536728Y-13700650D01*
X10531322Y-13705203D01*
X10526072Y-13709335D01*
X10521512Y-13712642D01*
X10518178Y-13714723D01*
X10517678Y-13714969D01*
X10509835Y-13717189D01*
X10501737Y-13716922D01*
X10494382Y-13714538D01*
X10487949Y-13710476D01*
X10482289Y-13704935D01*
X10478208Y-13698733D01*
X10477722Y-13697655D01*
X10476725Y-13693960D01*
X10476093Y-13689102D01*
X10475976Y-13686216D01*
X10476276Y-13681100D01*
X10477345Y-13676578D01*
X10479436Y-13672250D01*
X10482805Y-13667715D01*
X10487705Y-13662572D01*
X10494391Y-13656420D01*
X10495478Y-13655460D01*
X10527121Y-13629154D01*
X10559689Y-13605048D01*
X10593098Y-13583190D01*
X10627261Y-13563627D01*
X10662092Y-13546405D01*
X10697503Y-13531571D01*
X10733409Y-13519174D01*
X10759186Y-13511868D01*
X10795399Y-13503834D01*
X10832106Y-13498268D01*
X10869182Y-13495174D01*
X10906500Y-13494558D01*
X10943935Y-13496424D01*
X10943935Y-13496424D01*
G37*
X10943935Y-13496424D02*
X10981359Y-13500776D01*
X10994588Y-13502915D01*
X11004127Y-13504670D01*
X11013707Y-13506611D01*
X11022904Y-13508637D01*
X11031293Y-13510645D01*
X11038448Y-13512534D01*
X11043946Y-13514202D01*
X11047345Y-13515540D01*
X11053656Y-13520128D01*
X11058332Y-13526343D01*
X11061221Y-13533751D01*
X11062175Y-13541918D01*
X11061043Y-13550410D01*
X11060276Y-13552952D01*
X11056816Y-13559515D01*
X11051518Y-13565300D01*
X11045079Y-13569631D01*
X11041507Y-13571086D01*
X11037774Y-13572165D01*
X11034777Y-13572623D01*
X11031582Y-13572466D01*
X11027254Y-13571701D01*
X11024823Y-13571188D01*
X11019485Y-13570044D01*
X11012641Y-13568580D01*
X11005270Y-13567005D01*
X10999851Y-13565849D01*
X10969608Y-13560448D01*
X10938521Y-13556899D01*
X10907136Y-13555222D01*
X10875998Y-13555438D01*
X10845652Y-13557567D01*
X10829671Y-13559536D01*
X10800090Y-13564632D01*
X10771390Y-13571374D01*
X10743119Y-13579906D01*
X10714825Y-13590369D01*
X10686056Y-13602908D01*
X10673461Y-13608956D01*
X10647350Y-13622498D01*
X10622822Y-13636664D01*
X10599334Y-13651821D01*
X10576340Y-13668333D01*
X10553295Y-13686567D01*
X10536728Y-13700650D01*
X10531322Y-13705203D01*
X10526072Y-13709335D01*
X10521512Y-13712642D01*
X10518178Y-13714723D01*
X10517678Y-13714969D01*
X10509835Y-13717189D01*
X10501737Y-13716922D01*
X10494382Y-13714538D01*
X10487949Y-13710476D01*
X10482289Y-13704935D01*
X10478208Y-13698733D01*
X10477722Y-13697655D01*
X10476725Y-13693960D01*
X10476093Y-13689102D01*
X10475976Y-13686216D01*
X10476276Y-13681100D01*
X10477345Y-13676578D01*
X10479436Y-13672250D01*
X10482805Y-13667715D01*
X10487705Y-13662572D01*
X10494391Y-13656420D01*
X10495478Y-13655460D01*
X10527121Y-13629154D01*
X10559689Y-13605048D01*
X10593098Y-13583190D01*
X10627261Y-13563627D01*
X10662092Y-13546405D01*
X10697503Y-13531571D01*
X10733409Y-13519174D01*
X10759186Y-13511868D01*
X10795399Y-13503834D01*
X10832106Y-13498268D01*
X10869182Y-13495174D01*
X10906500Y-13494558D01*
X10943935Y-13496424D01*
G36*
X11151424Y-13560216D02*
X11154780Y-13560840D01*
X11158619Y-13562130D01*
X11163556Y-13564285D01*
X11168891Y-13566853D01*
X11181116Y-13573155D01*
X11193784Y-13580214D01*
X11206661Y-13587861D01*
X11219509Y-13595924D01*
X11232093Y-13604235D01*
X11244177Y-13612624D01*
X11255525Y-13620920D01*
X11265900Y-13628954D01*
X11275067Y-13636556D01*
X11282790Y-13643557D01*
X11288833Y-13649786D01*
X11292959Y-13655073D01*
X11294041Y-13656926D01*
X11295969Y-13662841D01*
X11296633Y-13669825D01*
X11295996Y-13676724D01*
X11294777Y-13680841D01*
X11290763Y-13687596D01*
X11285113Y-13693223D01*
X11278353Y-13697428D01*
X11271013Y-13699923D01*
X11263621Y-13700416D01*
X11260201Y-13699854D01*
X11255254Y-13698165D01*
X11250323Y-13695435D01*
X11244801Y-13691289D01*
X11241044Y-13688050D01*
X11224707Y-13674388D01*
X11206320Y-13660662D01*
X11186344Y-13647184D01*
X11165240Y-13634266D01*
X11145242Y-13623155D01*
X11136836Y-13618510D01*
X11130466Y-13614472D01*
X11125792Y-13610748D01*
X11122477Y-13607046D01*
X11120179Y-13603074D01*
X11119285Y-13600837D01*
X11117612Y-13594097D01*
X11117670Y-13587550D01*
X11119124Y-13581143D01*
X11122719Y-13573264D01*
X11128120Y-13567045D01*
X11135058Y-13562684D01*
X11143263Y-13560378D01*
X11147936Y-13560056D01*
X11151424Y-13560216D01*
X11151424Y-13560216D01*
G37*
X11151424Y-13560216D02*
X11154780Y-13560840D01*
X11158619Y-13562130D01*
X11163556Y-13564285D01*
X11168891Y-13566853D01*
X11181116Y-13573155D01*
X11193784Y-13580214D01*
X11206661Y-13587861D01*
X11219509Y-13595924D01*
X11232093Y-13604235D01*
X11244177Y-13612624D01*
X11255525Y-13620920D01*
X11265900Y-13628954D01*
X11275067Y-13636556D01*
X11282790Y-13643557D01*
X11288833Y-13649786D01*
X11292959Y-13655073D01*
X11294041Y-13656926D01*
X11295969Y-13662841D01*
X11296633Y-13669825D01*
X11295996Y-13676724D01*
X11294777Y-13680841D01*
X11290763Y-13687596D01*
X11285113Y-13693223D01*
X11278353Y-13697428D01*
X11271013Y-13699923D01*
X11263621Y-13700416D01*
X11260201Y-13699854D01*
X11255254Y-13698165D01*
X11250323Y-13695435D01*
X11244801Y-13691289D01*
X11241044Y-13688050D01*
X11224707Y-13674388D01*
X11206320Y-13660662D01*
X11186344Y-13647184D01*
X11165240Y-13634266D01*
X11145242Y-13623155D01*
X11136836Y-13618510D01*
X11130466Y-13614472D01*
X11125792Y-13610748D01*
X11122477Y-13607046D01*
X11120179Y-13603074D01*
X11119285Y-13600837D01*
X11117612Y-13594097D01*
X11117670Y-13587550D01*
X11119124Y-13581143D01*
X11122719Y-13573264D01*
X11128120Y-13567045D01*
X11135058Y-13562684D01*
X11143263Y-13560378D01*
X11147936Y-13560056D01*
X11151424Y-13560216D01*
D14*
X10903112Y-11522990D02*
X10845969Y-11522990D01*
X10874540Y-11522990D02*
X10874540Y-11422990D01*
X10865016Y-11437276D01*
X10855492Y-11446800D01*
X10845969Y-11451561D01*
X10945969Y-11522990D02*
X10945969Y-11422990D01*
X11003112Y-11522990D02*
X10960254Y-11465847D01*
X11003112Y-11422990D02*
X10945969Y-11480133D01*
X10861080Y-11053598D02*
X10803938Y-11053598D01*
X10832509Y-11053598D02*
X10832509Y-10953598D01*
X10822985Y-10967884D01*
X10813461Y-10977408D01*
X10803938Y-10982170D01*
X10922985Y-10953598D02*
X10932509Y-10953598D01*
X10942033Y-10958360D01*
X10946795Y-10963122D01*
X10951557Y-10972646D01*
X10956319Y-10991693D01*
X10956319Y-11015503D01*
X10951557Y-11034551D01*
X10946795Y-11044074D01*
X10942033Y-11048836D01*
X10932509Y-11053598D01*
X10922985Y-11053598D01*
X10913461Y-11048836D01*
X10908699Y-11044074D01*
X10903938Y-11034551D01*
X10899176Y-11015503D01*
X10899176Y-10991693D01*
X10903938Y-10972646D01*
X10908699Y-10963122D01*
X10913461Y-10958360D01*
X10922985Y-10953598D01*
X10999176Y-11053598D02*
X10999176Y-10953598D01*
X11056319Y-11053598D02*
X11013461Y-10996455D01*
X11056319Y-10953598D02*
X10999176Y-11010741D01*
X14004584Y-11154182D02*
X13947441Y-11154182D01*
X13976013Y-11154182D02*
X13976013Y-11054182D01*
X13966489Y-11068468D01*
X13956965Y-11077992D01*
X13947441Y-11082754D01*
X14066489Y-11054182D02*
X14076013Y-11054182D01*
X14085537Y-11058944D01*
X14090299Y-11063706D01*
X14095061Y-11073230D01*
X14099822Y-11092277D01*
X14099822Y-11116087D01*
X14095061Y-11135135D01*
X14090299Y-11144658D01*
X14085537Y-11149420D01*
X14076013Y-11154182D01*
X14066489Y-11154182D01*
X14056965Y-11149420D01*
X14052203Y-11144658D01*
X14047441Y-11135135D01*
X14042680Y-11116087D01*
X14042680Y-11092277D01*
X14047441Y-11073230D01*
X14052203Y-11063706D01*
X14056965Y-11058944D01*
X14066489Y-11054182D01*
X14142680Y-11154182D02*
X14142680Y-11054182D01*
X14199822Y-11154182D02*
X14156965Y-11097039D01*
X14199822Y-11054182D02*
X14142680Y-11111325D01*
X14082683Y-10686822D02*
X14025541Y-10686822D01*
X14054112Y-10686822D02*
X14054112Y-10586822D01*
X14044588Y-10601108D01*
X14035064Y-10610632D01*
X14025541Y-10615394D01*
X14125541Y-10686822D02*
X14125541Y-10586822D01*
X14182683Y-10686822D02*
X14139826Y-10629679D01*
X14182683Y-10586822D02*
X14125541Y-10643965D01*
X10873272Y-10512070D02*
X10816130Y-10512070D01*
X10844701Y-10512070D02*
X10844701Y-10412070D01*
X10835177Y-10426356D01*
X10825653Y-10435880D01*
X10816130Y-10440642D01*
X10935177Y-10412070D02*
X10944701Y-10412070D01*
X10954225Y-10416832D01*
X10958987Y-10421594D01*
X10963749Y-10431118D01*
X10968511Y-10450165D01*
X10968511Y-10473975D01*
X10963749Y-10493023D01*
X10958987Y-10502546D01*
X10954225Y-10507308D01*
X10944701Y-10512070D01*
X10935177Y-10512070D01*
X10925653Y-10507308D01*
X10920891Y-10502546D01*
X10916130Y-10493023D01*
X10911368Y-10473975D01*
X10911368Y-10450165D01*
X10916130Y-10431118D01*
X10920891Y-10421594D01*
X10925653Y-10416832D01*
X10935177Y-10412070D01*
X11011368Y-10512070D02*
X11011368Y-10412070D01*
X11068511Y-10512070D02*
X11025653Y-10454927D01*
X11068511Y-10412070D02*
X11011368Y-10469213D01*
X13064784Y-7538746D02*
X13007641Y-7538746D01*
X13036213Y-7538746D02*
X13036213Y-7438746D01*
X13026689Y-7453032D01*
X13017165Y-7462556D01*
X13007641Y-7467317D01*
X13126689Y-7438746D02*
X13136213Y-7438746D01*
X13145737Y-7443508D01*
X13150499Y-7448270D01*
X13155261Y-7457794D01*
X13160022Y-7476841D01*
X13160022Y-7500651D01*
X13155261Y-7519698D01*
X13150499Y-7529222D01*
X13145737Y-7533984D01*
X13136213Y-7538746D01*
X13126689Y-7538746D01*
X13117165Y-7533984D01*
X13112403Y-7529222D01*
X13107641Y-7519698D01*
X13102880Y-7500651D01*
X13102880Y-7476841D01*
X13107641Y-7457794D01*
X13112403Y-7448270D01*
X13117165Y-7443508D01*
X13126689Y-7438746D01*
X13202880Y-7538746D02*
X13202880Y-7438746D01*
X13260022Y-7538746D02*
X13217165Y-7481603D01*
X13260022Y-7438746D02*
X13202880Y-7495889D01*
X12896211Y-7073748D02*
X12962878Y-7073748D01*
X12896211Y-7173748D01*
X12962878Y-7173748D01*
X13000973Y-7121367D02*
X13034307Y-7121367D01*
X13048592Y-7173748D02*
X13000973Y-7173748D01*
X13000973Y-7073748D01*
X13048592Y-7073748D01*
X13091450Y-7173748D02*
X13091450Y-7073748D01*
X13148592Y-7173748D01*
X13148592Y-7073748D01*
X13196211Y-7121367D02*
X13229545Y-7121367D01*
X13243831Y-7173748D02*
X13196211Y-7173748D01*
X13196211Y-7073748D01*
X13243831Y-7073748D01*
X13343831Y-7173748D02*
X13310497Y-7126129D01*
X13286688Y-7173748D02*
X13286688Y-7073748D01*
X13324783Y-7073748D01*
X13334307Y-7078510D01*
X13339069Y-7083272D01*
X13343831Y-7092796D01*
X13343831Y-7107081D01*
X13339069Y-7116605D01*
X13334307Y-7121367D01*
X13324783Y-7126129D01*
X13286688Y-7126129D01*
X13000848Y-6581101D02*
X12967514Y-6581101D01*
X12967514Y-6633482D02*
X12967514Y-6533482D01*
X13015133Y-6533482D01*
X13053229Y-6533482D02*
X13053229Y-6614434D01*
X13057990Y-6623958D01*
X13062752Y-6628720D01*
X13072276Y-6633482D01*
X13091324Y-6633482D01*
X13100848Y-6628720D01*
X13105610Y-6623958D01*
X13110371Y-6614434D01*
X13110371Y-6533482D01*
X13153229Y-6628720D02*
X13167514Y-6633482D01*
X13191324Y-6633482D01*
X13200848Y-6628720D01*
X13205610Y-6623958D01*
X13210371Y-6614434D01*
X13210371Y-6604911D01*
X13205610Y-6595387D01*
X13200848Y-6590625D01*
X13191324Y-6585863D01*
X13172276Y-6581101D01*
X13162752Y-6576339D01*
X13157990Y-6571577D01*
X13153229Y-6562053D01*
X13153229Y-6552530D01*
X13157990Y-6543006D01*
X13162752Y-6538244D01*
X13172276Y-6533482D01*
X13196086Y-6533482D01*
X13210371Y-6538244D01*
X13253229Y-6581101D02*
X13286562Y-6581101D01*
X13300848Y-6633482D02*
X13253229Y-6633482D01*
X13253229Y-6533482D01*
X13300848Y-6533482D01*
X14178370Y-5508588D02*
X14187894Y-5513350D01*
X14206942Y-5513350D01*
X14216466Y-5508588D01*
X14221227Y-5499064D01*
X14221227Y-5494303D01*
X14216466Y-5484779D01*
X14206942Y-5480017D01*
X14192656Y-5480017D01*
X14183132Y-5475255D01*
X14178370Y-5465731D01*
X14178370Y-5460969D01*
X14183132Y-5451445D01*
X14192656Y-5446683D01*
X14206942Y-5446683D01*
X14216466Y-5451445D01*
X14254561Y-5446683D02*
X14273608Y-5513350D01*
X14292656Y-5465731D01*
X14311704Y-5513350D01*
X14330751Y-5446683D01*
X14368846Y-5513350D02*
X14368846Y-5446683D01*
X14368846Y-5413350D02*
X14364085Y-5418112D01*
X14368846Y-5422874D01*
X14373608Y-5418112D01*
X14368846Y-5413350D01*
X14368846Y-5422874D01*
X14402180Y-5446683D02*
X14440275Y-5446683D01*
X14416465Y-5413350D02*
X14416465Y-5499064D01*
X14421227Y-5508588D01*
X14430751Y-5513350D01*
X14440275Y-5513350D01*
X14516466Y-5508588D02*
X14506942Y-5513350D01*
X14487894Y-5513350D01*
X14478370Y-5508588D01*
X14473608Y-5503826D01*
X14468846Y-5494303D01*
X14468846Y-5465731D01*
X14473608Y-5456207D01*
X14478370Y-5451445D01*
X14487894Y-5446683D01*
X14506942Y-5446683D01*
X14516466Y-5451445D01*
X14559323Y-5513350D02*
X14559323Y-5413350D01*
X14602180Y-5513350D02*
X14602180Y-5460969D01*
X14597418Y-5451445D01*
X14587894Y-5446683D01*
X14573608Y-5446683D01*
X14564085Y-5451445D01*
X14559323Y-5456207D01*
X13649986Y-5756611D02*
X13649986Y-5813754D01*
X13649986Y-5785182D02*
X13549986Y-5785182D01*
X13564272Y-5794706D01*
X13573796Y-5804230D01*
X13578557Y-5813754D01*
X13549986Y-5694706D02*
X13549986Y-5685182D01*
X13554748Y-5675658D01*
X13559510Y-5670896D01*
X13569034Y-5666135D01*
X13588081Y-5661373D01*
X13611891Y-5661373D01*
X13630938Y-5666135D01*
X13640462Y-5670896D01*
X13645224Y-5675658D01*
X13649986Y-5685182D01*
X13649986Y-5694706D01*
X13645224Y-5704230D01*
X13640462Y-5708992D01*
X13630938Y-5713754D01*
X13611891Y-5718516D01*
X13588081Y-5718516D01*
X13569034Y-5713754D01*
X13559510Y-5708992D01*
X13554748Y-5704230D01*
X13549986Y-5694706D01*
X13583319Y-5575658D02*
X13649986Y-5575658D01*
X13583319Y-5618516D02*
X13635700Y-5618516D01*
X13645224Y-5613754D01*
X13649986Y-5604230D01*
X13649986Y-5589944D01*
X13645224Y-5580420D01*
X13640462Y-5575658D01*
X13597605Y-5494706D02*
X13597605Y-5528039D01*
X13649986Y-5528039D02*
X13549986Y-5528039D01*
X13549986Y-5480420D01*
X12434102Y-5954548D02*
X12376959Y-5954548D01*
X12405531Y-5954548D02*
X12405531Y-5854548D01*
X12396007Y-5868834D01*
X12386483Y-5878358D01*
X12376959Y-5883119D01*
X12496007Y-5854548D02*
X12505531Y-5854548D01*
X12515055Y-5859310D01*
X12519817Y-5864072D01*
X12524579Y-5873596D01*
X12529340Y-5892643D01*
X12529340Y-5916453D01*
X12524579Y-5935500D01*
X12519817Y-5945024D01*
X12515055Y-5949786D01*
X12505531Y-5954548D01*
X12496007Y-5954548D01*
X12486483Y-5949786D01*
X12481721Y-5945024D01*
X12476959Y-5935500D01*
X12472198Y-5916453D01*
X12472198Y-5892643D01*
X12476959Y-5873596D01*
X12481721Y-5864072D01*
X12486483Y-5859310D01*
X12496007Y-5854548D01*
X12572198Y-5954548D02*
X12572198Y-5854548D01*
X12629340Y-5954548D02*
X12586483Y-5897405D01*
X12629340Y-5854548D02*
X12572198Y-5911691D01*
X12450358Y-5446040D02*
X12393215Y-5446040D01*
X12421787Y-5446040D02*
X12421787Y-5346040D01*
X12412263Y-5360326D01*
X12402739Y-5369850D01*
X12393215Y-5374612D01*
X12507501Y-5388897D02*
X12497977Y-5384135D01*
X12493215Y-5379373D01*
X12488454Y-5369850D01*
X12488454Y-5365088D01*
X12493215Y-5355564D01*
X12497977Y-5350802D01*
X12507501Y-5346040D01*
X12526549Y-5346040D01*
X12536073Y-5350802D01*
X12540835Y-5355564D01*
X12545596Y-5365088D01*
X12545596Y-5369850D01*
X12540835Y-5379373D01*
X12536073Y-5384135D01*
X12526549Y-5388897D01*
X12507501Y-5388897D01*
X12497977Y-5393659D01*
X12493215Y-5398421D01*
X12488454Y-5407945D01*
X12488454Y-5426993D01*
X12493215Y-5436516D01*
X12497977Y-5441278D01*
X12507501Y-5446040D01*
X12526549Y-5446040D01*
X12536073Y-5441278D01*
X12540835Y-5436516D01*
X12545596Y-5426993D01*
X12545596Y-5407945D01*
X12540835Y-5398421D01*
X12536073Y-5393659D01*
X12526549Y-5388897D01*
X12588454Y-5446040D02*
X12588454Y-5346040D01*
X12645596Y-5446040D02*
X12602739Y-5388897D01*
X12645596Y-5346040D02*
X12588454Y-5403183D01*
X11459998Y-5788990D02*
X11459998Y-5846133D01*
X11459998Y-5817561D02*
X11359998Y-5817561D01*
X11374284Y-5827085D01*
X11383808Y-5836609D01*
X11388569Y-5846133D01*
X11359998Y-5727085D02*
X11359998Y-5717561D01*
X11364760Y-5708037D01*
X11369522Y-5703276D01*
X11379046Y-5698514D01*
X11398093Y-5693752D01*
X11421903Y-5693752D01*
X11440950Y-5698514D01*
X11450474Y-5703276D01*
X11455236Y-5708037D01*
X11459998Y-5717561D01*
X11459998Y-5727085D01*
X11455236Y-5736609D01*
X11450474Y-5741371D01*
X11440950Y-5746133D01*
X11421903Y-5750895D01*
X11398093Y-5750895D01*
X11379046Y-5746133D01*
X11369522Y-5741371D01*
X11364760Y-5736609D01*
X11359998Y-5727085D01*
X11359998Y-5631847D02*
X11359998Y-5622323D01*
X11364760Y-5612799D01*
X11369522Y-5608037D01*
X11379046Y-5603276D01*
X11398093Y-5598514D01*
X11421903Y-5598514D01*
X11440950Y-5603276D01*
X11450474Y-5608037D01*
X11455236Y-5612799D01*
X11459998Y-5622323D01*
X11459998Y-5631847D01*
X11455236Y-5641371D01*
X11450474Y-5646133D01*
X11440950Y-5650895D01*
X11421903Y-5655657D01*
X11398093Y-5655657D01*
X11379046Y-5650895D01*
X11369522Y-5646133D01*
X11364760Y-5641371D01*
X11359998Y-5631847D01*
X11393331Y-5555657D02*
X11459998Y-5555657D01*
X11402855Y-5555657D02*
X11398093Y-5550895D01*
X11393331Y-5541371D01*
X11393331Y-5527085D01*
X11398093Y-5517561D01*
X11407617Y-5512799D01*
X11459998Y-5512799D01*
X11407617Y-5431847D02*
X11407617Y-5465180D01*
X11459998Y-5465180D02*
X11359998Y-5465180D01*
X11359998Y-5417561D01*
X10216955Y-5432070D02*
X10216955Y-5332070D01*
X10216955Y-5370165D02*
X10226479Y-5365403D01*
X10245527Y-5365403D01*
X10255051Y-5370165D01*
X10259813Y-5374927D01*
X10264575Y-5384451D01*
X10264575Y-5413023D01*
X10259813Y-5422546D01*
X10255051Y-5427308D01*
X10245527Y-5432070D01*
X10226479Y-5432070D01*
X10216955Y-5427308D01*
X10350289Y-5365403D02*
X10350289Y-5432070D01*
X10307432Y-5365403D02*
X10307432Y-5417784D01*
X10312194Y-5427308D01*
X10321717Y-5432070D01*
X10336003Y-5432070D01*
X10345527Y-5427308D01*
X10350289Y-5422546D01*
X10388384Y-5365403D02*
X10440765Y-5365403D01*
X10388384Y-5432070D01*
X10440765Y-5432070D01*
X10469336Y-5365403D02*
X10521717Y-5365403D01*
X10469336Y-5432070D01*
X10521717Y-5432070D01*
X10597908Y-5427308D02*
X10588384Y-5432070D01*
X10569336Y-5432070D01*
X10559813Y-5427308D01*
X10555051Y-5417784D01*
X10555051Y-5379689D01*
X10559813Y-5370165D01*
X10569336Y-5365403D01*
X10588384Y-5365403D01*
X10597908Y-5370165D01*
X10602670Y-5379689D01*
X10602670Y-5389213D01*
X10555051Y-5398737D01*
X10645527Y-5432070D02*
X10645527Y-5365403D01*
X10645527Y-5384451D02*
X10650289Y-5374927D01*
X10655051Y-5370165D01*
X10664575Y-5365403D01*
X10674098Y-5365403D01*
X14340372Y-4007638D02*
X14283229Y-4007638D01*
X14311801Y-4007638D02*
X14311801Y-3907638D01*
X14302277Y-3921924D01*
X14292753Y-3931448D01*
X14283229Y-3936209D01*
X14402277Y-3907638D02*
X14411801Y-3907638D01*
X14421325Y-3912400D01*
X14426087Y-3917162D01*
X14430849Y-3926686D01*
X14435610Y-3945733D01*
X14435610Y-3969543D01*
X14430849Y-3988590D01*
X14426087Y-3998114D01*
X14421325Y-4002876D01*
X14411801Y-4007638D01*
X14402277Y-4007638D01*
X14392753Y-4002876D01*
X14387991Y-3998114D01*
X14383229Y-3988590D01*
X14378468Y-3969543D01*
X14378468Y-3945733D01*
X14383229Y-3926686D01*
X14387991Y-3917162D01*
X14392753Y-3912400D01*
X14402277Y-3907638D01*
X14478468Y-4007638D02*
X14478468Y-3907638D01*
X14535610Y-4007638D02*
X14492753Y-3950495D01*
X14535610Y-3907638D02*
X14478468Y-3964781D01*
M02*
