G04 #@! TF.FileFunction,Copper,L2,Bot,Signal*
%FSLAX45Y45*%
G04 Gerber Fmt 4.5, Leading zero omitted, Abs format (unit mm)*
G04 Created by KiCad (PCBNEW 4.0.6-e0-6349~53~ubuntu16.04.1) date Tue Apr 25 11:52:05 2017*
%MOMM*%
%LPD*%
G01*
G04 APERTURE LIST*
%ADD10C,0.020000*%
%ADD11C,0.002540*%
%ADD12R,1.500000X1.500000*%
%ADD13C,1.500000*%
%ADD14C,3.000000*%
%ADD15R,1.700000X1.700000*%
%ADD16O,1.700000X1.700000*%
%ADD17C,2.000000*%
%ADD18O,3.433200X2.114400*%
%ADD19O,2.114400X3.433200*%
%ADD20R,1.600000X1.600000*%
%ADD21O,1.600000X1.600000*%
%ADD22R,3.000000X3.000000*%
%ADD23R,2.200000X2.200000*%
%ADD24O,2.200000X2.200000*%
%ADD25C,1.524000*%
%ADD26C,1.600000*%
%ADD27C,1.400000*%
%ADD28O,1.400000X1.400000*%
%ADD29C,1.600200*%
%ADD30O,1.724000X2.310000*%
%ADD31R,1.524000X1.524000*%
%ADD32R,1.270000X0.970000*%
%ADD33R,1.800000X1.800000*%
%ADD34O,1.800000X1.800000*%
%ADD35R,0.970000X1.270000*%
%ADD36C,0.800000*%
%ADD37C,1.200000*%
%ADD38C,0.500000*%
%ADD39C,0.600000*%
%ADD40C,0.812800*%
%ADD41C,0.609600*%
%ADD42C,0.406400*%
%ADD43C,1.016000*%
%ADD44C,1.270000*%
G04 APERTURE END LIST*
D10*
D11*
G36*
X14698683Y-14428602D02*
X14675921Y-14390878D01*
X14663028Y-14353154D01*
X14649021Y-14390878D01*
X14675921Y-14390878D01*
X14698683Y-14428602D01*
X14687700Y-14428602D01*
X14677991Y-14399473D01*
X14646633Y-14399473D01*
X14635651Y-14428443D01*
X14624031Y-14428443D01*
X14662392Y-14327527D01*
X14663665Y-14327527D01*
X14698683Y-14428602D01*
X14698683Y-14428602D01*
G37*
X14698683Y-14428602D02*
X14675921Y-14390878D01*
X14663028Y-14353154D01*
X14649021Y-14390878D01*
X14675921Y-14390878D01*
X14698683Y-14428602D01*
X14687700Y-14428602D01*
X14677991Y-14399473D01*
X14646633Y-14399473D01*
X14635651Y-14428443D01*
X14624031Y-14428443D01*
X14662392Y-14327527D01*
X14663665Y-14327527D01*
X14698683Y-14428602D01*
D10*
X14698683Y-14428602D02*
X14675921Y-14390878D01*
X14675921Y-14390878D02*
X14663028Y-14353154D01*
X14663028Y-14353154D02*
X14649021Y-14390878D01*
X14649021Y-14390878D02*
X14675921Y-14390878D01*
X14675921Y-14390878D02*
X14698683Y-14428602D01*
X14698683Y-14428602D02*
X14687700Y-14428602D01*
X14687700Y-14428602D02*
X14677991Y-14399473D01*
X14677991Y-14399473D02*
X14646633Y-14399473D01*
X14646633Y-14399473D02*
X14635651Y-14428443D01*
X14635651Y-14428443D02*
X14624031Y-14428443D01*
X14624031Y-14428443D02*
X14662392Y-14327527D01*
X14662392Y-14327527D02*
X14663665Y-14327527D01*
X14663665Y-14327527D02*
X14698683Y-14428602D01*
D11*
G36*
X14613685Y-14329278D02*
X14602702Y-14338828D01*
X14587103Y-14338828D01*
X14573891Y-14340580D01*
X14563863Y-14354587D01*
X14573414Y-14368436D01*
X14587262Y-14370346D01*
X14602702Y-14370346D01*
X14602702Y-14338829D01*
X14602702Y-14338828D01*
X14613685Y-14329278D01*
X14602702Y-14379737D01*
X14586466Y-14379737D01*
X14571663Y-14382283D01*
X14560361Y-14399952D01*
X14571026Y-14416824D01*
X14583760Y-14418734D01*
X14602702Y-14418734D01*
X14602702Y-14379737D01*
X14613685Y-14329278D01*
X14613685Y-14428443D01*
X14585670Y-14428443D01*
X14565296Y-14425578D01*
X14553020Y-14415411D01*
X14548742Y-14401065D01*
X14553855Y-14385267D01*
X14567206Y-14375438D01*
X14556601Y-14366684D01*
X14552562Y-14353631D01*
X14556283Y-14341037D01*
X14567047Y-14332143D01*
X14585511Y-14329278D01*
X14613685Y-14329278D01*
X14613685Y-14329278D01*
G37*
X14613685Y-14329278D02*
X14602702Y-14338828D01*
X14587103Y-14338828D01*
X14573891Y-14340580D01*
X14563863Y-14354587D01*
X14573414Y-14368436D01*
X14587262Y-14370346D01*
X14602702Y-14370346D01*
X14602702Y-14338829D01*
X14602702Y-14338828D01*
X14613685Y-14329278D01*
X14602702Y-14379737D01*
X14586466Y-14379737D01*
X14571663Y-14382283D01*
X14560361Y-14399952D01*
X14571026Y-14416824D01*
X14583760Y-14418734D01*
X14602702Y-14418734D01*
X14602702Y-14379737D01*
X14613685Y-14329278D01*
X14613685Y-14428443D01*
X14585670Y-14428443D01*
X14565296Y-14425578D01*
X14553020Y-14415411D01*
X14548742Y-14401065D01*
X14553855Y-14385267D01*
X14567206Y-14375438D01*
X14556601Y-14366684D01*
X14552562Y-14353631D01*
X14556283Y-14341037D01*
X14567047Y-14332143D01*
X14585511Y-14329278D01*
X14613685Y-14329278D01*
D10*
X14613685Y-14329278D02*
X14602702Y-14338828D01*
X14602702Y-14338828D02*
X14587103Y-14338828D01*
X14587103Y-14338828D02*
X14573891Y-14340580D01*
X14573891Y-14340580D02*
X14563863Y-14354587D01*
X14563863Y-14354587D02*
X14573414Y-14368436D01*
X14573414Y-14368436D02*
X14587262Y-14370346D01*
X14587262Y-14370346D02*
X14602702Y-14370346D01*
X14602702Y-14370346D02*
X14602702Y-14338829D01*
X14602702Y-14338829D02*
X14602702Y-14338828D01*
X14602702Y-14338828D02*
X14613685Y-14329278D01*
X14613685Y-14329278D02*
X14602702Y-14379737D01*
X14602702Y-14379737D02*
X14586466Y-14379737D01*
X14586466Y-14379737D02*
X14571663Y-14382283D01*
X14571663Y-14382283D02*
X14560361Y-14399952D01*
X14560361Y-14399952D02*
X14571026Y-14416824D01*
X14571026Y-14416824D02*
X14583760Y-14418734D01*
X14583760Y-14418734D02*
X14602702Y-14418734D01*
X14602702Y-14418734D02*
X14602702Y-14379737D01*
X14602702Y-14379737D02*
X14613685Y-14329278D01*
X14613685Y-14329278D02*
X14613685Y-14428443D01*
X14613685Y-14428443D02*
X14585670Y-14428443D01*
X14585670Y-14428443D02*
X14565296Y-14425578D01*
X14565296Y-14425578D02*
X14553020Y-14415411D01*
X14553020Y-14415411D02*
X14548742Y-14401065D01*
X14548742Y-14401065D02*
X14553855Y-14385267D01*
X14553855Y-14385267D02*
X14567206Y-14375438D01*
X14567206Y-14375438D02*
X14556601Y-14366684D01*
X14556601Y-14366684D02*
X14552562Y-14353631D01*
X14552562Y-14353631D02*
X14556283Y-14341037D01*
X14556283Y-14341037D02*
X14567047Y-14332143D01*
X14567047Y-14332143D02*
X14585511Y-14329278D01*
X14585511Y-14329278D02*
X14613685Y-14329278D01*
D11*
G36*
X14501786Y-14328641D02*
X14511901Y-14342926D01*
X14501944Y-14338351D01*
X14486345Y-14351403D01*
X14486346Y-14351403D01*
X14521205Y-14396608D01*
X14523432Y-14377826D01*
X14520054Y-14356272D01*
X14511901Y-14342926D01*
X14501786Y-14328641D01*
X14517084Y-14334849D01*
X14528987Y-14352411D01*
X14533780Y-14379736D01*
X14517543Y-14406636D01*
X14482684Y-14361908D01*
X14482683Y-14361908D01*
X14480615Y-14381964D01*
X14487678Y-14411451D01*
X14501307Y-14420166D01*
X14517543Y-14406636D01*
X14533780Y-14379736D01*
X14528946Y-14407149D01*
X14516966Y-14424375D01*
X14501627Y-14430353D01*
X14487130Y-14425041D01*
X14475216Y-14408658D01*
X14470269Y-14380532D01*
X14475045Y-14352081D01*
X14486823Y-14334596D01*
X14501786Y-14328641D01*
X14501786Y-14328641D01*
G37*
X14501786Y-14328641D02*
X14511901Y-14342926D01*
X14501944Y-14338351D01*
X14486345Y-14351403D01*
X14486346Y-14351403D01*
X14521205Y-14396608D01*
X14523432Y-14377826D01*
X14520054Y-14356272D01*
X14511901Y-14342926D01*
X14501786Y-14328641D01*
X14517084Y-14334849D01*
X14528987Y-14352411D01*
X14533780Y-14379736D01*
X14517543Y-14406636D01*
X14482684Y-14361908D01*
X14482683Y-14361908D01*
X14480615Y-14381964D01*
X14487678Y-14411451D01*
X14501307Y-14420166D01*
X14517543Y-14406636D01*
X14533780Y-14379736D01*
X14528946Y-14407149D01*
X14516966Y-14424375D01*
X14501627Y-14430353D01*
X14487130Y-14425041D01*
X14475216Y-14408658D01*
X14470269Y-14380532D01*
X14475045Y-14352081D01*
X14486823Y-14334596D01*
X14501786Y-14328641D01*
D10*
X14501786Y-14328641D02*
X14511901Y-14342926D01*
X14511901Y-14342926D02*
X14501944Y-14338351D01*
X14501944Y-14338351D02*
X14486345Y-14351403D01*
X14486345Y-14351403D02*
X14486346Y-14351403D01*
X14486346Y-14351403D02*
X14521205Y-14396608D01*
X14521205Y-14396608D02*
X14523432Y-14377826D01*
X14523432Y-14377826D02*
X14520054Y-14356272D01*
X14520054Y-14356272D02*
X14511901Y-14342926D01*
X14511901Y-14342926D02*
X14501786Y-14328641D01*
X14501786Y-14328641D02*
X14517084Y-14334849D01*
X14517084Y-14334849D02*
X14528987Y-14352411D01*
X14528987Y-14352411D02*
X14533780Y-14379736D01*
X14533780Y-14379736D02*
X14517543Y-14406636D01*
X14517543Y-14406636D02*
X14482684Y-14361908D01*
X14482684Y-14361908D02*
X14482683Y-14361908D01*
X14482683Y-14361908D02*
X14480615Y-14381964D01*
X14480615Y-14381964D02*
X14487678Y-14411451D01*
X14487678Y-14411451D02*
X14501307Y-14420166D01*
X14501307Y-14420166D02*
X14517543Y-14406636D01*
X14517543Y-14406636D02*
X14533780Y-14379736D01*
X14533780Y-14379736D02*
X14528946Y-14407149D01*
X14528946Y-14407149D02*
X14516966Y-14424375D01*
X14516966Y-14424375D02*
X14501627Y-14430353D01*
X14501627Y-14430353D02*
X14487130Y-14425041D01*
X14487130Y-14425041D02*
X14475216Y-14408658D01*
X14475216Y-14408658D02*
X14470269Y-14380532D01*
X14470269Y-14380532D02*
X14475045Y-14352081D01*
X14475045Y-14352081D02*
X14486823Y-14334596D01*
X14486823Y-14334596D02*
X14501786Y-14328641D01*
D11*
G36*
X14422199Y-14328641D02*
X14432314Y-14342926D01*
X14422357Y-14338351D01*
X14406758Y-14351403D01*
X14406759Y-14351403D01*
X14441618Y-14396608D01*
X14443845Y-14377826D01*
X14440467Y-14356272D01*
X14432314Y-14342926D01*
X14422199Y-14328641D01*
X14437497Y-14334849D01*
X14449400Y-14352411D01*
X14454193Y-14379736D01*
X14437956Y-14406636D01*
X14403097Y-14361908D01*
X14403097Y-14361908D01*
X14401028Y-14381964D01*
X14408092Y-14411451D01*
X14421721Y-14420166D01*
X14437956Y-14406636D01*
X14454193Y-14379736D01*
X14449359Y-14407149D01*
X14437380Y-14424375D01*
X14422040Y-14430353D01*
X14407543Y-14425041D01*
X14395629Y-14408658D01*
X14390683Y-14380532D01*
X14395458Y-14352081D01*
X14407237Y-14334596D01*
X14422199Y-14328641D01*
X14422199Y-14328641D01*
G37*
X14422199Y-14328641D02*
X14432314Y-14342926D01*
X14422357Y-14338351D01*
X14406758Y-14351403D01*
X14406759Y-14351403D01*
X14441618Y-14396608D01*
X14443845Y-14377826D01*
X14440467Y-14356272D01*
X14432314Y-14342926D01*
X14422199Y-14328641D01*
X14437497Y-14334849D01*
X14449400Y-14352411D01*
X14454193Y-14379736D01*
X14437956Y-14406636D01*
X14403097Y-14361908D01*
X14403097Y-14361908D01*
X14401028Y-14381964D01*
X14408092Y-14411451D01*
X14421721Y-14420166D01*
X14437956Y-14406636D01*
X14454193Y-14379736D01*
X14449359Y-14407149D01*
X14437380Y-14424375D01*
X14422040Y-14430353D01*
X14407543Y-14425041D01*
X14395629Y-14408658D01*
X14390683Y-14380532D01*
X14395458Y-14352081D01*
X14407237Y-14334596D01*
X14422199Y-14328641D01*
D10*
X14422199Y-14328641D02*
X14432314Y-14342926D01*
X14432314Y-14342926D02*
X14422357Y-14338351D01*
X14422357Y-14338351D02*
X14406758Y-14351403D01*
X14406758Y-14351403D02*
X14406759Y-14351403D01*
X14406759Y-14351403D02*
X14441618Y-14396608D01*
X14441618Y-14396608D02*
X14443845Y-14377826D01*
X14443845Y-14377826D02*
X14440467Y-14356272D01*
X14440467Y-14356272D02*
X14432314Y-14342926D01*
X14432314Y-14342926D02*
X14422199Y-14328641D01*
X14422199Y-14328641D02*
X14437497Y-14334849D01*
X14437497Y-14334849D02*
X14449400Y-14352411D01*
X14449400Y-14352411D02*
X14454193Y-14379736D01*
X14454193Y-14379736D02*
X14437956Y-14406636D01*
X14437956Y-14406636D02*
X14403097Y-14361908D01*
X14403097Y-14361908D02*
X14403097Y-14361908D01*
X14403097Y-14361908D02*
X14401028Y-14381964D01*
X14401028Y-14381964D02*
X14408092Y-14411451D01*
X14408092Y-14411451D02*
X14421721Y-14420166D01*
X14421721Y-14420166D02*
X14437956Y-14406636D01*
X14437956Y-14406636D02*
X14454193Y-14379736D01*
X14454193Y-14379736D02*
X14449359Y-14407149D01*
X14449359Y-14407149D02*
X14437380Y-14424375D01*
X14437380Y-14424375D02*
X14422040Y-14430353D01*
X14422040Y-14430353D02*
X14407543Y-14425041D01*
X14407543Y-14425041D02*
X14395629Y-14408658D01*
X14395629Y-14408658D02*
X14390683Y-14380532D01*
X14390683Y-14380532D02*
X14395458Y-14352081D01*
X14395458Y-14352081D02*
X14407237Y-14334596D01*
X14407237Y-14334596D02*
X14422199Y-14328641D01*
D11*
G36*
X14342612Y-14328641D02*
X14352727Y-14342926D01*
X14342770Y-14338351D01*
X14327171Y-14351403D01*
X14327173Y-14351403D01*
X14362032Y-14396608D01*
X14364259Y-14377826D01*
X14360881Y-14356272D01*
X14352727Y-14342926D01*
X14342612Y-14328641D01*
X14357911Y-14334849D01*
X14369813Y-14352411D01*
X14374606Y-14379736D01*
X14358370Y-14406636D01*
X14323511Y-14361908D01*
X14323510Y-14361908D01*
X14321442Y-14381964D01*
X14328505Y-14411451D01*
X14342134Y-14420166D01*
X14358370Y-14406636D01*
X14374606Y-14379736D01*
X14369772Y-14407149D01*
X14357793Y-14424375D01*
X14342453Y-14430353D01*
X14327957Y-14425041D01*
X14316042Y-14408658D01*
X14311096Y-14380532D01*
X14315871Y-14352081D01*
X14327650Y-14334596D01*
X14342612Y-14328641D01*
X14342612Y-14328641D01*
G37*
X14342612Y-14328641D02*
X14352727Y-14342926D01*
X14342770Y-14338351D01*
X14327171Y-14351403D01*
X14327173Y-14351403D01*
X14362032Y-14396608D01*
X14364259Y-14377826D01*
X14360881Y-14356272D01*
X14352727Y-14342926D01*
X14342612Y-14328641D01*
X14357911Y-14334849D01*
X14369813Y-14352411D01*
X14374606Y-14379736D01*
X14358370Y-14406636D01*
X14323511Y-14361908D01*
X14323510Y-14361908D01*
X14321442Y-14381964D01*
X14328505Y-14411451D01*
X14342134Y-14420166D01*
X14358370Y-14406636D01*
X14374606Y-14379736D01*
X14369772Y-14407149D01*
X14357793Y-14424375D01*
X14342453Y-14430353D01*
X14327957Y-14425041D01*
X14316042Y-14408658D01*
X14311096Y-14380532D01*
X14315871Y-14352081D01*
X14327650Y-14334596D01*
X14342612Y-14328641D01*
D10*
X14342612Y-14328641D02*
X14352727Y-14342926D01*
X14352727Y-14342926D02*
X14342770Y-14338351D01*
X14342770Y-14338351D02*
X14327171Y-14351403D01*
X14327171Y-14351403D02*
X14327173Y-14351403D01*
X14327173Y-14351403D02*
X14362032Y-14396608D01*
X14362032Y-14396608D02*
X14364259Y-14377826D01*
X14364259Y-14377826D02*
X14360881Y-14356272D01*
X14360881Y-14356272D02*
X14352727Y-14342926D01*
X14352727Y-14342926D02*
X14342612Y-14328641D01*
X14342612Y-14328641D02*
X14357911Y-14334849D01*
X14357911Y-14334849D02*
X14369813Y-14352411D01*
X14369813Y-14352411D02*
X14374606Y-14379736D01*
X14374606Y-14379736D02*
X14358370Y-14406636D01*
X14358370Y-14406636D02*
X14323511Y-14361908D01*
X14323511Y-14361908D02*
X14323510Y-14361908D01*
X14323510Y-14361908D02*
X14321442Y-14381964D01*
X14321442Y-14381964D02*
X14328505Y-14411451D01*
X14328505Y-14411451D02*
X14342134Y-14420166D01*
X14342134Y-14420166D02*
X14358370Y-14406636D01*
X14358370Y-14406636D02*
X14374606Y-14379736D01*
X14374606Y-14379736D02*
X14369772Y-14407149D01*
X14369772Y-14407149D02*
X14357793Y-14424375D01*
X14357793Y-14424375D02*
X14342453Y-14430353D01*
X14342453Y-14430353D02*
X14327957Y-14425041D01*
X14327957Y-14425041D02*
X14316042Y-14408658D01*
X14316042Y-14408658D02*
X14311096Y-14380532D01*
X14311096Y-14380532D02*
X14315871Y-14352081D01*
X14315871Y-14352081D02*
X14327650Y-14334596D01*
X14327650Y-14334596D02*
X14342612Y-14328641D01*
D11*
G36*
X14253157Y-14329278D02*
X14255226Y-14346946D01*
X14255226Y-14391356D01*
X14284354Y-14391356D01*
X14255226Y-14346946D01*
X14253157Y-14329278D01*
X14295338Y-14392788D01*
X14295338Y-14401065D01*
X14255385Y-14401065D01*
X14255385Y-14428443D01*
X14243925Y-14428443D01*
X14243925Y-14401224D01*
X14231032Y-14401224D01*
X14231032Y-14391356D01*
X14243925Y-14391356D01*
X14243925Y-14329278D01*
X14253157Y-14329278D01*
X14253157Y-14329278D01*
G37*
X14253157Y-14329278D02*
X14255226Y-14346946D01*
X14255226Y-14391356D01*
X14284354Y-14391356D01*
X14255226Y-14346946D01*
X14253157Y-14329278D01*
X14295338Y-14392788D01*
X14295338Y-14401065D01*
X14255385Y-14401065D01*
X14255385Y-14428443D01*
X14243925Y-14428443D01*
X14243925Y-14401224D01*
X14231032Y-14401224D01*
X14231032Y-14391356D01*
X14243925Y-14391356D01*
X14243925Y-14329278D01*
X14253157Y-14329278D01*
D10*
X14253157Y-14329278D02*
X14255226Y-14346946D01*
X14255226Y-14346946D02*
X14255226Y-14391356D01*
X14255226Y-14391356D02*
X14284354Y-14391356D01*
X14284354Y-14391356D02*
X14255226Y-14346946D01*
X14255226Y-14346946D02*
X14253157Y-14329278D01*
X14253157Y-14329278D02*
X14295338Y-14392788D01*
X14295338Y-14392788D02*
X14295338Y-14401065D01*
X14295338Y-14401065D02*
X14255385Y-14401065D01*
X14255385Y-14401065D02*
X14255385Y-14428443D01*
X14255385Y-14428443D02*
X14243925Y-14428443D01*
X14243925Y-14428443D02*
X14243925Y-14401224D01*
X14243925Y-14401224D02*
X14231032Y-14401224D01*
X14231032Y-14401224D02*
X14231032Y-14391356D01*
X14231032Y-14391356D02*
X14243925Y-14391356D01*
X14243925Y-14391356D02*
X14243925Y-14329278D01*
X14243925Y-14329278D02*
X14253157Y-14329278D01*
D11*
G36*
X14214478Y-14329278D02*
X14185349Y-14339783D01*
X14173093Y-14341852D01*
X14163702Y-14357769D01*
X14172456Y-14372891D01*
X14184076Y-14374959D01*
X14203336Y-14374959D01*
X14203336Y-14339782D01*
X14203336Y-14339783D01*
X14185349Y-14339783D01*
X14214478Y-14329278D01*
X14214478Y-14428443D01*
X14203336Y-14428443D01*
X14203336Y-14384670D01*
X14184076Y-14384670D01*
X14162110Y-14428443D01*
X14149535Y-14428443D01*
X14172456Y-14384352D01*
X14157872Y-14374125D01*
X14152241Y-14356497D01*
X14155862Y-14342589D01*
X14166408Y-14332621D01*
X14185349Y-14329278D01*
X14214478Y-14329278D01*
X14214478Y-14329278D01*
G37*
X14214478Y-14329278D02*
X14185349Y-14339783D01*
X14173093Y-14341852D01*
X14163702Y-14357769D01*
X14172456Y-14372891D01*
X14184076Y-14374959D01*
X14203336Y-14374959D01*
X14203336Y-14339782D01*
X14203336Y-14339783D01*
X14185349Y-14339783D01*
X14214478Y-14329278D01*
X14214478Y-14428443D01*
X14203336Y-14428443D01*
X14203336Y-14384670D01*
X14184076Y-14384670D01*
X14162110Y-14428443D01*
X14149535Y-14428443D01*
X14172456Y-14384352D01*
X14157872Y-14374125D01*
X14152241Y-14356497D01*
X14155862Y-14342589D01*
X14166408Y-14332621D01*
X14185349Y-14329278D01*
X14214478Y-14329278D01*
D10*
X14214478Y-14329278D02*
X14185349Y-14339783D01*
X14185349Y-14339783D02*
X14173093Y-14341852D01*
X14173093Y-14341852D02*
X14163702Y-14357769D01*
X14163702Y-14357769D02*
X14172456Y-14372891D01*
X14172456Y-14372891D02*
X14184076Y-14374959D01*
X14184076Y-14374959D02*
X14203336Y-14374959D01*
X14203336Y-14374959D02*
X14203336Y-14339782D01*
X14203336Y-14339782D02*
X14203336Y-14339783D01*
X14203336Y-14339783D02*
X14185349Y-14339783D01*
X14185349Y-14339783D02*
X14214478Y-14329278D01*
X14214478Y-14329278D02*
X14214478Y-14428443D01*
X14214478Y-14428443D02*
X14203336Y-14428443D01*
X14203336Y-14428443D02*
X14203336Y-14384670D01*
X14203336Y-14384670D02*
X14184076Y-14384670D01*
X14184076Y-14384670D02*
X14162110Y-14428443D01*
X14162110Y-14428443D02*
X14149535Y-14428443D01*
X14149535Y-14428443D02*
X14172456Y-14384352D01*
X14172456Y-14384352D02*
X14157872Y-14374125D01*
X14157872Y-14374125D02*
X14152241Y-14356497D01*
X14152241Y-14356497D02*
X14155862Y-14342589D01*
X14155862Y-14342589D02*
X14166408Y-14332621D01*
X14166408Y-14332621D02*
X14185349Y-14329278D01*
X14185349Y-14329278D02*
X14214478Y-14329278D01*
D11*
G36*
X14131549Y-14344718D02*
X14123431Y-14351244D01*
X14121999Y-14347583D01*
X14105127Y-14338510D01*
X14091577Y-14343902D01*
X14086026Y-14357293D01*
X14092015Y-14373071D01*
X14103376Y-14384670D01*
X14118915Y-14400727D01*
X14132186Y-14421439D01*
X14132186Y-14428443D01*
X14073929Y-14428443D01*
X14073929Y-14417460D01*
X14076156Y-14418097D01*
X14077749Y-14418733D01*
X14119452Y-14418733D01*
X14105505Y-14400428D01*
X14092393Y-14387854D01*
X14081032Y-14374981D01*
X14075043Y-14356497D01*
X14083340Y-14336779D01*
X14103694Y-14328641D01*
X14119651Y-14332919D01*
X14131549Y-14344718D01*
X14131549Y-14344718D01*
X14131549Y-14344718D01*
G37*
X14131549Y-14344718D02*
X14123431Y-14351244D01*
X14121999Y-14347583D01*
X14105127Y-14338510D01*
X14091577Y-14343902D01*
X14086026Y-14357293D01*
X14092015Y-14373071D01*
X14103376Y-14384670D01*
X14118915Y-14400727D01*
X14132186Y-14421439D01*
X14132186Y-14428443D01*
X14073929Y-14428443D01*
X14073929Y-14417460D01*
X14076156Y-14418097D01*
X14077749Y-14418733D01*
X14119452Y-14418733D01*
X14105505Y-14400428D01*
X14092393Y-14387854D01*
X14081032Y-14374981D01*
X14075043Y-14356497D01*
X14083340Y-14336779D01*
X14103694Y-14328641D01*
X14119651Y-14332919D01*
X14131549Y-14344718D01*
X14131549Y-14344718D01*
D10*
X14131549Y-14344718D02*
X14123431Y-14351244D01*
X14123431Y-14351244D02*
X14121999Y-14347583D01*
X14121999Y-14347583D02*
X14105127Y-14338510D01*
X14105127Y-14338510D02*
X14091577Y-14343902D01*
X14091577Y-14343902D02*
X14086026Y-14357293D01*
X14086026Y-14357293D02*
X14092015Y-14373071D01*
X14092015Y-14373071D02*
X14103376Y-14384670D01*
X14103376Y-14384670D02*
X14118915Y-14400727D01*
X14118915Y-14400727D02*
X14132186Y-14421439D01*
X14132186Y-14421439D02*
X14132186Y-14428443D01*
X14132186Y-14428443D02*
X14073929Y-14428443D01*
X14073929Y-14428443D02*
X14073929Y-14417460D01*
X14073929Y-14417460D02*
X14076156Y-14418097D01*
X14076156Y-14418097D02*
X14077749Y-14418733D01*
X14077749Y-14418733D02*
X14119452Y-14418733D01*
X14119452Y-14418733D02*
X14105505Y-14400428D01*
X14105505Y-14400428D02*
X14092393Y-14387854D01*
X14092393Y-14387854D02*
X14081032Y-14374981D01*
X14081032Y-14374981D02*
X14075043Y-14356497D01*
X14075043Y-14356497D02*
X14083340Y-14336779D01*
X14083340Y-14336779D02*
X14103694Y-14328641D01*
X14103694Y-14328641D02*
X14119651Y-14332919D01*
X14119651Y-14332919D02*
X14131549Y-14344718D01*
X14131549Y-14344718D02*
X14131549Y-14344718D01*
D12*
X13425600Y-12099544D03*
D13*
X13171600Y-12099544D03*
D12*
X12500000Y-11468100D03*
D13*
X12500000Y-11214100D03*
D12*
X11574400Y-12099544D03*
D13*
X11828400Y-12099544D03*
D12*
X12500000Y-12735560D03*
D13*
X12500000Y-12989560D03*
D14*
X14400306Y-13500608D03*
D15*
X11316716Y-13267980D03*
D16*
X11062716Y-13267980D03*
X10808716Y-13267980D03*
X10554716Y-13267980D03*
D17*
X12725000Y-13985120D03*
X12275000Y-13985120D03*
X12725000Y-13335120D03*
X12275000Y-13335120D03*
D18*
X11850356Y-13412660D03*
X11850356Y-13912660D03*
X13150356Y-13912660D03*
X13150356Y-13412660D03*
D17*
X11160400Y-12424544D03*
X10710400Y-12424544D03*
X11160400Y-11774544D03*
X10710400Y-11774544D03*
D18*
X10285716Y-11850814D03*
X10285716Y-12350814D03*
X11585716Y-12350814D03*
X11585716Y-11850814D03*
D17*
X12175000Y-12324544D03*
X12175000Y-11874544D03*
X12825000Y-12324544D03*
X12825000Y-11874544D03*
D19*
X12750000Y-11449544D03*
X12250000Y-11449544D03*
X12250000Y-12749544D03*
X12750000Y-12749544D03*
D20*
X10552176Y-11320272D03*
D21*
X10806176Y-11320272D03*
X11060176Y-11320272D03*
X11314176Y-11320272D03*
D20*
X10552176Y-10774680D03*
D21*
X10806176Y-10774680D03*
X11060176Y-10774680D03*
X11314176Y-10774680D03*
D17*
X13839600Y-11749540D03*
X14289600Y-11749540D03*
X13839600Y-12399540D03*
X14289600Y-12399540D03*
D18*
X14714996Y-12348020D03*
X14714996Y-11848020D03*
X13414996Y-11848020D03*
X13414996Y-12348020D03*
D20*
X13711428Y-11320272D03*
D21*
X13965428Y-11320272D03*
X14219428Y-11320272D03*
X14473428Y-11320272D03*
D20*
X13711428Y-10774680D03*
D21*
X13965428Y-10774680D03*
X14219428Y-10774680D03*
X14473428Y-10774680D03*
D17*
X12725000Y-10871080D03*
X12275000Y-10871080D03*
X12725000Y-10221080D03*
X12275000Y-10221080D03*
D18*
X11850356Y-10294556D03*
X11850356Y-10794556D03*
X13150356Y-10794556D03*
X13150356Y-10294556D03*
D20*
X11318748Y-10229088D03*
D21*
X11064748Y-10229088D03*
X10810748Y-10229088D03*
X10556748Y-10229088D03*
D14*
X10599660Y-9592310D03*
X14402540Y-9795764D03*
D15*
X12881000Y-9723120D03*
D16*
X12627000Y-9723120D03*
X12373000Y-9723120D03*
X12119000Y-9723120D03*
D15*
X13500000Y-9250000D03*
D16*
X13246000Y-9250000D03*
X12992000Y-9250000D03*
X12738000Y-9250000D03*
X12484000Y-9250000D03*
X12230000Y-9250000D03*
X11976000Y-9250000D03*
X11722000Y-9250000D03*
X11468000Y-9250000D03*
D15*
X13500000Y-8700000D03*
D16*
X13246000Y-8700000D03*
X12992000Y-8700000D03*
X12738000Y-8700000D03*
X12484000Y-8700000D03*
X12230000Y-8700000D03*
X11976000Y-8700000D03*
X11722000Y-8700000D03*
X11468000Y-8700000D03*
D14*
X14385798Y-8405622D03*
D15*
X12881000Y-8139176D03*
D16*
X12627000Y-8139176D03*
X12373000Y-8139176D03*
X12119000Y-8139176D03*
D14*
X10610850Y-8404860D03*
D22*
X14903196Y-7273290D03*
D14*
X14903196Y-7781290D03*
D15*
X14470380Y-7349490D03*
D16*
X14470380Y-7603490D03*
D15*
X14089380Y-7739380D03*
D16*
X13835380Y-7739380D03*
X13581380Y-7739380D03*
X13327380Y-7739380D03*
X13073380Y-7739380D03*
X12819380Y-7739380D03*
X12565380Y-7739380D03*
X12311380Y-7739380D03*
X12057380Y-7739380D03*
X11803380Y-7739380D03*
X11549380Y-7739380D03*
X11295380Y-7739380D03*
X11041380Y-7739380D03*
X10787380Y-7739380D03*
X10533380Y-7739380D03*
X10279380Y-7739380D03*
X10025380Y-7739380D03*
D15*
X11869420Y-6847840D03*
D16*
X11869420Y-7101840D03*
X11615420Y-6847840D03*
X11615420Y-7101840D03*
X11361420Y-6847840D03*
X11361420Y-7101840D03*
X11107420Y-6847840D03*
X11107420Y-7101840D03*
X10853420Y-6847840D03*
X10853420Y-7101840D03*
X10599420Y-6847840D03*
X10599420Y-7101840D03*
X10345420Y-6847840D03*
X10345420Y-7101840D03*
X10091420Y-6847840D03*
X10091420Y-7101840D03*
D20*
X12758928Y-7350252D03*
D21*
X13012928Y-7350252D03*
X13266928Y-7350252D03*
X13520928Y-7350252D03*
D23*
X12629388Y-7022592D03*
D24*
X13645388Y-7022592D03*
D17*
X13397484Y-6636004D03*
X12889484Y-6635004D03*
D15*
X14089380Y-6225032D03*
D16*
X13835380Y-6225032D03*
X13581380Y-6225032D03*
X13327380Y-6225032D03*
X13073380Y-6225032D03*
X12819380Y-6225032D03*
X12565380Y-6225032D03*
X12311380Y-6225032D03*
X12057380Y-6225032D03*
X11803380Y-6225032D03*
X11549380Y-6225032D03*
X11295380Y-6225032D03*
X11041380Y-6225032D03*
X10787380Y-6225032D03*
X10533380Y-6225032D03*
X10279380Y-6225032D03*
X10025380Y-6225032D03*
D25*
X14635480Y-5773140D03*
X14132560Y-5773140D03*
X14132560Y-5168620D03*
X14635480Y-5168620D03*
D26*
X13771880Y-5895340D03*
X13771880Y-5395340D03*
X13444220Y-5394960D03*
X13444220Y-5894960D03*
D27*
X12900660Y-5758180D03*
D28*
X12138660Y-5758180D03*
D27*
X12900660Y-5532120D03*
D28*
X12138660Y-5532120D03*
D26*
X11578336Y-5895340D03*
X11578336Y-5395340D03*
D14*
X10614660Y-4501896D03*
D26*
X11257026Y-5395214D03*
X11257026Y-5895214D03*
D29*
X10444480Y-5772404D03*
X10444480Y-5012436D03*
D20*
X11244580Y-5059680D03*
D21*
X13276580Y-4297680D03*
X11498580Y-5059680D03*
X13022580Y-4297680D03*
X11752580Y-5059680D03*
X12768580Y-4297680D03*
X12006580Y-5059680D03*
X12514580Y-4297680D03*
X12260580Y-5059680D03*
X12260580Y-4297680D03*
X12514580Y-5059680D03*
X12006580Y-4297680D03*
X12768580Y-5059680D03*
X11752580Y-4297680D03*
X13022580Y-5059680D03*
X11498580Y-4297680D03*
X13276580Y-5059680D03*
X11244580Y-4297680D03*
D15*
X10142220Y-4310380D03*
D16*
X10142220Y-4564380D03*
D30*
X11297920Y-3799840D03*
X11547920Y-3799840D03*
X11797920Y-3799840D03*
X10797920Y-3799840D03*
X11047920Y-3799840D03*
X12806680Y-3799840D03*
X13056680Y-3799840D03*
X13306680Y-3799840D03*
X12306680Y-3799840D03*
X12556680Y-3799840D03*
D15*
X14765528Y-4732020D03*
D16*
X14511528Y-4732020D03*
X14257528Y-4732020D03*
X14003528Y-4732020D03*
D20*
X13997940Y-3799840D03*
D21*
X14251940Y-3799840D03*
X14505940Y-3799840D03*
X14759940Y-3799840D03*
D31*
X14003020Y-4130040D03*
D25*
X14257020Y-4130040D03*
X14511020Y-4130040D03*
D31*
X14765020Y-4130040D03*
D25*
X14765020Y-4384040D03*
X14511020Y-4384040D03*
X14262100Y-4384040D03*
X14003020Y-4384040D03*
D32*
X12500000Y-12035544D03*
X12500000Y-12163544D03*
D33*
X14897608Y-6711188D03*
D34*
X14643608Y-6711188D03*
X14389608Y-6711188D03*
D35*
X13774420Y-4457700D03*
X13647420Y-4457700D03*
X13520420Y-4457700D03*
D36*
X12057888Y-3811524D03*
D37*
X14428216Y-5459476D03*
D38*
X14778154Y-8969756D03*
X14678154Y-8969756D03*
X14578154Y-8969756D03*
X14478154Y-8969756D03*
X14378154Y-8969756D03*
X14278154Y-8969756D03*
X14178154Y-8969756D03*
X14078154Y-8969756D03*
X13978154Y-8969756D03*
X13878154Y-8969756D03*
X13778154Y-8969756D03*
X11350000Y-8969756D03*
X11250000Y-8969756D03*
X13648944Y-8970264D03*
X13369798Y-8970264D03*
X12916154Y-8969756D03*
X12662154Y-8969756D03*
X12408154Y-8969756D03*
X12154154Y-8969756D03*
X11900154Y-8969756D03*
X13106908Y-8967978D03*
X12815316Y-8967216D03*
X12560808Y-8970264D03*
X12307824Y-8969502D03*
X12052808Y-8969248D03*
X11800840Y-8969756D03*
X11545062Y-8969502D03*
X11646154Y-8969756D03*
X11150000Y-8969756D03*
X11050000Y-8969756D03*
X10950000Y-8969756D03*
X10850000Y-8969756D03*
X10750000Y-8969756D03*
X10650000Y-8969756D03*
X10550000Y-8969756D03*
X10450000Y-8969756D03*
X10350000Y-8969756D03*
X10250000Y-8969756D03*
X10150094Y-8969756D03*
D39*
X11801856Y-11399520D03*
X12438888Y-7353808D03*
X11550396Y-10511028D03*
X12390120Y-7202424D03*
X14084620Y-6964106D03*
X14843760Y-4994910D03*
X13838682Y-4981702D03*
D40*
X13444220Y-5895340D02*
X13459460Y-5895340D01*
D41*
X14289600Y-12399540D02*
X14341120Y-12348020D01*
D40*
X10787380Y-6050280D02*
X10787380Y-5787644D01*
X11012424Y-5562600D02*
X11344656Y-5562600D01*
X10787380Y-5787644D02*
X11012424Y-5562600D01*
X10787380Y-6225032D02*
X10787380Y-6050280D01*
X11752580Y-5192776D02*
X11752580Y-5059680D01*
X11705844Y-5239512D02*
X11752580Y-5192776D01*
X11502136Y-5239512D02*
X11705844Y-5239512D01*
X11416284Y-5325364D02*
X11502136Y-5239512D01*
X11416284Y-5490972D02*
X11416284Y-5325364D01*
X11344656Y-5562600D02*
X11416284Y-5490972D01*
X11041380Y-5902960D02*
X11041380Y-5739572D01*
X11482832Y-5567680D02*
X11649456Y-5567680D01*
X11383264Y-5667248D02*
X11482832Y-5567680D01*
X11113704Y-5667248D02*
X11383264Y-5667248D01*
X11041380Y-5739572D02*
X11113704Y-5667248D01*
X11041380Y-6225032D02*
X11041380Y-5902960D01*
X12006580Y-5210556D02*
X12006580Y-5059680D01*
X11649456Y-5567680D02*
X12006580Y-5210556D01*
X11295380Y-6225032D02*
X11295380Y-6145276D01*
X11295380Y-6145276D02*
X11417808Y-6022848D01*
X12260580Y-5169916D02*
X12260580Y-5059680D01*
X11757152Y-5673344D02*
X12260580Y-5169916D01*
X11564112Y-5673344D02*
X11757152Y-5673344D01*
X11417808Y-5819648D02*
X11564112Y-5673344D01*
X11417808Y-6022848D02*
X11417808Y-5819648D01*
X11803380Y-6225032D02*
X11803380Y-6217920D01*
X11803380Y-6217920D02*
X12096750Y-5924550D01*
X12096750Y-5924550D02*
X12207240Y-5924550D01*
X12207240Y-5924550D02*
X12573000Y-5558790D01*
X12573000Y-5558790D02*
X12573000Y-5255260D01*
X12573000Y-5255260D02*
X12768580Y-5059680D01*
X12057380Y-6225032D02*
X12059158Y-6225032D01*
X12059158Y-6225032D02*
X12242292Y-6041898D01*
X12743434Y-5481828D02*
X12744450Y-5481828D01*
X12743434Y-5730494D02*
X12743434Y-5481828D01*
X12432030Y-6041898D02*
X12743434Y-5730494D01*
X12242292Y-6041898D02*
X12432030Y-6041898D01*
X12744450Y-5337810D02*
X13022580Y-5059680D01*
X12744450Y-5481828D02*
X12744450Y-5337810D01*
X13045440Y-5082540D02*
X13022580Y-5059680D01*
X10444480Y-5772404D02*
X10359644Y-5772404D01*
X10142220Y-5554980D02*
X10142220Y-4564380D01*
X10359644Y-5772404D02*
X10142220Y-5554980D01*
D41*
X12500000Y-12035544D02*
X12805164Y-12035544D01*
X13551154Y-12099544D02*
X13425600Y-12099544D01*
X13666470Y-12214860D02*
X13551154Y-12099544D01*
X13666470Y-12443460D02*
X13666470Y-12214860D01*
X13578840Y-12531090D02*
X13666470Y-12443460D01*
X13300710Y-12531090D02*
X13578840Y-12531090D01*
X12805164Y-12035544D02*
X13300710Y-12531090D01*
X12500000Y-12735560D02*
X12500000Y-12400940D01*
X12307824Y-12088368D02*
X12360648Y-12035544D01*
X12307824Y-12208764D02*
X12307824Y-12088368D01*
X12500000Y-12400940D02*
X12307824Y-12208764D01*
X11574400Y-12099544D02*
X11413744Y-12099544D01*
X11413744Y-12099544D02*
X11338560Y-12024360D01*
X11338560Y-12024360D02*
X11338560Y-11761470D01*
X11338560Y-11761470D02*
X11437620Y-11662410D01*
X11437620Y-11662410D02*
X11727180Y-11662410D01*
X11727180Y-11662410D02*
X12100314Y-12035544D01*
X12100314Y-12035544D02*
X12360648Y-12035544D01*
X12360648Y-12035544D02*
X12500000Y-12035544D01*
X12500000Y-11468100D02*
X12500000Y-12035544D01*
X10806176Y-11429238D02*
X10806176Y-11320272D01*
X10893806Y-11516868D02*
X10806176Y-11429238D01*
X11684508Y-11516868D02*
X10893806Y-11516868D01*
X11801856Y-11399520D02*
X11684508Y-11516868D01*
X12725000Y-10871080D02*
X12725000Y-10221080D01*
X11850356Y-10794556D02*
X11929046Y-10794556D01*
X11929046Y-10794556D02*
X12145518Y-10578084D01*
X12352274Y-10578084D02*
X12645270Y-10871080D01*
X12145518Y-10578084D02*
X12352274Y-10578084D01*
X12645270Y-10871080D02*
X12725000Y-10871080D01*
X11923832Y-10221080D02*
X11850356Y-10294556D01*
X11850356Y-10294556D02*
X11850356Y-10794556D01*
X12438888Y-7353808D02*
X12565380Y-7480300D01*
X12565380Y-7480300D02*
X12565380Y-7739380D01*
D42*
X12565380Y-7739380D02*
X12565380Y-7737348D01*
D41*
X12339320Y-7965440D02*
X12565380Y-7739380D01*
X12066016Y-7965440D02*
X12339320Y-7965440D01*
X11960352Y-8071104D02*
X12066016Y-7965440D01*
X11960352Y-8270240D02*
X11960352Y-8071104D01*
X12222480Y-8532368D02*
X11960352Y-8270240D01*
X12301728Y-8532368D02*
X12222480Y-8532368D01*
X12469360Y-8700000D02*
X12301728Y-8532368D01*
X12484000Y-8700000D02*
X12469360Y-8700000D01*
X13839600Y-11749540D02*
X13839600Y-12399540D01*
X14714996Y-12348020D02*
X14564932Y-12348020D01*
X14564932Y-12348020D02*
X13966452Y-11749540D01*
X13966452Y-11749540D02*
X13839600Y-11749540D01*
X11550396Y-10823956D02*
X11550396Y-10511028D01*
X11790680Y-11064240D02*
X11550396Y-10823956D01*
X14355572Y-11064240D02*
X11790680Y-11064240D01*
X14714996Y-12348020D02*
X14714996Y-11848020D01*
X14473428Y-11320272D02*
X14473428Y-11182096D01*
X14473428Y-11182096D02*
X14355572Y-11064240D01*
X14473428Y-11320272D02*
X14473428Y-11606452D01*
X14473428Y-11606452D02*
X14714996Y-11848020D01*
X11079480Y-12897104D02*
X11605514Y-12897104D01*
X11850356Y-13141946D02*
X11850356Y-13412660D01*
X11605514Y-12897104D02*
X11850356Y-13141946D01*
X10634472Y-10052812D02*
X10810748Y-10229088D01*
X10410444Y-10052812D02*
X10634472Y-10052812D01*
X10036048Y-10427208D02*
X10410444Y-10052812D01*
X10036048Y-12550648D02*
X10036048Y-10427208D01*
X10382504Y-12897104D02*
X10036048Y-12550648D01*
X11079480Y-12897104D02*
X10382504Y-12897104D01*
X10806176Y-10774680D02*
X10806176Y-10970006D01*
X11975186Y-11174730D02*
X12250000Y-11449544D01*
X11010900Y-11174730D02*
X11975186Y-11174730D01*
X10806176Y-10970006D02*
X11010900Y-11174730D01*
X10285716Y-11850814D02*
X10285716Y-12350814D01*
X10552176Y-10774680D02*
X10473690Y-10774680D01*
X10473690Y-10774680D02*
X10285716Y-10962654D01*
X10285716Y-10962654D02*
X10285716Y-11850814D01*
X10853420Y-7101840D02*
X10853420Y-7673340D01*
X10853420Y-7673340D02*
X10787380Y-7739380D01*
D43*
X11062716Y-13267980D02*
X11062716Y-13437616D01*
X11062716Y-13437616D02*
X11254232Y-13629132D01*
X13830300Y-13629132D02*
X15055596Y-12403836D01*
X11254232Y-13629132D02*
X13830300Y-13629132D01*
X13246000Y-9250000D02*
X13246000Y-9451748D01*
X15055596Y-10957560D02*
X15055596Y-12403836D01*
X14463776Y-10365740D02*
X15055596Y-10957560D01*
X14159992Y-10365740D02*
X14463776Y-10365740D01*
X13246000Y-9451748D02*
X14159992Y-10365740D01*
X11060176Y-10774680D02*
X11068812Y-10774680D01*
X11068812Y-10774680D02*
X11494516Y-10348976D01*
X12627000Y-9853524D02*
X12627000Y-9723120D01*
X12550648Y-9929876D02*
X12627000Y-9853524D01*
X11818620Y-9929876D02*
X12550648Y-9929876D01*
X11494516Y-10253980D02*
X11818620Y-9929876D01*
X11494516Y-10348976D02*
X11494516Y-10253980D01*
X14291310Y-7257034D02*
X14291310Y-7728966D01*
X15008352Y-4732020D02*
X14765528Y-4732020D01*
X15083028Y-4806696D02*
X15008352Y-4732020D01*
X15083028Y-6604000D02*
X15083028Y-4806696D01*
X15083028Y-6927596D02*
X14979904Y-7030720D01*
X14979904Y-7030720D02*
X14563344Y-7030720D01*
X15083028Y-6604000D02*
X15083028Y-6927596D01*
X14291310Y-7162546D02*
X14291310Y-7257034D01*
X14423136Y-7030720D02*
X14291310Y-7162546D01*
X14563344Y-7030720D02*
X14423136Y-7030720D01*
X14291310Y-7728966D02*
X14288262Y-7732014D01*
X14288262Y-7732014D02*
X14288262Y-7837424D01*
X14288262Y-7837424D02*
X14215872Y-7909814D01*
X12627000Y-8139176D02*
X12627000Y-7931760D01*
X12627000Y-7931760D02*
X12819380Y-7739380D01*
X12819380Y-7739380D02*
X12824460Y-7739380D01*
X12824460Y-7739380D02*
X12994894Y-7909814D01*
X12994894Y-7909814D02*
X14215872Y-7909814D01*
X14215872Y-7909814D02*
X14288262Y-7837424D01*
D41*
X12627000Y-7931760D02*
X12819380Y-7739380D01*
D40*
X14805406Y-4771898D02*
X14765528Y-4732020D01*
X14765528Y-4732020D02*
X14790420Y-4732020D01*
X12824460Y-7739380D02*
X12994894Y-7909814D01*
D41*
X11041380Y-7739380D02*
X11107420Y-7673340D01*
X11107420Y-7673340D02*
X11107420Y-7101840D01*
X13045186Y-9532620D02*
X13045186Y-9536176D01*
X13711428Y-10202418D02*
X13711428Y-10774680D01*
X13045186Y-9536176D02*
X13711428Y-10202418D01*
X11976000Y-9250000D02*
X11976000Y-9286140D01*
X11976000Y-9286140D02*
X12222480Y-9532620D01*
X12222480Y-9532620D02*
X13045186Y-9532620D01*
X11361420Y-7101840D02*
X11361420Y-7673340D01*
X11361420Y-7673340D02*
X11295380Y-7739380D01*
D42*
X11976000Y-9250000D02*
X11976000Y-9250018D01*
D41*
X13072110Y-9437370D02*
X13079730Y-9437370D01*
X14169390Y-10527030D02*
X14219428Y-10527030D01*
X13079730Y-9437370D02*
X14169390Y-10527030D01*
X12230000Y-9250000D02*
X12230000Y-9334400D01*
X12230000Y-9334400D02*
X12332970Y-9437370D01*
X12332970Y-9437370D02*
X13072110Y-9437370D01*
X12230000Y-9250000D02*
X12233230Y-9250000D01*
X14219428Y-10527030D02*
X14219428Y-10774680D01*
X11615420Y-7101840D02*
X11615420Y-7673340D01*
X11615420Y-7673340D02*
X11549380Y-7739380D01*
D42*
X12230000Y-9250000D02*
X12201824Y-9250000D01*
D41*
X12388215Y-7200519D02*
X12389358Y-7199376D01*
X12390120Y-7202424D02*
X12388215Y-7200519D01*
X11107420Y-6847840D02*
X11107420Y-6635750D01*
X12124182Y-6412230D02*
X12311380Y-6225032D01*
X11330940Y-6412230D02*
X12124182Y-6412230D01*
X11107420Y-6635750D02*
X11330940Y-6412230D01*
X13012928Y-7350252D02*
X13012928Y-7272020D01*
X13012928Y-7272020D02*
X12940284Y-7199376D01*
X12940284Y-7199376D02*
X12389358Y-7199376D01*
X12057380Y-7531354D02*
X12057380Y-7739380D01*
X12389358Y-7199376D02*
X12057380Y-7531354D01*
X10554716Y-13267980D02*
X10300752Y-13267980D01*
X12119000Y-9723120D02*
X11870944Y-9723120D01*
X11870944Y-9723120D02*
X11629136Y-9964928D01*
X11629136Y-9964928D02*
X10383833Y-9964928D01*
X10383833Y-9964928D02*
X9955088Y-10393673D01*
X9955088Y-10393673D02*
X9955088Y-12922316D01*
X9955088Y-12922316D02*
X10300752Y-13267980D01*
X11803380Y-7739380D02*
X11803380Y-7612380D01*
X12367260Y-7048500D02*
X12367260Y-6423152D01*
X11803380Y-7612380D02*
X12367260Y-7048500D01*
X13520928Y-7350252D02*
X13520928Y-7328154D01*
X13520928Y-7328154D02*
X13001752Y-6808978D01*
X12565380Y-6568440D02*
X12565380Y-6225032D01*
X12805918Y-6808978D02*
X12565380Y-6568440D01*
X13001752Y-6808978D02*
X12805918Y-6808978D01*
X11361420Y-6847840D02*
X11361420Y-6800850D01*
X11361420Y-6800850D02*
X11662410Y-6499860D01*
X11662410Y-6499860D02*
X12290552Y-6499860D01*
X12290552Y-6499860D02*
X12367260Y-6423152D01*
X12367260Y-6423152D02*
X12565380Y-6225032D01*
X10279380Y-6225032D02*
X10279380Y-6273800D01*
X10279380Y-6273800D02*
X10853420Y-6847840D01*
X10279380Y-6198870D02*
X9963150Y-5882640D01*
X9963150Y-5882640D02*
X9963150Y-4489450D01*
X9963150Y-4489450D02*
X10142220Y-4310380D01*
X10279380Y-6225032D02*
X10279380Y-6198870D01*
X13520420Y-4457700D02*
X13520420Y-3763010D01*
X13520420Y-3763010D02*
X13477240Y-3719830D01*
X10091420Y-6847840D02*
X10091420Y-6511544D01*
X13384530Y-3627120D02*
X13477240Y-3719830D01*
X10488930Y-3627120D02*
X13384530Y-3627120D01*
X9867646Y-4248404D02*
X10488930Y-3627120D01*
X9867646Y-6287770D02*
X9867646Y-4248404D01*
X10091420Y-6511544D02*
X9867646Y-6287770D01*
D44*
X14083030Y-6851904D02*
X14083030Y-6962516D01*
X14083030Y-6962516D02*
X14084620Y-6964106D01*
X14278864Y-5919444D02*
X14132560Y-5773140D01*
X14278864Y-6468352D02*
X14278864Y-5919444D01*
X14083030Y-6664186D02*
X14278864Y-6468352D01*
X14083030Y-6851904D02*
X14083030Y-6664186D01*
X11213084Y-4037076D02*
X11013948Y-4236212D01*
X11678412Y-4037076D02*
X11213084Y-4037076D01*
X11013948Y-4236212D02*
X11013948Y-5208908D01*
X11797920Y-3917568D02*
X11678412Y-4037076D01*
X11898884Y-4037076D02*
X11797920Y-3936112D01*
X13197840Y-4037076D02*
X11898884Y-4037076D01*
X13306680Y-3928236D02*
X13197840Y-4037076D01*
X13276580Y-4297680D02*
X13276580Y-4612640D01*
X13276580Y-4612640D02*
X13832560Y-5168620D01*
X13832560Y-5168620D02*
X14132560Y-5168620D01*
X11797920Y-3799840D02*
X11797920Y-3917568D01*
X11013948Y-5208908D02*
X11200380Y-5395340D01*
X13306680Y-3799840D02*
X13306680Y-3928236D01*
X11797920Y-3936112D02*
X11797920Y-3799840D01*
X11797920Y-3799840D02*
X11797920Y-3868548D01*
D41*
X13844270Y-6057392D02*
X13928090Y-6057392D01*
X13981176Y-5548884D02*
X14288516Y-5241544D01*
X13981176Y-6004306D02*
X13981176Y-5548884D01*
X13928090Y-6057392D02*
X13981176Y-6004306D01*
X13327380Y-6225032D02*
X13327380Y-6214364D01*
X13327380Y-6214364D02*
X13484352Y-6057392D01*
X13484352Y-6057392D02*
X13844270Y-6057392D01*
X14257528Y-4732020D02*
X14257528Y-5042916D01*
X14257528Y-5042916D02*
X14288516Y-5073904D01*
X14288516Y-5073904D02*
X14288516Y-5241544D01*
X14511020Y-4130040D02*
X14478000Y-4130040D01*
X14478000Y-4130040D02*
X14320520Y-3972560D01*
X14320520Y-3972560D02*
X14170660Y-3972560D01*
X14170660Y-3972560D02*
X13997940Y-3799840D01*
D42*
X13621258Y-7577328D02*
X13986764Y-7577328D01*
X14188440Y-6705600D02*
X14397990Y-6496050D01*
X14188440Y-7375652D02*
X14188440Y-6705600D01*
X13986764Y-7577328D02*
X14188440Y-7375652D01*
X14383512Y-4815078D02*
X14383512Y-4847082D01*
X14383512Y-4643628D02*
X14383512Y-4815078D01*
X14511020Y-4516120D02*
X14383512Y-4643628D01*
X14511020Y-4384040D02*
X14511020Y-4516120D01*
X14383512Y-4847082D02*
X14508480Y-4972050D01*
X14508480Y-4972050D02*
X14683740Y-4972050D01*
X14683740Y-4972050D02*
X14866174Y-5154484D01*
X14866174Y-5154484D02*
X14866174Y-6259260D01*
X14866174Y-6259260D02*
X14629384Y-6496050D01*
X14629384Y-6496050D02*
X14397990Y-6496050D01*
X13260324Y-7577328D02*
X13621258Y-7577328D01*
X13098272Y-7739380D02*
X13260324Y-7577328D01*
X13073380Y-7739380D02*
X13098272Y-7739380D01*
D41*
X13073380Y-7739380D02*
X13101066Y-7739380D01*
X13838682Y-4981702D02*
X13838682Y-4976622D01*
X13774420Y-4912360D02*
X13774420Y-4457700D01*
X13838682Y-4976622D02*
X13774420Y-4912360D01*
D40*
X14971588Y-5122738D02*
X14971588Y-5280660D01*
X14843760Y-4994910D02*
X14971588Y-5122738D01*
X14971588Y-5839460D02*
X14971588Y-5280660D01*
X14643608Y-6603304D02*
X14971588Y-6275324D01*
X14971588Y-6275324D02*
X14971588Y-5839460D01*
X14643608Y-6711188D02*
X14643608Y-6603304D01*
D41*
X13647420Y-4457700D02*
X13647420Y-3733800D01*
X13737336Y-3643884D02*
X13748766Y-3643884D01*
X13647420Y-3733800D02*
X13737336Y-3643884D01*
X14251940Y-3683000D02*
X14251940Y-3799840D01*
X14212824Y-3643884D02*
X14251940Y-3683000D01*
X13748766Y-3643884D02*
X14212824Y-3643884D01*
X14765020Y-4384040D02*
X14894560Y-4384040D01*
X14447520Y-3962400D02*
X14284960Y-3799840D01*
X14886940Y-3962400D02*
X14447520Y-3962400D01*
X14930120Y-4005580D02*
X14886940Y-3962400D01*
X14930120Y-4348480D02*
X14930120Y-4005580D01*
X14894560Y-4384040D02*
X14930120Y-4348480D01*
X14284960Y-3799840D02*
X14251940Y-3799840D01*
D42*
X14071854Y-6242558D02*
X14089380Y-6225032D01*
D40*
X13835380Y-6225032D02*
X13835380Y-6210300D01*
M02*
