G04 #@! TF.FileFunction,Legend,Bot*
%FSLAX45Y45*%
G04 Gerber Fmt 4.5, Leading zero omitted, Abs format (unit mm)*
G04 Created by KiCad (PCBNEW 4.0.6-e0-6349~53~ubuntu16.04.1) date Mon Apr 24 10:06:38 2017*
%MOMM*%
%LPD*%
G01*
G04 APERTURE LIST*
%ADD10C,0.020000*%
%ADD11C,0.120000*%
%ADD12C,0.150000*%
G04 APERTURE END LIST*
D10*
D11*
X15155608Y-6449188D02*
X14131608Y-6449188D01*
X15155608Y-6913288D02*
X14131608Y-6913288D01*
X15155608Y-6449188D02*
X15155608Y-6913288D01*
X14131608Y-6449188D02*
X14131608Y-6913288D01*
X15155608Y-6600188D02*
X14131608Y-6600188D01*
X14828608Y-6449188D02*
X14828608Y-6600188D01*
X14458508Y-6449188D02*
X14458508Y-6600188D01*
X13838420Y-4546700D02*
X13456420Y-4546700D01*
X13456420Y-4546700D02*
X13456420Y-4368700D01*
X13456420Y-4368700D02*
X13838420Y-4368700D01*
X13838420Y-4546700D02*
X13838420Y-4368700D01*
X12589000Y-11972544D02*
X12589000Y-12226544D01*
X12411000Y-12226544D02*
X12411000Y-11972544D01*
X12411000Y-12226544D02*
X12589000Y-12226544D01*
X12589000Y-11972544D02*
X12411000Y-11972544D01*
D12*
X14719798Y-6294426D02*
X14719798Y-6375378D01*
X14715037Y-6384902D01*
X14710275Y-6389664D01*
X14700751Y-6394426D01*
X14681703Y-6394426D01*
X14672179Y-6389664D01*
X14667417Y-6384902D01*
X14662656Y-6375378D01*
X14662656Y-6294426D01*
X14572179Y-6294426D02*
X14591227Y-6294426D01*
X14600751Y-6299188D01*
X14605513Y-6303950D01*
X14615037Y-6318236D01*
X14619798Y-6337283D01*
X14619798Y-6375378D01*
X14615037Y-6384902D01*
X14610275Y-6389664D01*
X14600751Y-6394426D01*
X14581703Y-6394426D01*
X14572179Y-6389664D01*
X14567417Y-6384902D01*
X14562656Y-6375378D01*
X14562656Y-6351569D01*
X14567417Y-6342045D01*
X14572179Y-6337283D01*
X14581703Y-6332521D01*
X14600751Y-6332521D01*
X14610275Y-6337283D01*
X14615037Y-6342045D01*
X14619798Y-6351569D01*
X13761706Y-4668176D02*
X13747420Y-4672938D01*
X13723610Y-4672938D01*
X13714087Y-4668176D01*
X13709325Y-4663414D01*
X13704563Y-4653891D01*
X13704563Y-4644367D01*
X13709325Y-4634843D01*
X13714087Y-4630081D01*
X13723610Y-4625319D01*
X13742658Y-4620557D01*
X13752182Y-4615795D01*
X13756944Y-4611033D01*
X13761706Y-4601510D01*
X13761706Y-4591986D01*
X13756944Y-4582462D01*
X13752182Y-4577700D01*
X13742658Y-4572938D01*
X13718848Y-4572938D01*
X13704563Y-4577700D01*
X13633134Y-4572938D02*
X13633134Y-4644367D01*
X13637896Y-4658652D01*
X13647420Y-4668176D01*
X13661706Y-4672938D01*
X13671229Y-4672938D01*
X13533134Y-4672938D02*
X13590277Y-4672938D01*
X13561706Y-4672938D02*
X13561706Y-4572938D01*
X13571229Y-4587224D01*
X13580753Y-4596748D01*
X13590277Y-4601510D01*
X12362476Y-11985258D02*
X12367238Y-11999544D01*
X12367238Y-12023354D01*
X12362476Y-12032877D01*
X12357714Y-12037639D01*
X12348190Y-12042401D01*
X12338667Y-12042401D01*
X12329143Y-12037639D01*
X12324381Y-12032877D01*
X12319619Y-12023354D01*
X12314857Y-12004306D01*
X12310095Y-11994782D01*
X12305333Y-11990020D01*
X12295809Y-11985258D01*
X12286286Y-11985258D01*
X12276762Y-11990020D01*
X12272000Y-11994782D01*
X12267238Y-12004306D01*
X12267238Y-12028115D01*
X12272000Y-12042401D01*
X12267238Y-12113830D02*
X12338667Y-12113830D01*
X12352952Y-12109068D01*
X12362476Y-12099544D01*
X12367238Y-12085258D01*
X12367238Y-12075734D01*
X12276762Y-12156687D02*
X12272000Y-12161449D01*
X12267238Y-12170973D01*
X12267238Y-12194782D01*
X12272000Y-12204306D01*
X12276762Y-12209068D01*
X12286286Y-12213830D01*
X12295809Y-12213830D01*
X12310095Y-12209068D01*
X12367238Y-12151925D01*
X12367238Y-12213830D01*
M02*
