G04 #@! TF.FileFunction,Legend,Top*
%FSLAX45Y45*%
G04 Gerber Fmt 4.5, Leading zero omitted, Abs format (unit mm)*
G04 Created by KiCad (PCBNEW 4.0.6-e0-6349~53~ubuntu16.04.1) date Fri May  5 10:31:02 2017*
%MOMM*%
%LPD*%
G01*
G04 APERTURE LIST*
%ADD10C,0.020000*%
%ADD11C,0.120000*%
%ADD12C,0.155643*%
%ADD13C,0.150000*%
G04 APERTURE END LIST*
D10*
D11*
X11105580Y-4578680D02*
G75*
G02X11105580Y-4778680I0J-100000D01*
G01*
D12*
X10229479Y-3493136D02*
X10204755Y-3493756D01*
X10204755Y-3493756D02*
X10180365Y-3495596D01*
X10180365Y-3495596D02*
X10156337Y-3498627D01*
X10156337Y-3498627D02*
X10132701Y-3502819D01*
X10132701Y-3502819D02*
X10109487Y-3508142D01*
X10109487Y-3508142D02*
X10086724Y-3514567D01*
X10086724Y-3514567D02*
X10064443Y-3522064D01*
X10064443Y-3522064D02*
X10042673Y-3530604D01*
X10042673Y-3530604D02*
X10021443Y-3540156D01*
X10021443Y-3540156D02*
X10000783Y-3550692D01*
X10000783Y-3550692D02*
X9980722Y-3562182D01*
X9980722Y-3562182D02*
X9961291Y-3574596D01*
X9961291Y-3574596D02*
X9942519Y-3587904D01*
X9942519Y-3587904D02*
X9924436Y-3602078D01*
X9924436Y-3602078D02*
X9907071Y-3617087D01*
X9907071Y-3617087D02*
X9890453Y-3632901D01*
X9890453Y-3632901D02*
X9874614Y-3649492D01*
X9874614Y-3649492D02*
X9859581Y-3666829D01*
X9859581Y-3666829D02*
X9845385Y-3684883D01*
X9845385Y-3684883D02*
X9832056Y-3703624D01*
X9832056Y-3703624D02*
X9819622Y-3723023D01*
X9819622Y-3723023D02*
X9808114Y-3743050D01*
X9808114Y-3743050D02*
X9797562Y-3763676D01*
X9797562Y-3763676D02*
X9787994Y-3784870D01*
X9787994Y-3784870D02*
X9779442Y-3806604D01*
X9779442Y-3806604D02*
X9771933Y-3828847D01*
X9771933Y-3828847D02*
X9765498Y-3851571D01*
X9765498Y-3851571D02*
X9760167Y-3874745D01*
X9760167Y-3874745D02*
X9755969Y-3898340D01*
X9755969Y-3898340D02*
X9752933Y-3922326D01*
X9752933Y-3922326D02*
X9751091Y-3946674D01*
X9751091Y-3946674D02*
X9750470Y-3971354D01*
X9750470Y-3971354D02*
X9750470Y-8508201D01*
X9750470Y-8508201D02*
X9751130Y-8533622D01*
X9751130Y-8533622D02*
X9753088Y-8558685D01*
X9753088Y-8558685D02*
X9756312Y-8583357D01*
X9756312Y-8583357D02*
X9760770Y-8607607D01*
X9760770Y-8607607D02*
X9766428Y-8631403D01*
X9766428Y-8631403D02*
X9773254Y-8654713D01*
X9773254Y-8654713D02*
X9781215Y-8677504D01*
X9781215Y-8677504D02*
X9790280Y-8699745D01*
X9790280Y-8699745D02*
X9800414Y-8721404D01*
X9800414Y-8721404D02*
X9811587Y-8742449D01*
X9811587Y-8742449D02*
X9823764Y-8762848D01*
X9823764Y-8762848D02*
X9836915Y-8782569D01*
X9836915Y-8782569D02*
X9851005Y-8801579D01*
X9851005Y-8801579D02*
X9866002Y-8819848D01*
X9866002Y-8819848D02*
X9881875Y-8837342D01*
X9881875Y-8837342D02*
X9898589Y-8854031D01*
X9898589Y-8854031D02*
X9916114Y-8869881D01*
X9916114Y-8869881D02*
X9934415Y-8884861D01*
X9934415Y-8884861D02*
X9953461Y-8898940D01*
X9953461Y-8898940D02*
X9973219Y-8912084D01*
X9973219Y-8912084D02*
X9993656Y-8924263D01*
X9993656Y-8924263D02*
X10014740Y-8935444D01*
X10014740Y-8935444D02*
X10036438Y-8945594D01*
X10036438Y-8945594D02*
X10058718Y-8954683D01*
X10058718Y-8954683D02*
X10081546Y-8962678D01*
X10081546Y-8962678D02*
X10104892Y-8969548D01*
X10104892Y-8969548D02*
X10081522Y-8976642D01*
X10081522Y-8976642D02*
X10058673Y-8984854D01*
X10058673Y-8984854D02*
X10036377Y-8994155D01*
X10036377Y-8994155D02*
X10014667Y-9004510D01*
X10014667Y-9004510D02*
X9993574Y-9015890D01*
X9993574Y-9015890D02*
X9973131Y-9028261D01*
X9973131Y-9028261D02*
X9953371Y-9041593D01*
X9953371Y-9041593D02*
X9934326Y-9055853D01*
X9934326Y-9055853D02*
X9916027Y-9071010D01*
X9916027Y-9071010D02*
X9898508Y-9087032D01*
X9898508Y-9087032D02*
X9881800Y-9103887D01*
X9881800Y-9103887D02*
X9865936Y-9121543D01*
X9865936Y-9121543D02*
X9850948Y-9139969D01*
X9850948Y-9139969D02*
X9836869Y-9159133D01*
X9836869Y-9159133D02*
X9823730Y-9179003D01*
X9823730Y-9179003D02*
X9811564Y-9199548D01*
X9811564Y-9199548D02*
X9800404Y-9220735D01*
X9800404Y-9220735D02*
X9790282Y-9242533D01*
X9790282Y-9242533D02*
X9781229Y-9264910D01*
X9781229Y-9264910D02*
X9773278Y-9287835D01*
X9773278Y-9287835D02*
X9766462Y-9311275D01*
X9766462Y-9311275D02*
X9760813Y-9335199D01*
X9760813Y-9335199D02*
X9756363Y-9359575D01*
X9756363Y-9359575D02*
X9753145Y-9384371D01*
X9753145Y-9384371D02*
X9751190Y-9409556D01*
X9751190Y-9409556D02*
X9750531Y-9435097D01*
X9750531Y-9435097D02*
X9750531Y-14023287D01*
X9750531Y-14023287D02*
X9751159Y-14048245D01*
X9751159Y-14048245D02*
X9753024Y-14072868D01*
X9753024Y-14072868D02*
X9756094Y-14097125D01*
X9756094Y-14097125D02*
X9760341Y-14120986D01*
X9760341Y-14120986D02*
X9765735Y-14144421D01*
X9765735Y-14144421D02*
X9772244Y-14167400D01*
X9772244Y-14167400D02*
X9779840Y-14189893D01*
X9779840Y-14189893D02*
X9788492Y-14211871D01*
X9788492Y-14211871D02*
X9798170Y-14233304D01*
X9798170Y-14233304D02*
X9808845Y-14254161D01*
X9808845Y-14254161D02*
X9820486Y-14274412D01*
X9820486Y-14274412D02*
X9833063Y-14294029D01*
X9833063Y-14294029D02*
X9846546Y-14312980D01*
X9846546Y-14312980D02*
X9860906Y-14331236D01*
X9860906Y-14331236D02*
X9876112Y-14348767D01*
X9876112Y-14348767D02*
X9892135Y-14365543D01*
X9892135Y-14365543D02*
X9908943Y-14381534D01*
X9908943Y-14381534D02*
X9926508Y-14396710D01*
X9926508Y-14396710D02*
X9944800Y-14411041D01*
X9944800Y-14411041D02*
X9963787Y-14424498D01*
X9963787Y-14424498D02*
X9983441Y-14437050D01*
X9983441Y-14437050D02*
X10003731Y-14448668D01*
X10003731Y-14448668D02*
X10024628Y-14459321D01*
X10024628Y-14459321D02*
X10046101Y-14468980D01*
X10046101Y-14468980D02*
X10068120Y-14477615D01*
X10068120Y-14477615D02*
X10090656Y-14485195D01*
X10090656Y-14485195D02*
X10113677Y-14491691D01*
X10113677Y-14491691D02*
X10137156Y-14497074D01*
X10137156Y-14497074D02*
X10161060Y-14501312D01*
X10161060Y-14501312D02*
X10185361Y-14504376D01*
X10185361Y-14504376D02*
X10210028Y-14506237D01*
X10210028Y-14506237D02*
X10235032Y-14506864D01*
X10235032Y-14506864D02*
X14764968Y-14506864D01*
X14764968Y-14506864D02*
X14789972Y-14506237D01*
X14789972Y-14506237D02*
X14814638Y-14504376D01*
X14814638Y-14504376D02*
X14838938Y-14501312D01*
X14838938Y-14501312D02*
X14862842Y-14497074D01*
X14862842Y-14497074D02*
X14886318Y-14491691D01*
X14886318Y-14491691D02*
X14909339Y-14485195D01*
X14909339Y-14485195D02*
X14931872Y-14477615D01*
X14931872Y-14477615D02*
X14953890Y-14468980D01*
X14953890Y-14468980D02*
X14975360Y-14459321D01*
X14975360Y-14459321D02*
X14996254Y-14448668D01*
X14996254Y-14448668D02*
X15016542Y-14437050D01*
X15016542Y-14437050D02*
X15036194Y-14424498D01*
X15036194Y-14424498D02*
X15055178Y-14411041D01*
X15055178Y-14411041D02*
X15073467Y-14396710D01*
X15073467Y-14396710D02*
X15091029Y-14381534D01*
X15091029Y-14381534D02*
X15107835Y-14365543D01*
X15107835Y-14365543D02*
X15123855Y-14348767D01*
X15123855Y-14348767D02*
X15139058Y-14331236D01*
X15139058Y-14331236D02*
X15153415Y-14312980D01*
X15153415Y-14312980D02*
X15166896Y-14294029D01*
X15166896Y-14294029D02*
X15179470Y-14274412D01*
X15179470Y-14274412D02*
X15191109Y-14254161D01*
X15191109Y-14254161D02*
X15201781Y-14233304D01*
X15201781Y-14233304D02*
X15211457Y-14211871D01*
X15211457Y-14211871D02*
X15220107Y-14189893D01*
X15220107Y-14189893D02*
X15227701Y-14167400D01*
X15227701Y-14167400D02*
X15234209Y-14144421D01*
X15234209Y-14144421D02*
X15239601Y-14120986D01*
X15239601Y-14120986D02*
X15243847Y-14097125D01*
X15243847Y-14097125D02*
X15246917Y-14072868D01*
X15246917Y-14072868D02*
X15248780Y-14048245D01*
X15248780Y-14048245D02*
X15249408Y-14023287D01*
X15249408Y-14023287D02*
X15249408Y-9435097D01*
X15249408Y-9435097D02*
X15248750Y-9409557D01*
X15248750Y-9409557D02*
X15246796Y-9384374D01*
X15246796Y-9384374D02*
X15243578Y-9359579D01*
X15243578Y-9359579D02*
X15239129Y-9335204D01*
X15239129Y-9335204D02*
X15233481Y-9311281D01*
X15233481Y-9311281D02*
X15226667Y-9287842D01*
X15226667Y-9287842D02*
X15218718Y-9264919D01*
X15218718Y-9264919D02*
X15209668Y-9242542D01*
X15209668Y-9242542D02*
X15199547Y-9220745D01*
X15199547Y-9220745D02*
X15188390Y-9199558D01*
X15188390Y-9199558D02*
X15176227Y-9179014D01*
X15176227Y-9179014D02*
X15163091Y-9159144D01*
X15163091Y-9159144D02*
X15149014Y-9139979D01*
X15149014Y-9139979D02*
X15134029Y-9121553D01*
X15134029Y-9121553D02*
X15118168Y-9103897D01*
X15118168Y-9103897D02*
X15101463Y-9087041D01*
X15101463Y-9087041D02*
X15083947Y-9071019D01*
X15083947Y-9071019D02*
X15065652Y-9055861D01*
X15065652Y-9055861D02*
X15046609Y-9041601D01*
X15046609Y-9041601D02*
X15026852Y-9028268D01*
X15026852Y-9028268D02*
X15006412Y-9015896D01*
X15006412Y-9015896D02*
X14985323Y-9004515D01*
X14985323Y-9004515D02*
X14963615Y-8994159D01*
X14963615Y-8994159D02*
X14941322Y-8984857D01*
X14941322Y-8984857D02*
X14918476Y-8976643D01*
X14918476Y-8976643D02*
X14895108Y-8969548D01*
X14895108Y-8969548D02*
X14918452Y-8962678D01*
X14918452Y-8962678D02*
X14941280Y-8954682D01*
X14941280Y-8954682D02*
X14963559Y-8945592D01*
X14963559Y-8945592D02*
X14985256Y-8935441D01*
X14985256Y-8935441D02*
X15006340Y-8924259D01*
X15006340Y-8924259D02*
X15026777Y-8912080D01*
X15026777Y-8912080D02*
X15046534Y-8898935D01*
X15046534Y-8898935D02*
X15065580Y-8884856D01*
X15065580Y-8884856D02*
X15083881Y-8869876D01*
X15083881Y-8869876D02*
X15101406Y-8854025D01*
X15101406Y-8854025D02*
X15118120Y-8837336D01*
X15118120Y-8837336D02*
X15133993Y-8819842D01*
X15133993Y-8819842D02*
X15148991Y-8801573D01*
X15148991Y-8801573D02*
X15163081Y-8782563D01*
X15163081Y-8782563D02*
X15176232Y-8762842D01*
X15176232Y-8762842D02*
X15188410Y-8742444D01*
X15188410Y-8742444D02*
X15199583Y-8721399D01*
X15199583Y-8721399D02*
X15209718Y-8699740D01*
X15209718Y-8699740D02*
X15218783Y-8677500D01*
X15218783Y-8677500D02*
X15226745Y-8654709D01*
X15226745Y-8654709D02*
X15233571Y-8631400D01*
X15233571Y-8631400D02*
X15239230Y-8607604D01*
X15239230Y-8607604D02*
X15243687Y-8583355D01*
X15243687Y-8583355D02*
X15246912Y-8558683D01*
X15246912Y-8558683D02*
X15248870Y-8533621D01*
X15248870Y-8533621D02*
X15249530Y-8508201D01*
X15249530Y-8508201D02*
X15249530Y-3971354D01*
X15249530Y-3971354D02*
X15248909Y-3946674D01*
X15248909Y-3946674D02*
X15247066Y-3922326D01*
X15247066Y-3922326D02*
X15244030Y-3898340D01*
X15244030Y-3898340D02*
X15239830Y-3874745D01*
X15239830Y-3874745D02*
X15234498Y-3851571D01*
X15234498Y-3851571D02*
X15228061Y-3828847D01*
X15228061Y-3828847D02*
X15220551Y-3806604D01*
X15220551Y-3806604D02*
X15211996Y-3784870D01*
X15211996Y-3784870D02*
X15202426Y-3763676D01*
X15202426Y-3763676D02*
X15191872Y-3743050D01*
X15191872Y-3743050D02*
X15180361Y-3723023D01*
X15180361Y-3723023D02*
X15167925Y-3703624D01*
X15167925Y-3703624D02*
X15154593Y-3684883D01*
X15154593Y-3684883D02*
X15140394Y-3666829D01*
X15140394Y-3666829D02*
X15125359Y-3649492D01*
X15125359Y-3649492D02*
X15109516Y-3632901D01*
X15109516Y-3632901D02*
X15092896Y-3617087D01*
X15092896Y-3617087D02*
X15075528Y-3602078D01*
X15075528Y-3602078D02*
X15057442Y-3587904D01*
X15057442Y-3587904D02*
X15038667Y-3574596D01*
X15038667Y-3574596D02*
X15019234Y-3562182D01*
X15019234Y-3562182D02*
X14999171Y-3550692D01*
X14999171Y-3550692D02*
X14978508Y-3540156D01*
X14978508Y-3540156D02*
X14957276Y-3530604D01*
X14957276Y-3530604D02*
X14935503Y-3522064D01*
X14935503Y-3522064D02*
X14913220Y-3514567D01*
X14913220Y-3514567D02*
X14890456Y-3508142D01*
X14890456Y-3508142D02*
X14867241Y-3502819D01*
X14867241Y-3502819D02*
X14843604Y-3498627D01*
X14843604Y-3498627D02*
X14819575Y-3495596D01*
X14819575Y-3495596D02*
X14795184Y-3493756D01*
X14795184Y-3493756D02*
X14770460Y-3493136D01*
X14770460Y-3493136D02*
X10229479Y-3493136D01*
X10229479Y-3493136D02*
X10204755Y-3493756D01*
X10204755Y-3493756D02*
X10180365Y-3495596D01*
X10180365Y-3495596D02*
X10156337Y-3498627D01*
X10156337Y-3498627D02*
X10132701Y-3502819D01*
X10132701Y-3502819D02*
X10109487Y-3508142D01*
X10109487Y-3508142D02*
X10086724Y-3514567D01*
X10086724Y-3514567D02*
X10064443Y-3522064D01*
X10064443Y-3522064D02*
X10042673Y-3530604D01*
X10042673Y-3530604D02*
X10021443Y-3540156D01*
X10021443Y-3540156D02*
X10000783Y-3550692D01*
X10000783Y-3550692D02*
X9980722Y-3562182D01*
X9980722Y-3562182D02*
X9961291Y-3574596D01*
X9961291Y-3574596D02*
X9942519Y-3587904D01*
X9942519Y-3587904D02*
X9924436Y-3602078D01*
X9924436Y-3602078D02*
X9907071Y-3617087D01*
X9907071Y-3617087D02*
X9890453Y-3632901D01*
X9890453Y-3632901D02*
X9874614Y-3649492D01*
X9874614Y-3649492D02*
X9859581Y-3666829D01*
X9859581Y-3666829D02*
X9845385Y-3684883D01*
X9845385Y-3684883D02*
X9832056Y-3703624D01*
X9832056Y-3703624D02*
X9819622Y-3723023D01*
X9819622Y-3723023D02*
X9808114Y-3743050D01*
X9808114Y-3743050D02*
X9797562Y-3763676D01*
X9797562Y-3763676D02*
X9787994Y-3784870D01*
X9787994Y-3784870D02*
X9779442Y-3806604D01*
X9779442Y-3806604D02*
X9771933Y-3828847D01*
X9771933Y-3828847D02*
X9765498Y-3851571D01*
X9765498Y-3851571D02*
X9760167Y-3874745D01*
X9760167Y-3874745D02*
X9755969Y-3898340D01*
X9755969Y-3898340D02*
X9752933Y-3922326D01*
X9752933Y-3922326D02*
X9751091Y-3946674D01*
X9751091Y-3946674D02*
X9750470Y-3971354D01*
X9750470Y-3971354D02*
X9750470Y-8508201D01*
X9750470Y-8508201D02*
X9751130Y-8533622D01*
X9751130Y-8533622D02*
X9753088Y-8558685D01*
X9753088Y-8558685D02*
X9756312Y-8583357D01*
X9756312Y-8583357D02*
X9760770Y-8607607D01*
X9760770Y-8607607D02*
X9766428Y-8631403D01*
X9766428Y-8631403D02*
X9773254Y-8654713D01*
X9773254Y-8654713D02*
X9781215Y-8677504D01*
X9781215Y-8677504D02*
X9790280Y-8699745D01*
X9790280Y-8699745D02*
X9800414Y-8721404D01*
X9800414Y-8721404D02*
X9811587Y-8742449D01*
X9811587Y-8742449D02*
X9823764Y-8762848D01*
X9823764Y-8762848D02*
X9836915Y-8782569D01*
X9836915Y-8782569D02*
X9851005Y-8801579D01*
X9851005Y-8801579D02*
X9866002Y-8819848D01*
X9866002Y-8819848D02*
X9881875Y-8837342D01*
X9881875Y-8837342D02*
X9898589Y-8854031D01*
X9898589Y-8854031D02*
X9916114Y-8869881D01*
X9916114Y-8869881D02*
X9934415Y-8884861D01*
X9934415Y-8884861D02*
X9953461Y-8898940D01*
X9953461Y-8898940D02*
X9973219Y-8912084D01*
X9973219Y-8912084D02*
X9993656Y-8924263D01*
X9993656Y-8924263D02*
X10014740Y-8935444D01*
X10014740Y-8935444D02*
X10036438Y-8945594D01*
X10036438Y-8945594D02*
X10058718Y-8954683D01*
X10058718Y-8954683D02*
X10081546Y-8962678D01*
X10081546Y-8962678D02*
X10104892Y-8969548D01*
X10104892Y-8969548D02*
X10081522Y-8976642D01*
X10081522Y-8976642D02*
X10058673Y-8984854D01*
X10058673Y-8984854D02*
X10036377Y-8994155D01*
X10036377Y-8994155D02*
X10014667Y-9004510D01*
X10014667Y-9004510D02*
X9993574Y-9015890D01*
X9993574Y-9015890D02*
X9973131Y-9028261D01*
X9973131Y-9028261D02*
X9953371Y-9041593D01*
X9953371Y-9041593D02*
X9934326Y-9055853D01*
X9934326Y-9055853D02*
X9916027Y-9071010D01*
X9916027Y-9071010D02*
X9898508Y-9087032D01*
X9898508Y-9087032D02*
X9881800Y-9103887D01*
X9881800Y-9103887D02*
X9865936Y-9121543D01*
X9865936Y-9121543D02*
X9850948Y-9139969D01*
X9850948Y-9139969D02*
X9836869Y-9159133D01*
X9836869Y-9159133D02*
X9823730Y-9179003D01*
X9823730Y-9179003D02*
X9811564Y-9199548D01*
X9811564Y-9199548D02*
X9800404Y-9220735D01*
X9800404Y-9220735D02*
X9790282Y-9242533D01*
X9790282Y-9242533D02*
X9781229Y-9264910D01*
X9781229Y-9264910D02*
X9773278Y-9287835D01*
X9773278Y-9287835D02*
X9766462Y-9311275D01*
X9766462Y-9311275D02*
X9760813Y-9335199D01*
X9760813Y-9335199D02*
X9756363Y-9359575D01*
X9756363Y-9359575D02*
X9753145Y-9384371D01*
X9753145Y-9384371D02*
X9751190Y-9409556D01*
X9751190Y-9409556D02*
X9750531Y-9435097D01*
X9750531Y-9435097D02*
X9750531Y-14023287D01*
X9750531Y-14023287D02*
X9751159Y-14048245D01*
X9751159Y-14048245D02*
X9753024Y-14072868D01*
X9753024Y-14072868D02*
X9756094Y-14097125D01*
X9756094Y-14097125D02*
X9760341Y-14120986D01*
X9760341Y-14120986D02*
X9765735Y-14144421D01*
X9765735Y-14144421D02*
X9772244Y-14167400D01*
X9772244Y-14167400D02*
X9779840Y-14189893D01*
X9779840Y-14189893D02*
X9788492Y-14211871D01*
X9788492Y-14211871D02*
X9798170Y-14233304D01*
X9798170Y-14233304D02*
X9808845Y-14254161D01*
X9808845Y-14254161D02*
X9820486Y-14274412D01*
X9820486Y-14274412D02*
X9833063Y-14294029D01*
X9833063Y-14294029D02*
X9846546Y-14312980D01*
X9846546Y-14312980D02*
X9860906Y-14331236D01*
X9860906Y-14331236D02*
X9876112Y-14348767D01*
X9876112Y-14348767D02*
X9892135Y-14365543D01*
X9892135Y-14365543D02*
X9908943Y-14381534D01*
X9908943Y-14381534D02*
X9926508Y-14396710D01*
X9926508Y-14396710D02*
X9944800Y-14411041D01*
X9944800Y-14411041D02*
X9963787Y-14424498D01*
X9963787Y-14424498D02*
X9983441Y-14437050D01*
X9983441Y-14437050D02*
X10003731Y-14448668D01*
X10003731Y-14448668D02*
X10024628Y-14459321D01*
X10024628Y-14459321D02*
X10046101Y-14468980D01*
X10046101Y-14468980D02*
X10068120Y-14477615D01*
X10068120Y-14477615D02*
X10090656Y-14485195D01*
X10090656Y-14485195D02*
X10113677Y-14491691D01*
X10113677Y-14491691D02*
X10137156Y-14497074D01*
X10137156Y-14497074D02*
X10161060Y-14501312D01*
X10161060Y-14501312D02*
X10185361Y-14504376D01*
X10185361Y-14504376D02*
X10210028Y-14506237D01*
X10210028Y-14506237D02*
X10235032Y-14506864D01*
X10235032Y-14506864D02*
X14764968Y-14506864D01*
X14764968Y-14506864D02*
X14789972Y-14506237D01*
X14789972Y-14506237D02*
X14814638Y-14504376D01*
X14814638Y-14504376D02*
X14838938Y-14501312D01*
X14838938Y-14501312D02*
X14862842Y-14497074D01*
X14862842Y-14497074D02*
X14886318Y-14491691D01*
X14886318Y-14491691D02*
X14909339Y-14485195D01*
X14909339Y-14485195D02*
X14931872Y-14477615D01*
X14931872Y-14477615D02*
X14953890Y-14468980D01*
X14953890Y-14468980D02*
X14975360Y-14459321D01*
X14975360Y-14459321D02*
X14996254Y-14448668D01*
X14996254Y-14448668D02*
X15016542Y-14437050D01*
X15016542Y-14437050D02*
X15036194Y-14424498D01*
X15036194Y-14424498D02*
X15055178Y-14411041D01*
X15055178Y-14411041D02*
X15073467Y-14396710D01*
X15073467Y-14396710D02*
X15091029Y-14381534D01*
X15091029Y-14381534D02*
X15107835Y-14365543D01*
X15107835Y-14365543D02*
X15123855Y-14348767D01*
X15123855Y-14348767D02*
X15139058Y-14331236D01*
X15139058Y-14331236D02*
X15153415Y-14312980D01*
X15153415Y-14312980D02*
X15166896Y-14294029D01*
X15166896Y-14294029D02*
X15179470Y-14274412D01*
X15179470Y-14274412D02*
X15191109Y-14254161D01*
X15191109Y-14254161D02*
X15201781Y-14233304D01*
X15201781Y-14233304D02*
X15211457Y-14211871D01*
X15211457Y-14211871D02*
X15220107Y-14189893D01*
X15220107Y-14189893D02*
X15227701Y-14167400D01*
X15227701Y-14167400D02*
X15234209Y-14144421D01*
X15234209Y-14144421D02*
X15239601Y-14120986D01*
X15239601Y-14120986D02*
X15243847Y-14097125D01*
X15243847Y-14097125D02*
X15246917Y-14072868D01*
X15246917Y-14072868D02*
X15248780Y-14048245D01*
X15248780Y-14048245D02*
X15249408Y-14023287D01*
X15249408Y-14023287D02*
X15249408Y-9435097D01*
X15249408Y-9435097D02*
X15248750Y-9409557D01*
X15248750Y-9409557D02*
X15246796Y-9384374D01*
X15246796Y-9384374D02*
X15243578Y-9359579D01*
X15243578Y-9359579D02*
X15239129Y-9335204D01*
X15239129Y-9335204D02*
X15233481Y-9311281D01*
X15233481Y-9311281D02*
X15226667Y-9287842D01*
X15226667Y-9287842D02*
X15218718Y-9264919D01*
X15218718Y-9264919D02*
X15209668Y-9242542D01*
X15209668Y-9242542D02*
X15199547Y-9220745D01*
X15199547Y-9220745D02*
X15188390Y-9199558D01*
X15188390Y-9199558D02*
X15176227Y-9179014D01*
X15176227Y-9179014D02*
X15163091Y-9159144D01*
X15163091Y-9159144D02*
X15149014Y-9139979D01*
X15149014Y-9139979D02*
X15134029Y-9121553D01*
X15134029Y-9121553D02*
X15118168Y-9103897D01*
X15118168Y-9103897D02*
X15101463Y-9087041D01*
X15101463Y-9087041D02*
X15083947Y-9071019D01*
X15083947Y-9071019D02*
X15065652Y-9055861D01*
X15065652Y-9055861D02*
X15046609Y-9041601D01*
X15046609Y-9041601D02*
X15026852Y-9028268D01*
X15026852Y-9028268D02*
X15006412Y-9015896D01*
X15006412Y-9015896D02*
X14985323Y-9004515D01*
X14985323Y-9004515D02*
X14963615Y-8994159D01*
X14963615Y-8994159D02*
X14941322Y-8984857D01*
X14941322Y-8984857D02*
X14918476Y-8976643D01*
X14918476Y-8976643D02*
X14895108Y-8969548D01*
X14895108Y-8969548D02*
X14918452Y-8962678D01*
X14918452Y-8962678D02*
X14941280Y-8954682D01*
X14941280Y-8954682D02*
X14963559Y-8945592D01*
X14963559Y-8945592D02*
X14985256Y-8935441D01*
X14985256Y-8935441D02*
X15006340Y-8924259D01*
X15006340Y-8924259D02*
X15026777Y-8912080D01*
X15026777Y-8912080D02*
X15046534Y-8898935D01*
X15046534Y-8898935D02*
X15065580Y-8884856D01*
X15065580Y-8884856D02*
X15083881Y-8869876D01*
X15083881Y-8869876D02*
X15101406Y-8854025D01*
X15101406Y-8854025D02*
X15118120Y-8837336D01*
X15118120Y-8837336D02*
X15133993Y-8819842D01*
X15133993Y-8819842D02*
X15148991Y-8801573D01*
X15148991Y-8801573D02*
X15163081Y-8782563D01*
X15163081Y-8782563D02*
X15176232Y-8762842D01*
X15176232Y-8762842D02*
X15188410Y-8742444D01*
X15188410Y-8742444D02*
X15199583Y-8721399D01*
X15199583Y-8721399D02*
X15209718Y-8699740D01*
X15209718Y-8699740D02*
X15218783Y-8677500D01*
X15218783Y-8677500D02*
X15226745Y-8654709D01*
X15226745Y-8654709D02*
X15233571Y-8631400D01*
X15233571Y-8631400D02*
X15239230Y-8607604D01*
X15239230Y-8607604D02*
X15243687Y-8583355D01*
X15243687Y-8583355D02*
X15246912Y-8558683D01*
X15246912Y-8558683D02*
X15248870Y-8533621D01*
X15248870Y-8533621D02*
X15249530Y-8508201D01*
X15249530Y-8508201D02*
X15249530Y-3971354D01*
X15249530Y-3971354D02*
X15248909Y-3946674D01*
X15248909Y-3946674D02*
X15247066Y-3922326D01*
X15247066Y-3922326D02*
X15244030Y-3898340D01*
X15244030Y-3898340D02*
X15239830Y-3874745D01*
X15239830Y-3874745D02*
X15234498Y-3851571D01*
X15234498Y-3851571D02*
X15228061Y-3828847D01*
X15228061Y-3828847D02*
X15220551Y-3806604D01*
X15220551Y-3806604D02*
X15211996Y-3784870D01*
X15211996Y-3784870D02*
X15202426Y-3763676D01*
X15202426Y-3763676D02*
X15191872Y-3743050D01*
X15191872Y-3743050D02*
X15180361Y-3723023D01*
X15180361Y-3723023D02*
X15167925Y-3703624D01*
X15167925Y-3703624D02*
X15154593Y-3684883D01*
X15154593Y-3684883D02*
X15140394Y-3666829D01*
X15140394Y-3666829D02*
X15125359Y-3649492D01*
X15125359Y-3649492D02*
X15109516Y-3632901D01*
X15109516Y-3632901D02*
X15092896Y-3617087D01*
X15092896Y-3617087D02*
X15075528Y-3602078D01*
X15075528Y-3602078D02*
X15057442Y-3587904D01*
X15057442Y-3587904D02*
X15038667Y-3574596D01*
X15038667Y-3574596D02*
X15019234Y-3562182D01*
X15019234Y-3562182D02*
X14999171Y-3550692D01*
X14999171Y-3550692D02*
X14978508Y-3540156D01*
X14978508Y-3540156D02*
X14957276Y-3530604D01*
X14957276Y-3530604D02*
X14935503Y-3522064D01*
X14935503Y-3522064D02*
X14913220Y-3514567D01*
X14913220Y-3514567D02*
X14890456Y-3508142D01*
X14890456Y-3508142D02*
X14867241Y-3502819D01*
X14867241Y-3502819D02*
X14843604Y-3498627D01*
X14843604Y-3498627D02*
X14819575Y-3495596D01*
X14819575Y-3495596D02*
X14795184Y-3493756D01*
X14795184Y-3493756D02*
X14770460Y-3493136D01*
X14770460Y-3493136D02*
X10229479Y-3493136D01*
D13*
X10903112Y-11522990D02*
X10845969Y-11522990D01*
X10874540Y-11522990D02*
X10874540Y-11422990D01*
X10865016Y-11437276D01*
X10855492Y-11446800D01*
X10845969Y-11451561D01*
X10945969Y-11522990D02*
X10945969Y-11422990D01*
X11003112Y-11522990D02*
X10960254Y-11465847D01*
X11003112Y-11422990D02*
X10945969Y-11480133D01*
X10861080Y-11053598D02*
X10803938Y-11053598D01*
X10832509Y-11053598D02*
X10832509Y-10953598D01*
X10822985Y-10967884D01*
X10813461Y-10977408D01*
X10803938Y-10982170D01*
X10922985Y-10953598D02*
X10932509Y-10953598D01*
X10942033Y-10958360D01*
X10946795Y-10963122D01*
X10951557Y-10972646D01*
X10956319Y-10991693D01*
X10956319Y-11015503D01*
X10951557Y-11034551D01*
X10946795Y-11044074D01*
X10942033Y-11048836D01*
X10932509Y-11053598D01*
X10922985Y-11053598D01*
X10913461Y-11048836D01*
X10908699Y-11044074D01*
X10903938Y-11034551D01*
X10899176Y-11015503D01*
X10899176Y-10991693D01*
X10903938Y-10972646D01*
X10908699Y-10963122D01*
X10913461Y-10958360D01*
X10922985Y-10953598D01*
X10999176Y-11053598D02*
X10999176Y-10953598D01*
X11056319Y-11053598D02*
X11013461Y-10996455D01*
X11056319Y-10953598D02*
X10999176Y-11010741D01*
X14004584Y-11154182D02*
X13947441Y-11154182D01*
X13976013Y-11154182D02*
X13976013Y-11054182D01*
X13966489Y-11068468D01*
X13956965Y-11077992D01*
X13947441Y-11082754D01*
X14066489Y-11054182D02*
X14076013Y-11054182D01*
X14085537Y-11058944D01*
X14090299Y-11063706D01*
X14095061Y-11073230D01*
X14099822Y-11092277D01*
X14099822Y-11116087D01*
X14095061Y-11135135D01*
X14090299Y-11144658D01*
X14085537Y-11149420D01*
X14076013Y-11154182D01*
X14066489Y-11154182D01*
X14056965Y-11149420D01*
X14052203Y-11144658D01*
X14047441Y-11135135D01*
X14042680Y-11116087D01*
X14042680Y-11092277D01*
X14047441Y-11073230D01*
X14052203Y-11063706D01*
X14056965Y-11058944D01*
X14066489Y-11054182D01*
X14142680Y-11154182D02*
X14142680Y-11054182D01*
X14199822Y-11154182D02*
X14156965Y-11097039D01*
X14199822Y-11054182D02*
X14142680Y-11111325D01*
X14082683Y-10686822D02*
X14025541Y-10686822D01*
X14054112Y-10686822D02*
X14054112Y-10586822D01*
X14044588Y-10601108D01*
X14035064Y-10610632D01*
X14025541Y-10615394D01*
X14125541Y-10686822D02*
X14125541Y-10586822D01*
X14182683Y-10686822D02*
X14139826Y-10629679D01*
X14182683Y-10586822D02*
X14125541Y-10643965D01*
X10873272Y-10512070D02*
X10816130Y-10512070D01*
X10844701Y-10512070D02*
X10844701Y-10412070D01*
X10835177Y-10426356D01*
X10825653Y-10435880D01*
X10816130Y-10440642D01*
X10935177Y-10412070D02*
X10944701Y-10412070D01*
X10954225Y-10416832D01*
X10958987Y-10421594D01*
X10963749Y-10431118D01*
X10968511Y-10450165D01*
X10968511Y-10473975D01*
X10963749Y-10493023D01*
X10958987Y-10502546D01*
X10954225Y-10507308D01*
X10944701Y-10512070D01*
X10935177Y-10512070D01*
X10925653Y-10507308D01*
X10920891Y-10502546D01*
X10916130Y-10493023D01*
X10911368Y-10473975D01*
X10911368Y-10450165D01*
X10916130Y-10431118D01*
X10920891Y-10421594D01*
X10925653Y-10416832D01*
X10935177Y-10412070D01*
X11011368Y-10512070D02*
X11011368Y-10412070D01*
X11068511Y-10512070D02*
X11025653Y-10454927D01*
X11068511Y-10412070D02*
X11011368Y-10469213D01*
X13064784Y-7538746D02*
X13007641Y-7538746D01*
X13036213Y-7538746D02*
X13036213Y-7438746D01*
X13026689Y-7453032D01*
X13017165Y-7462556D01*
X13007641Y-7467317D01*
X13126689Y-7438746D02*
X13136213Y-7438746D01*
X13145737Y-7443508D01*
X13150499Y-7448270D01*
X13155261Y-7457794D01*
X13160022Y-7476841D01*
X13160022Y-7500651D01*
X13155261Y-7519698D01*
X13150499Y-7529222D01*
X13145737Y-7533984D01*
X13136213Y-7538746D01*
X13126689Y-7538746D01*
X13117165Y-7533984D01*
X13112403Y-7529222D01*
X13107641Y-7519698D01*
X13102880Y-7500651D01*
X13102880Y-7476841D01*
X13107641Y-7457794D01*
X13112403Y-7448270D01*
X13117165Y-7443508D01*
X13126689Y-7438746D01*
X13202880Y-7538746D02*
X13202880Y-7438746D01*
X13260022Y-7538746D02*
X13217165Y-7481603D01*
X13260022Y-7438746D02*
X13202880Y-7495889D01*
X12896211Y-7073748D02*
X12962878Y-7073748D01*
X12896211Y-7173748D01*
X12962878Y-7173748D01*
X13000973Y-7121367D02*
X13034307Y-7121367D01*
X13048592Y-7173748D02*
X13000973Y-7173748D01*
X13000973Y-7073748D01*
X13048592Y-7073748D01*
X13091450Y-7173748D02*
X13091450Y-7073748D01*
X13148592Y-7173748D01*
X13148592Y-7073748D01*
X13196211Y-7121367D02*
X13229545Y-7121367D01*
X13243831Y-7173748D02*
X13196211Y-7173748D01*
X13196211Y-7073748D01*
X13243831Y-7073748D01*
X13343831Y-7173748D02*
X13310497Y-7126129D01*
X13286688Y-7173748D02*
X13286688Y-7073748D01*
X13324783Y-7073748D01*
X13334307Y-7078510D01*
X13339069Y-7083272D01*
X13343831Y-7092796D01*
X13343831Y-7107081D01*
X13339069Y-7116605D01*
X13334307Y-7121367D01*
X13324783Y-7126129D01*
X13286688Y-7126129D01*
X13000848Y-6581101D02*
X12967514Y-6581101D01*
X12967514Y-6633482D02*
X12967514Y-6533482D01*
X13015133Y-6533482D01*
X13053229Y-6533482D02*
X13053229Y-6614434D01*
X13057990Y-6623958D01*
X13062752Y-6628720D01*
X13072276Y-6633482D01*
X13091324Y-6633482D01*
X13100848Y-6628720D01*
X13105610Y-6623958D01*
X13110371Y-6614434D01*
X13110371Y-6533482D01*
X13153229Y-6628720D02*
X13167514Y-6633482D01*
X13191324Y-6633482D01*
X13200848Y-6628720D01*
X13205610Y-6623958D01*
X13210371Y-6614434D01*
X13210371Y-6604911D01*
X13205610Y-6595387D01*
X13200848Y-6590625D01*
X13191324Y-6585863D01*
X13172276Y-6581101D01*
X13162752Y-6576339D01*
X13157990Y-6571577D01*
X13153229Y-6562053D01*
X13153229Y-6552530D01*
X13157990Y-6543006D01*
X13162752Y-6538244D01*
X13172276Y-6533482D01*
X13196086Y-6533482D01*
X13210371Y-6538244D01*
X13253229Y-6581101D02*
X13286562Y-6581101D01*
X13300848Y-6633482D02*
X13253229Y-6633482D01*
X13253229Y-6533482D01*
X13300848Y-6533482D01*
X14178370Y-5508588D02*
X14187894Y-5513350D01*
X14206942Y-5513350D01*
X14216466Y-5508588D01*
X14221227Y-5499064D01*
X14221227Y-5494303D01*
X14216466Y-5484779D01*
X14206942Y-5480017D01*
X14192656Y-5480017D01*
X14183132Y-5475255D01*
X14178370Y-5465731D01*
X14178370Y-5460969D01*
X14183132Y-5451445D01*
X14192656Y-5446683D01*
X14206942Y-5446683D01*
X14216466Y-5451445D01*
X14254561Y-5446683D02*
X14273608Y-5513350D01*
X14292656Y-5465731D01*
X14311704Y-5513350D01*
X14330751Y-5446683D01*
X14368846Y-5513350D02*
X14368846Y-5446683D01*
X14368846Y-5413350D02*
X14364085Y-5418112D01*
X14368846Y-5422874D01*
X14373608Y-5418112D01*
X14368846Y-5413350D01*
X14368846Y-5422874D01*
X14402180Y-5446683D02*
X14440275Y-5446683D01*
X14416465Y-5413350D02*
X14416465Y-5499064D01*
X14421227Y-5508588D01*
X14430751Y-5513350D01*
X14440275Y-5513350D01*
X14516466Y-5508588D02*
X14506942Y-5513350D01*
X14487894Y-5513350D01*
X14478370Y-5508588D01*
X14473608Y-5503826D01*
X14468846Y-5494303D01*
X14468846Y-5465731D01*
X14473608Y-5456207D01*
X14478370Y-5451445D01*
X14487894Y-5446683D01*
X14506942Y-5446683D01*
X14516466Y-5451445D01*
X14559323Y-5513350D02*
X14559323Y-5413350D01*
X14602180Y-5513350D02*
X14602180Y-5460969D01*
X14597418Y-5451445D01*
X14587894Y-5446683D01*
X14573608Y-5446683D01*
X14564085Y-5451445D01*
X14559323Y-5456207D01*
X13649986Y-5756611D02*
X13649986Y-5813754D01*
X13649986Y-5785182D02*
X13549986Y-5785182D01*
X13564272Y-5794706D01*
X13573796Y-5804230D01*
X13578557Y-5813754D01*
X13549986Y-5694706D02*
X13549986Y-5685182D01*
X13554748Y-5675658D01*
X13559510Y-5670896D01*
X13569034Y-5666135D01*
X13588081Y-5661373D01*
X13611891Y-5661373D01*
X13630938Y-5666135D01*
X13640462Y-5670896D01*
X13645224Y-5675658D01*
X13649986Y-5685182D01*
X13649986Y-5694706D01*
X13645224Y-5704230D01*
X13640462Y-5708992D01*
X13630938Y-5713754D01*
X13611891Y-5718516D01*
X13588081Y-5718516D01*
X13569034Y-5713754D01*
X13559510Y-5708992D01*
X13554748Y-5704230D01*
X13549986Y-5694706D01*
X13583319Y-5575658D02*
X13649986Y-5575658D01*
X13583319Y-5618516D02*
X13635700Y-5618516D01*
X13645224Y-5613754D01*
X13649986Y-5604230D01*
X13649986Y-5589944D01*
X13645224Y-5580420D01*
X13640462Y-5575658D01*
X13597605Y-5494706D02*
X13597605Y-5528039D01*
X13649986Y-5528039D02*
X13549986Y-5528039D01*
X13549986Y-5480420D01*
X12434102Y-5954548D02*
X12376959Y-5954548D01*
X12405531Y-5954548D02*
X12405531Y-5854548D01*
X12396007Y-5868834D01*
X12386483Y-5878358D01*
X12376959Y-5883119D01*
X12496007Y-5854548D02*
X12505531Y-5854548D01*
X12515055Y-5859310D01*
X12519817Y-5864072D01*
X12524579Y-5873596D01*
X12529340Y-5892643D01*
X12529340Y-5916453D01*
X12524579Y-5935500D01*
X12519817Y-5945024D01*
X12515055Y-5949786D01*
X12505531Y-5954548D01*
X12496007Y-5954548D01*
X12486483Y-5949786D01*
X12481721Y-5945024D01*
X12476959Y-5935500D01*
X12472198Y-5916453D01*
X12472198Y-5892643D01*
X12476959Y-5873596D01*
X12481721Y-5864072D01*
X12486483Y-5859310D01*
X12496007Y-5854548D01*
X12572198Y-5954548D02*
X12572198Y-5854548D01*
X12629340Y-5954548D02*
X12586483Y-5897405D01*
X12629340Y-5854548D02*
X12572198Y-5911691D01*
X12450358Y-5446040D02*
X12393215Y-5446040D01*
X12421787Y-5446040D02*
X12421787Y-5346040D01*
X12412263Y-5360326D01*
X12402739Y-5369850D01*
X12393215Y-5374612D01*
X12507501Y-5388897D02*
X12497977Y-5384135D01*
X12493215Y-5379373D01*
X12488454Y-5369850D01*
X12488454Y-5365088D01*
X12493215Y-5355564D01*
X12497977Y-5350802D01*
X12507501Y-5346040D01*
X12526549Y-5346040D01*
X12536073Y-5350802D01*
X12540835Y-5355564D01*
X12545596Y-5365088D01*
X12545596Y-5369850D01*
X12540835Y-5379373D01*
X12536073Y-5384135D01*
X12526549Y-5388897D01*
X12507501Y-5388897D01*
X12497977Y-5393659D01*
X12493215Y-5398421D01*
X12488454Y-5407945D01*
X12488454Y-5426993D01*
X12493215Y-5436516D01*
X12497977Y-5441278D01*
X12507501Y-5446040D01*
X12526549Y-5446040D01*
X12536073Y-5441278D01*
X12540835Y-5436516D01*
X12545596Y-5426993D01*
X12545596Y-5407945D01*
X12540835Y-5398421D01*
X12536073Y-5393659D01*
X12526549Y-5388897D01*
X12588454Y-5446040D02*
X12588454Y-5346040D01*
X12645596Y-5446040D02*
X12602739Y-5388897D01*
X12645596Y-5346040D02*
X12588454Y-5403183D01*
X11459998Y-5788990D02*
X11459998Y-5846133D01*
X11459998Y-5817561D02*
X11359998Y-5817561D01*
X11374284Y-5827085D01*
X11383808Y-5836609D01*
X11388569Y-5846133D01*
X11359998Y-5727085D02*
X11359998Y-5717561D01*
X11364760Y-5708037D01*
X11369522Y-5703276D01*
X11379046Y-5698514D01*
X11398093Y-5693752D01*
X11421903Y-5693752D01*
X11440950Y-5698514D01*
X11450474Y-5703276D01*
X11455236Y-5708037D01*
X11459998Y-5717561D01*
X11459998Y-5727085D01*
X11455236Y-5736609D01*
X11450474Y-5741371D01*
X11440950Y-5746133D01*
X11421903Y-5750895D01*
X11398093Y-5750895D01*
X11379046Y-5746133D01*
X11369522Y-5741371D01*
X11364760Y-5736609D01*
X11359998Y-5727085D01*
X11359998Y-5631847D02*
X11359998Y-5622323D01*
X11364760Y-5612799D01*
X11369522Y-5608037D01*
X11379046Y-5603276D01*
X11398093Y-5598514D01*
X11421903Y-5598514D01*
X11440950Y-5603276D01*
X11450474Y-5608037D01*
X11455236Y-5612799D01*
X11459998Y-5622323D01*
X11459998Y-5631847D01*
X11455236Y-5641371D01*
X11450474Y-5646133D01*
X11440950Y-5650895D01*
X11421903Y-5655657D01*
X11398093Y-5655657D01*
X11379046Y-5650895D01*
X11369522Y-5646133D01*
X11364760Y-5641371D01*
X11359998Y-5631847D01*
X11393331Y-5555657D02*
X11459998Y-5555657D01*
X11402855Y-5555657D02*
X11398093Y-5550895D01*
X11393331Y-5541371D01*
X11393331Y-5527085D01*
X11398093Y-5517561D01*
X11407617Y-5512799D01*
X11459998Y-5512799D01*
X11407617Y-5431847D02*
X11407617Y-5465180D01*
X11459998Y-5465180D02*
X11359998Y-5465180D01*
X11359998Y-5417561D01*
X10216955Y-5432070D02*
X10216955Y-5332070D01*
X10216955Y-5370165D02*
X10226479Y-5365403D01*
X10245527Y-5365403D01*
X10255051Y-5370165D01*
X10259813Y-5374927D01*
X10264575Y-5384451D01*
X10264575Y-5413023D01*
X10259813Y-5422546D01*
X10255051Y-5427308D01*
X10245527Y-5432070D01*
X10226479Y-5432070D01*
X10216955Y-5427308D01*
X10350289Y-5365403D02*
X10350289Y-5432070D01*
X10307432Y-5365403D02*
X10307432Y-5417784D01*
X10312194Y-5427308D01*
X10321717Y-5432070D01*
X10336003Y-5432070D01*
X10345527Y-5427308D01*
X10350289Y-5422546D01*
X10388384Y-5365403D02*
X10440765Y-5365403D01*
X10388384Y-5432070D01*
X10440765Y-5432070D01*
X10469336Y-5365403D02*
X10521717Y-5365403D01*
X10469336Y-5432070D01*
X10521717Y-5432070D01*
X10597908Y-5427308D02*
X10588384Y-5432070D01*
X10569336Y-5432070D01*
X10559813Y-5427308D01*
X10555051Y-5417784D01*
X10555051Y-5379689D01*
X10559813Y-5370165D01*
X10569336Y-5365403D01*
X10588384Y-5365403D01*
X10597908Y-5370165D01*
X10602670Y-5379689D01*
X10602670Y-5389213D01*
X10555051Y-5398737D01*
X10645527Y-5432070D02*
X10645527Y-5365403D01*
X10645527Y-5384451D02*
X10650289Y-5374927D01*
X10655051Y-5370165D01*
X10664575Y-5365403D01*
X10674098Y-5365403D01*
X14340372Y-4007638D02*
X14283229Y-4007638D01*
X14311801Y-4007638D02*
X14311801Y-3907638D01*
X14302277Y-3921924D01*
X14292753Y-3931448D01*
X14283229Y-3936209D01*
X14402277Y-3907638D02*
X14411801Y-3907638D01*
X14421325Y-3912400D01*
X14426087Y-3917162D01*
X14430849Y-3926686D01*
X14435610Y-3945733D01*
X14435610Y-3969543D01*
X14430849Y-3988590D01*
X14426087Y-3998114D01*
X14421325Y-4002876D01*
X14411801Y-4007638D01*
X14402277Y-4007638D01*
X14392753Y-4002876D01*
X14387991Y-3998114D01*
X14383229Y-3988590D01*
X14378468Y-3969543D01*
X14378468Y-3945733D01*
X14383229Y-3926686D01*
X14387991Y-3917162D01*
X14392753Y-3912400D01*
X14402277Y-3907638D01*
X14478468Y-4007638D02*
X14478468Y-3907638D01*
X14535610Y-4007638D02*
X14492753Y-3950495D01*
X14535610Y-3907638D02*
X14478468Y-3964781D01*
M02*
